<svg viewBox="0 0 28 28" fill="none" xmlns="http://www.w3.org/2000/svg">
  <path d="M20.982 47.901s19.53-14.722 27.24-25.106c.278-.377.277-1.39.277-1.39L25.39 7.04 6.92 22.025l-4.638-2.617-1.047-.52c-1.81 4.225.272 10.375.473 10.555l18.765 18.46a.4.4 0 0 0 .255.097c.09 0 .177-.035.255-.099Z" fill="#8E2011"/>
  <path d="m23.564 44.69-10.92-5.301v.808l7.83 7.706a.4.4 0 0 0 .254.097.4.4 0 0 0 .254-.097s.977-.735 2.582-1.995V44.69ZM46.777 24.628c.523-.623 1.001-1.235 1.44-1.833.278-.376.277-1.39.277-1.39l-1.722-1.07.005 4.293Z" fill="#BC5C0D"/>
  <path d="M20.982 46.938s18.131-13.047 27.27-24.93c.362-.471.332-.983-.118-1.249L25.39 6.077 6.92 21.06l-4.638-2.615-1.047.442c-1.81 4.226.393 9.894.59 10.073l18.648 17.978c.078.066.166.1.255.1.09 0 .177-.034.255-.1Z" fill="#B73D1C"/>
  <path d="M48.252 22.008c.362-.471.332-.982-.118-1.249l-2.288-1.478-5.711-3.03s3.727 3.202 6.992 5.131c.733.435-.75 1.944-.35 2.47 0-.007 1.006-1.234 1.475-1.844ZM20.526 45.504c-4.841-3.743-6.986-6.416-7.88-6.11l7.831 7.55a.395.395 0 0 0 .254.098.395.395 0 0 0 .254-.098s.663-.479 1.198-.88c.713-.535 1.382-1.042 1.382-1.042-.24-1.14-2.503.893-3.04.482Z" fill="#ED9A15"/>
  <path d="M1.773 19.327s-.89 4.33.67 8.684l18.285 17.206 2.378-6.51-2.435-5.47-18.898-13.91Z" fill="#E09A85"/>
  <path d="M20.616 41.51 2.446 26.786l18.52 16.526c.12-.368-.35-1.802-.35-1.802Z" fill="#AF7464"/>
  <path d="M47.396 21.01s-.462-.01-.437-.072a.93.93 0 0 0 0-.509l.35-.41c.075-.388.131-.784.168-1.184 0-.226-.203-.772-.203-.772s.21-.685.21-.942a3.576 3.576 0 0 0-.109-.386c-.048-.193.103-.285.094-.386-.011-.137-.343-.26-.343-.26s.499-.826.5-.986c0-.224-.282-.88-.282-.88l.039-.859.04-1.725L20.67 33.243s-.18 2.29-.096 3.043c.078.377.175.745.292 1.1l-.4.561.36.597-.262 1.677s.35.588.335.827c-.01.153-.284.462-.284.462s.444 1.447.335 1.916c-.05.214-.484.567-.484.567l.36.566-.099.663S38.407 33.248 47.397 21.01Z" fill="#FFD3C5"/>
  <path d="M20.616 41.51s.373 1.25.35 1.808c2.679-1.967 18.054-13.441 26.478-24.14.017-.113.028-.227.033-.343C29.582 36.589 20.616 41.51 20.616 41.51ZM47.346 14.225l.04-.859.036-1.604-.081-.053-26.67 21.534s-.18 2.29-.096 3.043l.008.058c4.624-3.024 18.553-12.46 26.939-21.664-.082-.231-.176-.455-.176-.455Z" fill="#E09A85"/>
  <path d="m4.04 29.52-1.648-1.544s-.916-3.122-.87-4.33c.046-1.208.148-3.647.148-3.647l18.884 15.63.03.717S4.631 23.08 3.138 22.066c-1.47-.992-1.163.216-.243.897 1.543 1.142 4.659 4.12 4.659 4.12s-4.288-3.086-4.822-3.385c-.533-.299-1.09.757.198 1.611 3.162 2.1 8.68 7.31 8.68 7.31s-6.915-5.671-8.138-6.578c-1.224-.907-1.309.689.554 2.03 0 0-1.724-.297.015 1.45Z" fill="#AF7464"/>
  <path d="m20.465 37.947.361.597-.044.283-9.067-7.53 8.75 6.65Z" fill="#AF7464"/>
  <path d="m20.467 37.947.36.597-.04.283 9.028-7.286c-5.014 3.685-9.348 6.406-9.348 6.406ZM45.237 16.346l.306.41c1.256-1.48 1.69 1.365 1.606 3.451l.16-.193c.075-.387.131-.78.168-1.179 0-.226-.203-.772-.203-.772s.21-.685.21-.942a3.575 3.575 0 0 0-.109-.386c-.048-.192.103-.285.094-.386-.011-.137-.343-.26-.343-.26s.499-.826.5-.986a2.72 2.72 0 0 0-.206-.697l-.461.159-1.722 1.78ZM27.797 39.082a341.413 341.413 0 0 0 4.985-4.27l1.235-1.089c.41-.367.823-.726 1.229-1.102l1.225-1.11 1.215-1.134c.408-.369.804-.772 1.207-1.146l.602-.58c.2-.192.393-.395.595-.59.393-.395.797-.783 1.19-1.185.392-.401.785-.814 1.177-1.22 1.55-1.651 3.068-3.363 4.507-5.227-1.308 2.055-2.777 3.892-4.295 5.627-1.518 1.735-3.124 3.32-4.743 4.86-1.618 1.54-3.284 2.96-4.971 4.328-1.688 1.368-3.402 2.669-5.158 3.838Z" fill="#E09A85"/>
  <path d="m47.127 16.091-2.255 2.271a250.8 250.8 0 0 1-2.278 2.227c-.762.738-1.533 1.455-2.302 2.175-.77.72-1.55 1.419-2.328 2.123-.778.704-1.57 1.383-2.355 2.06a77.973 77.973 0 0 1-2.382 1.989 69.818 69.818 0 0 1-4.883 3.666c.797-.654 1.596-1.302 2.385-1.978.79-.675 1.58-1.341 2.366-2.018.786-.678 1.57-1.36 2.355-2.056.785-.694 1.57-1.378 2.34-2.078.77-.7 1.557-1.393 2.334-2.094l2.33-2.105c1.552-1.4 3.099-2.825 4.672-4.182Z" fill="#E09A85"/>
  <path d="M20.616 41.51s3.918-1.648 16.59-12.953L20.615 41.51Z" fill="#A56A5D"/>
  <path d="M10.304 33.29a94.28 94.28 0 0 1 2.495 1.948c.825.662 1.646 1.341 2.463 2.022a129.63 129.63 0 0 1 4.848 4.25c-.84-.632-1.671-1.281-2.495-1.947a158.5 158.5 0 0 1-4.904-4.11 134.981 134.981 0 0 1-2.407-2.162ZM11.396 36.049a89.63 89.63 0 0 1 2.4 2.022c.794.687 1.58 1.391 2.365 2.098.785.706 1.57 1.428 2.34 2.159.771.731 1.546 1.472 2.307 2.235a100.739 100.739 0 0 1-2.4-2.023c-.793-.689-1.58-1.391-2.365-2.1-.785-.707-1.57-1.427-2.34-2.159-.77-.731-1.55-1.46-2.307-2.232ZM2.11 22.808c.611.413 1.218.846 1.822 1.297a78.775 78.775 0 0 1 3.559 2.814c.59.49 1.164.994 1.737 1.517a54.097 54.097 0 0 1-1.822-1.297 81.94 81.94 0 0 1-3.557-2.814 49.31 49.31 0 0 1-1.738-1.517ZM2.068 25.005a.312.312 0 0 1 .212.042c.07.029.138.064.207.096.13.076.261.157.4.24.262.168.523.355.777.546.254.19.509.386.756.604.247.218.493.426.734.656-.13-.085-.262-.177-.392-.268l-.386-.28c-.262-.193-.51-.386-.766-.579l-.762-.579c-.131-.095-.256-.193-.385-.276-.065-.044-.13-.09-.195-.13-.033-.022-.067-.038-.1-.057-.035-.02-.066-.031-.1-.015Z" fill="#91554C"/>
  <path d="M9.012 32.677c-2.654 1.98-6.507 7.14-6.507 7.14s.261-2.37.384-3.28c.032-.243.045-.286-.098-.226-.596.253-2.268.548-2.268.548s2.779-4.865 5.531-6.625l2.958 2.123v.32Z" fill="#AF1919"/>
  <path d="M9.012 32.355c-2.654 1.98-6.507 7.46-6.507 7.46s.261-2.69.384-3.61c.032-.242.045-.286-.098-.224-.596.253-2.268.868-2.268.868s2.779-5.185 5.531-6.947l2.958 2.453Z" fill="url(#a)"/>
  <path d="M7.695 31.263c-1.989 1.954-4.167 4.888-4.918 5.924-.026.241-.054.498-.08.755.701-.975 3.203-4.375 5.358-6.382l-.36-.297ZM6.592 30.348c-2.093 2.009-4.448 5.181-5.15 6.16l.613-.234c1.1-1.474 3.116-4.052 4.868-5.652l-.33-.274Z" fill="#EAA542"/>
  <path d="M4.06 31.697c.467.267.949.476 1.44.625a6.802 6.802 0 0 0 3.25.24l.262-.207-2.958-2.45c-.71.478-1.38 1.08-1.994 1.792Z" fill="#DDDDDD" style="mix-blend-mode:multiply"/>
  <path d="M1.237 18.887c0 .259.048.512.138.735.09.222.217.406.37.531L20.364 35.56a.477.477 0 0 0 .306.119c.108 0 .213-.041.306-.119 0 0 18.165-12.055 27.045-22.94.435-.533.333-1.846.333-1.846l-19.93-9.579L1.236 18.887Z" fill="#A32511"/>
  <path d="M46.706 14.167c.457-.515.893-1.03 1.309-1.544.435-.533.333-1.845.333-1.845l-1.606-.772h-.04l.004 4.16ZM23.6 32.768l-11.412-4.88v.94l8.17 6.738c.094.078.2.12.308.12a.479.479 0 0 0 .307-.12c.47-.326 1.793-1.22 2.617-1.81l.01-.988Z" fill="#C6640C"/>
  <path d="m1.237 18.887 19.126 15.708a.478.478 0 0 0 .306.119c.108 0 .213-.04.306-.119 0 0 19.508-13.188 27.076-22.946.425-.548.419-1.473-.121-1.737L29.706.232a1.464 1.464 0 0 0-1.424.095C14.62 7.708 5.863 15.186 2.705 17.932l-.208-.172a53.95 53.95 0 0 0-1.26 1.127Z" fill="url(#b)"/>
  <path d="M47.595 10.062 29.371.394a1.465 1.465 0 0 0-1.424.093 2.397 2.397 0 0 1-.6.166.195.195 0 0 0-.065.094.307.307 0 0 0-.015.132l18.33 9.768c.54.268.262 1.195-.163 1.737l2.283-.579c.425-.55.414-1.474-.122-1.743Z" fill="url(#c)"/>
  <path d="m6.67 23.349 4.415 3.63 9.278 7.62a.477.477 0 0 0 .306.119c.108 0 .213-.04.307-.119 0 0 14.95-12.362 21.896-17.946-17.544 12.77-31.34 9.57-36.202 6.696Z" fill="#DBDBDB" style="mix-blend-mode:multiply"/>
  <path d="M47.93 9.902 29.537.142a1.466 1.466 0 0 0-1.424.094l-.766.417L45.57 10.32c.54.268.547 1.193.122 1.737-5.65 7.287-18.264 16.372-24.158 20.542a.998.998 0 0 1-.619.168 1.07 1.07 0 0 1-.604-.257L2.497 17.761a44.6 44.6 0 0 0-1.26 1.126l19.126 15.708a.478.478 0 0 0 .306.119c.108 0 .213-.04.306-.119 0 0 4.818-3.217 10.478-7.643 6.242-4.883 12.533-10.095 16.598-15.303.427-.552.419-1.479-.121-1.747Z" fill="url(#d)"/>
  <path d="M47.93 9.902 39.91 5.657c-.956.43 3.855 2.894 7.065 4.998.696.453-.68 1.63-.273 2.63l.815-.965c.183-.224.36-.446.531-.666.428-.56.421-1.484-.12-1.752Z" fill="url(#e)"/>
  <path d="m12.188 27.882 8.175 6.713a.478.478 0 0 0 .307.12c.107 0 .212-.042.306-.12 0 0 .523-.343.688-.46a759.67 759.67 0 0 0 1.936-1.367c-.238-1.133-2.616.612-3.175.253-5.313-3.437-7.226-5.89-8.237-5.14Z" fill="url(#f)"/>
  <path d="M2.569 28.136c.015.058-.276-.14-.376-.326-.813-1.515-1.439-5.052-.723-8.025.017-.068.332.333.326.41-.218 2.754.057 5.165.773 7.941Z" fill="#EAA542"/>
  <path d="M2.511 28.125c.038.023.063.029.058.011-.716-2.776-.99-5.187-.773-7.94 0-.078-.31-.48-.326-.412-.101.428-.177.867-.228 1.313.051 2.423.495 4.724 1.27 7.028Z" fill="#D8953D"/>
  <path d="M34.34 23.441c-2.271-.53-3.905-3.058-4.37-3.813C24.091 10.12 19.232 8.05 16.241 7.508c-1.548 1.014-2.747 1.981-4.071 2.913 2.498-.204 7.496 1.064 14.458 13.034 1.142 1.93 2.674 3.267 4.371 3.813l.026.01c1.286-.99 2.627-2.044 3.979-3.142a1.332 1.332 0 0 0-.278-.461.797.797 0 0 0-.387-.234Z" fill="#DBDBDB" style="mix-blend-mode:multiply"/>
  <path d="M31.027 27.278v1.003l-.261.193.75.193.514.267c.083.21-.3.862-.301 1.01.028.262.068.52.12.773 0 0 .33.123.342.26.009.102-.143.193-.095.386.044.125.08.254.11.386a4.708 4.708 0 0 1-.152.826s-.401.567-.402.795c0 .114.753.486.672.911l-.535 1.391.88.444c-.523.896-.041 1.596-.041 1.596l-.524.442.012.737 2.287-1.972.031-12.302-3.406 2.66Z" fill="#DBDBDB" style="mix-blend-mode:multiply"/>
  <path d="m45.85 41.608-2.64-2.87a3.844 3.844 0 0 0-.968-.897c-1.274-.805-4.48-2.933-5.13-4.37-.817-1.801.98-10.63-1.047-11.106-2.27-.531-3.906-3.06-4.371-3.814C25.747 8.93 20.843 6.92 17.861 6.411c-.742-.125-3.14 1.693-4.66 2.931l-.274-.208-1.046.511s.042.539.291.772c1.344-.193 7.674-2.053 15.736 11.81.838 1.444 2.373 3.03 4.448 3.71 2.005.657 0 8.529 1.146 11.192.547 1.27 3.341 3.194 4.82 4.163.701.46 1.45.747 2.213.852l4.945.69c.323.044.368-1.226.368-1.226Z" fill="#912F1C"/>
  <path d="M17.863 5.603c2.982.507 7.885 2.518 13.832 12.14.467.754 2.1 3.28 4.37 3.813 2.033.477.235 9.305 1.047 11.106.655 1.437 3.859 3.566 5.132 4.37.352.224.679.526.968.898l2.525 3.246c.053.07.089.161.104.263a.705.705 0 0 1-.023.303.466.466 0 0 1-.14.225.244.244 0 0 1-.203.058l-4.932-.69a5.357 5.357 0 0 1-2.224-.848c-1.48-.965-3.983-2.744-4.55-3.995-.814-1.802.958-10.45-1.046-11.105-1.695-.547-3.227-1.884-4.368-3.812C20.293 7.712 13.739 9.15 11.87 9.653c.004-.008 4.874-4.24 5.993-4.05Z" fill="url(#g)"/>
  <path d="M44.048 41.085h-.16l-3.303-.461a4.983 4.983 0 0 1-2.053-.79c-2.355-1.543-3.976-2.94-4.336-3.731-.234-.518-.14-2.476-.064-4.053.154-3.205.33-6.837-1.294-7.37-1.59-.51-3.027-1.762-4.098-3.572-5.259-9.043-10.06-12.736-15.803-12.35l.131-.106.08-.066c2.792-.166 5.182.58 7.552 2.316 2.654 1.957 5.313 5.27 8.127 10.094 1.053 1.783 2.469 3.017 4.036 3.518 1.717.562 1.539 4.267 1.382 7.536-.067 1.386-.17 3.474.046 3.95.348.772 1.95 2.142 4.288 3.667a4.92 4.92 0 0 0 2.016.772l3.303.459c.392.035.566-.068.587-.14.01-.034-.012-.086-.058-.146l-1.62-2.024a3.207 3.207 0 0 0-.808-.745c-2.06-1.3-4.657-3.17-5.344-4.687-.41-.905-.418-2.488-.29-5.09.095-1.917.27-5.481-.392-5.638-2.236-.523-3.925-2.792-4.732-4.099C26.4 10.497 21.154 6.151 16.56 6.095l.13-.075.143-.078c4.58.153 9.682 4.504 14.493 12.281.798 1.29 2.463 3.532 4.667 4.053.707.166.63 2.96.49 5.806-.127 2.563-.127 4.119.266 4.987.706 1.561 3.621 3.568 5.295 4.631.304.191.586.452.836.772l1.62 2.044c.11.14.11.255.088.326-.06.2-.332.243-.54.243Z" fill="url(#h)"/>
  <path d="M41.362 38.78c-.017.277-.29.468-.608.428-.32-.041-.563-.298-.546-.58.017-.281.29-.468.608-.428.32.04.563.301.546.58Z" fill="#99321A"/>
  <path d="M41.197 39.096c-.128-.192-.301-.305-.484-.315a.588.588 0 0 0-.44.112c.128.192.302.305.484.314a.583.583 0 0 0 .44-.111Z" fill="#662C20"/>
  <path d="M38.81 37.029c-.043.27-.329.41-.642.31-.312-.1-.53-.4-.489-.673.042-.272.328-.411.641-.31.313.1.531.4.49.673Z" fill="#99321A"/>
  <path d="M38.613 37.31c-.11-.214-.271-.358-.451-.4a.561.561 0 0 0-.445.026c.11.216.271.36.451.404a.553.553 0 0 0 .445-.03Z" fill="#662C20"/>
  <path d="M36.545 34.787c.073-.258-.106-.613-.4-.794-.294-.181-.592-.12-.664.139-.073.257.106.613.4.794.294.18.592.119.664-.139Z" fill="#99321A"/>
  <path d="M36.314 35.02c-.08-.243-.22-.43-.392-.521a.58.58 0 0 0-.441-.097c.08.243.22.43.392.521.138.093.291.127.441.097Z" fill="#662C20"/>
  <path d="M37.003 32.3c-.358-1.77.375-5.177-.04-9.121-.446 1.183-1.418 2.895-3.422 3.497.46 2.122-.092 6.28.02 8.556.654-1.364 1.79-3.002 3.442-2.931Z" fill="#E2E2E2" style="mix-blend-mode:multiply"/>
  <path opacity=".2" d="M31.832 17.959a2.628 2.628 0 0 1-.13-.216C25.754 8.12 20.851 6.11 17.87 5.603c-1.119-.193-5.99 4.052-5.99 4.052 1.723-.465 7.445-1.736 14.661 9.006a20.627 20.627 0 0 0 5.291-.702Z" fill="#FFB3A6"/>
  <defs>
    <linearGradient id="a" x1="2.674" y1="39.958" x2="9.091" y2="32.42" gradientUnits="userSpaceOnUse">
      <stop stop-color="#EB7541"/>
      <stop offset=".14" stop-color="#E36236"/>
      <stop offset=".37" stop-color="#D64525"/>
      <stop offset=".58" stop-color="#CF331B"/>
      <stop offset=".73" stop-color="#CC2D17"/>
    </linearGradient>
    <linearGradient id="b" x1="21.415" y1="4.018" x2="35.551" y2="24.57" gradientUnits="userSpaceOnUse">
      <stop stop-color="#E06539"/>
      <stop offset=".32" stop-color="#DB5C2D"/>
      <stop offset=".89" stop-color="#CC420F"/>
      <stop offset="1" stop-color="#C93D08"/>
    </linearGradient>
    <linearGradient id="c" x1="27.267" y1="6.319" x2="48.019" y2="6.319" gradientUnits="userSpaceOnUse">
      <stop stop-color="#A03925"/>
      <stop offset=".2" stop-color="#A83F29"/>
      <stop offset=".5" stop-color="#BE4F36"/>
      <stop offset=".87" stop-color="#E16A49"/>
      <stop offset="1" stop-color="#EF7451"/>
    </linearGradient>
    <linearGradient id="d" x1="21.601" y1="4.605" x2="35.403" y2="24.674" gradientUnits="userSpaceOnUse">
      <stop stop-color="#FF9966"/>
      <stop offset=".3" stop-color="#F88D5C"/>
      <stop offset=".84" stop-color="#E56F40"/>
      <stop offset="1" stop-color="#DF6437"/>
    </linearGradient>
    <linearGradient id="e" x1="39.788" y1="9.462" x2="48.354" y2="9.462" gradientUnits="userSpaceOnUse">
      <stop stop-color="#FCE13C"/>
      <stop offset=".38" stop-color="#FDC822"/>
      <stop offset="1" stop-color="#FBC01E"/>
    </linearGradient>
    <linearGradient id="f" x1="12.188" y1="31.228" x2="23.6" y2="31.228" gradientUnits="userSpaceOnUse">
      <stop stop-color="#FCE13C"/>
      <stop offset=".54" stop-color="#FDC822"/>
      <stop offset=".67" stop-color="#FBC320"/>
      <stop offset=".83" stop-color="#F6B31C"/>
      <stop offset="1" stop-color="#ED9A15"/>
    </linearGradient>
    <linearGradient id="g" x1="28.865" y1="5.597" x2="28.865" y2="42.027" gradientUnits="userSpaceOnUse">
      <stop stop-color="#F2774F"/>
      <stop offset=".23" stop-color="#E36336"/>
      <stop offset=".49" stop-color="#D75222"/>
      <stop offset=".74" stop-color="#D04816"/>
      <stop offset="1" stop-color="#CE4512"/>
    </linearGradient>
    <linearGradient id="h" x1="12.937" y1="23.513" x2="44.599" y2="23.513" gradientUnits="userSpaceOnUse">
      <stop stop-color="#D25833"/>
      <stop offset="1" stop-color="#8E2011"/>
    </linearGradient>
  </defs>
</svg>
