<!-- Generated by IcoMoon.io -->
<svg version="1.1" xmlns="http://www.w3.org/2000/svg" width="1628" height="1024" viewBox="0 0 1628 1024">
<g id="icomoon-ignore">
</g>
<path fill="#000" d="M258.013 23.075c-89.502 10.683-54.974 32.918 3.521 33.786 131.078 1.726 150.81-16.746 590.906-10.683 449.962 6.063 631.773 29.161 666.308 84.020 17.615 27.717 26.072 160.25 19.381 306.93-8.813 199.807-13.393 300.573-19.030 355.725-8.457 80.844-53.91 144.367-196.263 149.274-144.821 4.913-1016.199 33.499-1081.033 30.030-70.823-4.038-133.546-12.415-161.378-57.459-20.791-33.78-21.849-42.444-24.668-271.124-6.34-471.218 1.059-520.307 84.566-570.259 80.338-48.214-38.406-47.927-94.783 41.869-36.294 57.459-48.272 125.889-41.581 488.258 2.474 133.684-5.281 214.528 13.042 272.568 23.604 73.918 89.496 87.489 110.281 110.874 62.372 69.586 535.943 10.395 1063.775 8.376 294.924-1.156 392.175 6.639 411.907-268.817 1.409-17.327 22.902-264.198 22.902-415.784 0-100.191-17.264-153.318-50.74-158.513-10.574-1.737-13.393-4.044-20.791-17.040-46.161-81.425-132.131-105.104-457.009-125.020-32.768-2.894-567.647-19.347-839.318 12.984zM914.806 94.392c-28.189 5.488-58.138 36.381-50.389 51.977 10.925 21.654 73.291 32.337 98.31 16.741 60.255-36.375 27.481-83.151-47.921-68.717zM701.63 97.568c-39.113 7.801-61.313 42.444-37.704 58.621 57.085 39.263 169.484-4.338 114.164-44.182-17.972-12.996-52.149-19.347-76.461-14.44zM1095.565 100.749c-46.161 20.21-51.798 46.77-13.387 65.254 38.406 18.478 95.485 3.176 110.287-29.167 11.626-25.404-60.255-52.259-96.9-36.087zM453.569 104.5c-30.3 10.683-50.389 34.068-41.581 47.932 24.317 38.688 128.616 28.586 128.616-12.42 0-25.985-53.208-47.633-87.034-35.512zM955.68 109.7c10.217 8.37-9.866 30.317-33.827 37.244-14.802 4.332-16.562 2.6-11.276-9.814 7.047-18.484 35.236-35.518 45.102-27.429zM232.995 113.164c-72.232 21.078-63.425 79.4 11.977 79.688 31.008 0 73.642-28.873 73.642-50.239 0-22.81-50.032-39.844-85.619-29.454zM748.492 114.889c12.334 10.113-2.468 28.016-28.189 34.367-22.902 5.77-28.54-4.044-13.036-23.103 13.387-16.453 29.598-20.785 41.225-11.258zM499.729 120.959c2.819 10.971-3.877 20.503-20.089 28.586-31.008 15.59-36.645-7.795-7.047-28.879 15.504-11.546 23.96-11.546 27.136 0.288zM1145.954 118.358c2.462 10.395-32.066 37.537-41.581 32.63-13.738-6.932 13.393-40.137 31.715-38.406 4.93 0.288 9.158 2.888 9.866 5.776zM1271.394 117.495c-34.534 12.702-49.33 36.381-32.066 50.815 42.634 34.937 132.487 24.541 132.487-15.302 0.351-31.468-57.436-51.683-100.421-35.512zM286.196 133.373c13.393 22.235-51.442 56.596-67.653 35.805-8.1-10.683 10.223-34.362 34.183-43.025 16.913-6.063 26.779-4.038 33.47 7.22zM1322.134 129.91c7.047 5.776 4.93 20.791-3.877 27.717-30.657 23.679-53.208 5.488-24.311-19.347 14.094-12.415 20.785-14.44 28.189-8.37z"></path>
</svg>
