<svg width="237" height="73" viewBox="0 0 237 73" fill="none" xmlns="http://www.w3.org/2000/svg">
<rect x="0.5" y="0.5" width="236" height="72" rx="3.5" fill="#F5F5F5"/>
<rect x="0.5" y="0.5" width="236" height="72" rx="3.5" stroke="#F5F5F5"/>
<path d="M119.617 39.6958C115.487 39.6958 112.122 42.9607 112.122 47.4575C112.122 51.9269 115.487 55.2192 119.617 55.2192C123.747 55.2192 127.113 51.9269 127.113 47.4575C127.111 42.9607 123.746 39.6958 119.617 39.6958ZM119.617 52.1642C117.354 52.1642 115.403 50.2242 115.403 47.4593C115.403 44.6653 117.355 42.7545 119.617 42.7545C121.879 42.7545 123.83 44.6653 123.83 47.4593C123.83 50.2224 121.879 52.1642 119.617 52.1642ZM103.265 39.6958C99.1362 39.6958 95.7708 42.9607 95.7708 47.4575C95.7708 51.9269 99.1362 55.2192 103.265 55.2192C107.396 55.2192 110.762 51.9269 110.762 47.4575C110.762 42.9607 107.396 39.6958 103.265 39.6958ZM103.265 52.1642C101.002 52.1642 99.0519 50.2242 99.0519 47.4593C99.0519 44.6653 101.004 42.7545 103.265 42.7545C105.528 42.7545 107.479 44.6653 107.479 47.4593C107.48 50.2224 105.528 52.1642 103.265 52.1642ZM83.8172 42.0792V45.3715H91.3977C91.1713 47.2239 90.5779 48.5762 89.672 49.5161C88.5695 50.6622 86.8438 51.9269 83.8172 51.9269C79.151 51.9269 75.5029 48.016 75.5029 43.1651C75.5029 38.3143 79.151 34.4033 83.8172 34.4033C86.3347 34.4033 88.1728 35.4326 89.5298 36.7557L91.7646 34.4325C89.8686 32.5509 87.3529 31.111 83.8172 31.111C77.4253 31.111 72.0515 36.5203 72.0515 43.1651C72.0515 49.8099 77.4253 55.2192 83.8172 55.2192C87.2669 55.2192 89.8704 54.0421 91.9051 51.8375C93.9977 49.6621 94.649 46.6034 94.649 44.1342C94.649 43.3713 94.5928 42.6651 94.4787 42.0774H83.8172V42.0792ZM163.358 44.6361C162.736 42.9023 160.84 39.6958 156.966 39.6958C153.12 39.6958 149.923 42.8421 149.923 47.4575C149.923 51.8083 153.091 55.2192 157.333 55.2192C160.754 55.2192 162.735 53.0438 163.556 51.7791L161.011 50.0143C160.163 51.3083 159.002 52.1605 157.333 52.1605C155.665 52.1605 154.477 51.3667 153.713 49.8081L163.697 45.5157L163.358 44.6361ZM153.176 47.2239C153.091 44.2236 155.411 42.6961 157.08 42.6961C158.381 42.6961 159.483 43.3732 159.852 44.3422L153.176 47.2239ZM145.06 54.7502H148.339V31.9359H145.06V54.7502ZM139.684 41.4314H139.572C138.836 40.5189 137.421 39.6958 135.641 39.6958C131.907 39.6958 128.486 43.1067 128.486 47.4885C128.486 51.8393 131.907 55.2211 135.641 55.2211C137.423 55.2211 138.836 54.398 139.572 53.4581H139.684V54.575C139.684 57.5443 138.157 59.132 135.697 59.132C133.689 59.132 132.444 57.6337 131.935 56.369L129.079 57.6045C129.899 59.6613 132.076 62.1907 135.697 62.1907C139.544 62.1907 142.797 59.8383 142.797 54.1042V40.1685H139.686V41.4314H139.684ZM135.924 52.1642C133.661 52.1642 131.767 50.1932 131.767 47.4885C131.767 44.7529 133.661 42.7545 135.924 42.7545C138.157 42.7545 139.911 44.7529 139.911 47.4885C139.911 50.1932 138.157 52.1642 135.924 52.1642ZM178.726 31.9359H170.877V54.7502H174.151V46.107H178.724C182.355 46.107 185.926 43.375 185.926 39.0224C185.926 34.6697 182.357 31.9359 178.726 31.9359ZM178.81 42.9315H174.151V35.1114H178.81C181.259 35.1114 182.65 37.2193 182.65 39.0224C182.65 40.789 181.259 42.9315 178.81 42.9315ZM199.055 39.6556C196.684 39.6556 194.228 40.7415 193.211 43.1487L196.118 44.4098C196.74 43.1487 197.899 42.7362 199.112 42.7362C200.806 42.7362 202.528 43.7929 202.556 45.6708V45.9063C201.963 45.554 200.692 45.0266 199.14 45.0266C196.006 45.0266 192.814 46.8169 192.814 50.1622C192.814 53.2154 195.385 55.1809 198.264 55.1809C200.465 55.1809 201.68 54.1534 202.442 52.9489H202.554V54.7101H205.718V45.9628C205.72 41.915 202.809 39.6556 199.055 39.6556ZM198.659 52.1587C197.588 52.1587 196.09 51.6003 196.09 50.2206C196.09 48.4594 197.955 47.7842 199.565 47.7842C201.002 47.7842 201.682 48.1072 202.556 48.547C202.301 50.6622 200.551 52.1587 198.659 52.1587ZM217.238 40.1539L213.483 50.0454H213.37L209.473 40.1539H205.944L211.788 53.9782L208.456 61.6688H211.873L220.88 40.1539H217.238ZM187.734 54.7502H191.008V31.9359H187.734V54.7502Z" fill="#080808"/>
<path d="M83.245 18.6934C83.245 20.2227 82.8096 21.44 81.9371 22.3488C80.947 23.4292 79.6549 23.9694 78.0679 23.9694C76.5476 23.9694 75.2537 23.4219 74.1916 22.3269C73.1278 21.2301 72.5958 19.8723 72.5958 18.2517C72.5958 16.6293 73.1278 15.2715 74.1916 14.1765C75.2537 13.0797 76.5476 12.5322 78.0679 12.5322C78.8228 12.5322 79.5443 12.6855 80.229 12.9902C80.9154 13.2968 81.4649 13.7038 81.8757 14.213L80.9505 15.1766C80.2536 14.3097 79.2933 13.8772 78.0661 13.8772C76.9566 13.8772 75.9981 14.2823 75.1888 15.0926C74.3795 15.9029 73.9757 16.956 73.9757 18.2499C73.9757 19.5438 74.3795 20.5968 75.1888 21.4071C75.9981 22.2174 76.9566 22.6226 78.0661 22.6226C79.2424 22.6226 80.2237 22.2156 81.0084 21.3998C81.5176 20.8688 81.8125 20.1296 81.8915 19.1825H78.0661V17.8666H83.1695C83.2222 18.1532 83.245 18.4287 83.245 18.6934Z" fill="#080808"/>
<path d="M91.3383 14.12H86.5421V17.5912H90.8678V18.907H86.5421V22.3781H91.3383V23.725H85.1886V12.775H91.3383V14.12Z" fill="#080808"/>
<path d="M97.0454 23.725H95.6919V14.12H92.7496V12.775H99.9877V14.12H97.0454V23.725Z" fill="#080808"/>
<path d="M105.224 23.725V12.775H106.578V23.725H105.224Z" fill="#080808"/>
<path d="M112.581 23.725H111.227V14.12H108.285V12.775H115.523V14.12H112.581V23.725Z" fill="#080808"/>
<path d="M129.225 22.3106C128.189 23.4165 126.902 23.9695 125.362 23.9695C123.823 23.9695 122.536 23.4165 121.502 22.3106C120.466 21.2046 119.95 19.8505 119.95 18.25C119.95 16.6494 120.466 15.2953 121.502 14.1893C122.536 13.0834 123.823 12.5286 125.362 12.5286C126.893 12.5286 128.178 13.0852 129.218 14.1966C130.257 15.3081 130.776 16.6586 130.776 18.25C130.776 19.8505 130.259 21.2046 129.225 22.3106ZM122.501 21.3926C123.28 22.2139 124.234 22.6227 125.362 22.6227C126.491 22.6227 127.446 22.212 128.224 21.3926C129.003 20.5714 129.395 19.5238 129.395 18.25C129.395 16.9761 129.003 15.9286 128.224 15.1073C127.446 14.2861 126.491 13.8773 125.362 13.8773C124.234 13.8773 123.28 14.2879 122.501 15.1073C121.723 15.9286 121.332 16.9761 121.332 18.25C121.332 19.5238 121.723 20.5714 122.501 21.3926Z" fill="#080808"/>
<path d="M132.676 23.725V12.775H134.323L139.442 21.2923H139.5L139.442 19.1826V12.775H140.795V23.725H139.382L134.026 14.7934H133.968L134.026 16.9031V23.725H132.676Z" fill="#080808"/>
<path d="M83.245 18.6934C83.245 20.2227 82.8096 21.44 81.9371 22.3488C80.947 23.4292 79.6549 23.9694 78.0679 23.9694C76.5476 23.9694 75.2537 23.4219 74.1916 22.3269C73.1278 21.2301 72.5958 19.8723 72.5958 18.2517C72.5958 16.6293 73.1278 15.2715 74.1916 14.1765C75.2537 13.0797 76.5476 12.5322 78.0679 12.5322C78.8228 12.5322 79.5443 12.6855 80.229 12.9902C80.9154 13.2968 81.4649 13.7038 81.8757 14.213L80.9505 15.1766C80.2536 14.3097 79.2933 13.8772 78.0661 13.8772C76.9566 13.8772 75.9981 14.2823 75.1888 15.0926C74.3795 15.9029 73.9757 16.956 73.9757 18.2499C73.9757 19.5438 74.3795 20.5968 75.1888 21.4071C75.9981 22.2174 76.9566 22.6226 78.0661 22.6226C79.2424 22.6226 80.2237 22.2156 81.0084 21.3998C81.5176 20.8688 81.8125 20.1296 81.8915 19.1825H78.0661V17.8666H83.1695C83.2222 18.1532 83.245 18.4287 83.245 18.6934Z" stroke="#F5F5F5" stroke-width="0.2" stroke-miterlimit="10"/>
<path d="M91.3383 14.12H86.5421V17.5912H90.8678V18.907H86.5421V22.3781H91.3383V23.725H85.1886V12.775H91.3383V14.12Z" stroke="#F5F5F5" stroke-width="0.2" stroke-miterlimit="10"/>
<path d="M97.0454 23.725H95.6919V14.12H92.7496V12.775H99.9877V14.12H97.0454V23.725Z" stroke="#F5F5F5" stroke-width="0.2" stroke-miterlimit="10"/>
<path d="M105.224 23.725V12.775H106.578V23.725H105.224Z" stroke="#F5F5F5" stroke-width="0.2" stroke-miterlimit="10"/>
<path d="M112.581 23.725H111.227V14.12H108.285V12.775H115.523V14.12H112.581V23.725Z" stroke="#F5F5F5" stroke-width="0.2" stroke-miterlimit="10"/>
<path d="M129.225 22.3106C128.189 23.4165 126.902 23.9695 125.362 23.9695C123.823 23.9695 122.536 23.4165 121.502 22.3106C120.466 21.2046 119.95 19.8505 119.95 18.25C119.95 16.6494 120.466 15.2953 121.502 14.1893C122.536 13.0834 123.823 12.5286 125.362 12.5286C126.893 12.5286 128.178 13.0852 129.218 14.1966C130.257 15.3081 130.776 16.6586 130.776 18.25C130.776 19.8505 130.259 21.2046 129.225 22.3106ZM122.501 21.3926C123.28 22.2139 124.234 22.6227 125.362 22.6227C126.491 22.6227 127.446 22.212 128.224 21.3926C129.003 20.5714 129.395 19.5238 129.395 18.25C129.395 16.9761 129.003 15.9286 128.224 15.1073C127.446 14.2861 126.491 13.8773 125.362 13.8773C124.234 13.8773 123.28 14.2879 122.501 15.1073C121.723 15.9286 121.332 16.9761 121.332 18.25C121.332 19.5238 121.723 20.5714 122.501 21.3926Z" stroke="#F5F5F5" stroke-width="0.2" stroke-miterlimit="10"/>
<path d="M132.676 23.725V12.775H134.323L139.442 21.2923H139.5L139.442 19.1826V12.775H140.795V23.725H139.382L134.026 14.7934H133.968L134.026 16.9031V23.725H132.676Z" stroke="#F5F5F5" stroke-width="0.2" stroke-miterlimit="10"/>
<g filter="url(#filter0_ii_165_1179)">
<path d="M18.2597 13.7568C17.7505 14.3189 17.4496 15.1912 17.4496 16.3209V56.6826C17.4496 57.8141 17.7505 58.6846 18.2597 59.2467L18.3891 59.3781L40.0655 36.7682V36.5018V36.2353L18.3891 13.6236L18.2597 13.7568Z" fill="url(#paint0_linear_165_1179)"/>
<path d="M47.2897 44.3073L40.0654 36.7682V36.5018V36.2353L47.2915 28.6981L47.4542 28.7948L56.0152 33.8683C58.4595 35.3173 58.4595 37.688 56.0152 39.1389L47.4542 44.2124L47.2897 44.3073Z" fill="url(#paint1_linear_165_1179)"/>
<g filter="url(#filter1_i_165_1179)">
<path d="M47.4542 44.2106L40.0637 36.5018L18.2596 59.2467C19.0645 60.1373 20.396 60.2468 21.8954 59.3599L47.4542 44.2106Z" fill="url(#paint2_linear_165_1179)"/>
</g>
<path d="M47.4542 28.793L21.8954 13.6455C20.396 12.7567 19.0645 12.868 18.2596 13.7586L40.0655 36.5036L47.4542 28.793Z" fill="url(#paint3_linear_165_1179)"/>
</g>
<defs>
<filter id="filter0_ii_165_1179" x="17.4496" y="13.0321" width="40.3988" height="46.9404" filterUnits="userSpaceOnUse" color-interpolation-filters="sRGB">
<feFlood flood-opacity="0" result="BackgroundImageFix"/>
<feBlend mode="normal" in="SourceGraphic" in2="BackgroundImageFix" result="shape"/>
<feColorMatrix in="SourceAlpha" type="matrix" values="0 0 0 0 0 0 0 0 0 0 0 0 0 0 0 0 0 0 127 0" result="hardAlpha"/>
<feOffset dy="-0.15"/>
<feComposite in2="hardAlpha" operator="arithmetic" k2="-1" k3="1"/>
<feColorMatrix type="matrix" values="0 0 0 0 0 0 0 0 0 0 0 0 0 0 0 0 0 0 0.12 0"/>
<feBlend mode="normal" in2="shape" result="effect1_innerShadow_165_1179"/>
<feColorMatrix in="SourceAlpha" type="matrix" values="0 0 0 0 0 0 0 0 0 0 0 0 0 0 0 0 0 0 127 0" result="hardAlpha"/>
<feOffset dy="0.15"/>
<feComposite in2="hardAlpha" operator="arithmetic" k2="-1" k3="1"/>
<feColorMatrix type="matrix" values="0 0 0 0 1 0 0 0 0 1 0 0 0 0 1 0 0 0 0.25 0"/>
<feBlend mode="normal" in2="effect1_innerShadow_165_1179" result="effect2_innerShadow_165_1179"/>
</filter>
<filter id="filter1_i_165_1179" x="18.2596" y="36.5018" width="29.1946" height="23.4707" filterUnits="userSpaceOnUse" color-interpolation-filters="sRGB">
<feFlood flood-opacity="0" result="BackgroundImageFix"/>
<feBlend mode="normal" in="SourceGraphic" in2="BackgroundImageFix" result="shape"/>
<feColorMatrix in="SourceAlpha" type="matrix" values="0 0 0 0 0 0 0 0 0 0 0 0 0 0 0 0 0 0 127 0" result="hardAlpha"/>
<feOffset dy="-0.15"/>
<feComposite in2="hardAlpha" operator="arithmetic" k2="-1" k3="1"/>
<feColorMatrix type="matrix" values="0 0 0 0 0 0 0 0 0 0 0 0 0 0 0 0 0 0 0.08 0"/>
<feBlend mode="normal" in2="shape" result="effect1_innerShadow_165_1179"/>
</filter>
<linearGradient id="paint0_linear_165_1179" x1="38.144" y1="15.8939" x2="7.54409" y2="45.2303" gradientUnits="userSpaceOnUse">
<stop stop-color="#00A0FF"/>
<stop offset="0.0066" stop-color="#00A1FF"/>
<stop offset="0.2601" stop-color="#00BEFF"/>
<stop offset="0.5122" stop-color="#00D2FF"/>
<stop offset="0.7604" stop-color="#00DFFF"/>
<stop offset="1" stop-color="#00E3FF"/>
</linearGradient>
<linearGradient id="paint1_linear_165_1179" x1="59.1969" y1="36.5018" x2="16.8627" y2="36.5018" gradientUnits="userSpaceOnUse">
<stop stop-color="#FFE000"/>
<stop offset="0.4087" stop-color="#FFBD00"/>
<stop offset="0.7754" stop-color="#FFA500"/>
<stop offset="1" stop-color="#FF9C00"/>
</linearGradient>
<linearGradient id="paint2_linear_165_1179" x1="43.4407" y1="40.6881" x2="1.94335" y2="80.4721" gradientUnits="userSpaceOnUse">
<stop stop-color="#FF3A44"/>
<stop offset="1" stop-color="#C31162"/>
</linearGradient>
<linearGradient id="paint3_linear_165_1179" x1="12.7682" y1="0.322607" x2="31.2979" y2="18.0872" gradientUnits="userSpaceOnUse">
<stop stop-color="#32A071"/>
<stop offset="0.0685" stop-color="#2DA771"/>
<stop offset="0.4762" stop-color="#15CF74"/>
<stop offset="0.8009" stop-color="#06E775"/>
<stop offset="1" stop-color="#00F076"/>
</linearGradient>
</defs>
</svg>
