<svg width="48" height="48" viewBox="0 0 48 48" fill="none" xmlns="http://www.w3.org/2000/svg">
<path d="M47.7807 18.0019C47.5027 17.1216 46.9821 16.3474 46.2846 15.7771C45.5872 15.2067 44.7442 14.8659 43.862 14.7976L32.9603 13.8856C32.8173 13.8732 32.6803 13.8199 32.5643 13.7315C32.4482 13.6432 32.3575 13.5231 32.302 13.3844L28.1247 2.8675C27.7843 2.0163 27.2112 1.28978 26.4776 0.779492C25.744 0.269204 24.8827 -0.00201098 24.0023 1.81351e-05C23.1208 -0.00255307 22.2582 0.268341 21.5233 0.778595C20.7883 1.28885 20.2138 2.01565 19.872 2.8675L15.6712 13.3844C15.6157 13.5231 15.525 13.6432 15.4089 13.7315C15.2929 13.8199 15.1559 13.8732 15.0129 13.8856L4.11117 14.7893C3.23407 14.8568 2.39589 15.1961 1.70314 15.7641C1.01038 16.3321 0.494314 17.1032 0.22049 17.9794C-0.0533333 18.8555 -0.0725505 19.7972 0.16528 20.6849C0.403111 21.5725 0.887254 22.366 1.5562 22.9646L9.86376 30.3592C9.97411 30.4583 10.056 30.5877 10.1003 30.7328C10.1446 30.8778 10.1495 31.033 10.1146 31.1809L7.54391 42.2564C7.33596 43.1517 7.38829 44.0918 7.69416 44.9557C8.00003 45.8196 8.54547 46.5678 9.26029 47.104C9.97592 47.6468 10.8286 47.9559 11.7112 47.9925C12.5938 48.029 13.4671 47.7914 14.2213 47.3094L23.5477 41.3773C23.6669 41.3051 23.802 41.2672 23.9396 41.2672C24.0771 41.2672 24.2123 41.3051 24.3314 41.3773L33.6657 47.3177C34.4194 47.7968 35.291 48.0328 36.1718 47.9963C37.0525 47.9598 37.9036 47.6523 38.6189 47.1122C39.3337 46.576 39.8791 45.8278 40.185 44.9639C40.4909 44.1 40.5432 43.16 40.3352 42.2646L37.8743 31.1891C37.8394 31.0412 37.8443 30.8861 37.8886 30.741C37.9329 30.5959 38.0148 30.4666 38.1251 30.3674L46.4327 22.9728C47.1046 22.3796 47.5919 21.5893 47.8321 20.7036C48.0723 19.8178 48.0544 18.8769 47.7807 18.0019Z" fill="url(#paint0_angular_110_176)"/>
<path d="M34.6921 45.4608L25.3657 39.4793C24.9532 39.2133 24.4785 39.0725 23.9942 39.0725C23.5099 39.0725 23.0351 39.2133 22.6227 39.4793L13.2884 45.4526C12.8451 45.7309 12.3335 45.8664 11.8173 45.8421C11.3011 45.8179 10.8032 45.6349 10.3854 45.3161C9.96769 44.9973 9.64865 44.5567 9.46805 44.0491C9.28745 43.5416 9.25326 42.9896 9.36975 42.4618L11.909 31.3123C12.0232 30.8195 12.0054 30.3033 11.8574 29.8205C11.7094 29.3377 11.4371 28.9071 11.0704 28.5763L2.7629 21.1241C2.37071 20.7686 2.08737 20.2996 1.9484 19.7759C1.80943 19.2522 1.82102 18.6972 1.98171 18.1804C2.14241 17.6635 2.44506 17.208 2.85172 16.8708C3.25837 16.5335 3.75094 16.3297 4.26766 16.2847L15.1615 15.3727C15.6441 15.3324 16.1067 15.153 16.4981 14.8543C16.8896 14.5556 17.1946 14.1493 17.3795 13.6802L21.5725 3.09759C21.7712 2.59464 22.1077 2.16476 22.5394 1.86232C22.9712 1.55987 23.4788 1.39845 23.9981 1.39845C24.5174 1.39845 25.025 1.55987 25.4567 1.86232C25.8885 2.16476 26.225 2.59464 26.4237 3.09759L30.6245 13.6884C30.8155 14.1488 31.1233 14.5454 31.5143 14.8352C31.9054 15.1249 32.3648 15.2966 32.8425 15.3316L43.7364 16.2519C44.2544 16.2945 44.7487 16.4973 45.1567 16.8347C45.5647 17.172 45.868 17.6287 46.0283 18.1468C46.1886 18.665 46.1986 19.2214 46.0571 19.7456C45.9156 20.2697 45.6289 20.738 45.2333 21.0913L36.9336 28.5845C36.5649 28.9141 36.29 29.3438 36.1393 29.8266C35.9886 30.3093 35.9678 30.8262 36.0793 31.3206L38.6186 42.4701C38.7365 42.999 38.7029 43.5526 38.5221 44.0616C38.3413 44.5706 38.0213 45.0124 37.6022 45.3316C37.183 45.6509 36.6834 45.8334 36.1657 45.8564C35.6481 45.8794 35.1355 45.7417 34.6921 45.4608Z" fill="url(#paint1_angular_110_176)"/>
<path d="M35.0765 35.0915C30.8914 29.8577 23.9397 23.7037 23.9397 23.7037C23.9397 23.7037 16.165 29.9234 12.9204 34.7464C10.9382 37.7622 9.93017 41.3645 10.0441 45.025C10.4568 45.4744 11.004 45.762 11.5944 45.8397C12.1848 45.9175 12.7828 45.7807 13.2887 45.4522L22.623 39.479C23.0355 39.213 23.5102 39.0721 23.9945 39.0721C24.4788 39.0721 24.9536 39.213 25.366 39.479L34.6925 45.4604C35.2788 45.8379 35.9834 45.9582 36.6537 45.7952C37.324 45.6322 37.9061 45.199 38.2741 44.5895C38.2444 41.139 37.1194 37.7971 35.0765 35.0915Z" fill="url(#paint2_angular_110_176)"/>
<path d="M23.9393 1.40484C23.4323 1.41424 22.9391 1.5797 22.5211 1.88063C22.103 2.18157 21.7786 2.60469 21.5881 3.09739L17.3873 13.68C17.2024 14.1491 16.8974 14.5554 16.506 14.8541C16.1146 15.1528 15.652 15.3322 15.1694 15.3725L4.27549 16.2846C3.62843 16.3334 3.02191 16.6331 2.57418 17.1252C2.12645 17.6174 1.86962 18.2667 1.85376 18.9466C3.82876 19.53 6.01537 20.0148 7.84147 20.5077C13.2806 21.9784 23.955 23.7039 23.955 23.7039L23.9393 1.40484Z" fill="url(#paint3_angular_110_176)"/>
<path d="M38.6347 42.4615C38.7411 42.9136 38.7349 43.3867 38.6169 43.8355C38.4989 44.2844 38.273 44.6939 37.9607 45.025C37.0337 41.7457 35.6442 38.6301 33.8383 35.7817C30.4212 30.6793 24.0024 23.638 24.0024 23.638C24.0024 23.638 29.3788 20.5569 34.1909 19.5873C39.0031 18.6178 46.0096 18.0509 46.0096 18.0509C46.2008 18.5848 46.228 19.168 46.0875 19.719C45.947 20.27 45.6457 20.7611 45.2259 21.1238L36.9262 28.576C36.5574 28.9053 36.2831 29.3354 36.1336 29.8184C35.9842 30.3015 35.9655 30.8185 36.0797 31.312L38.6347 42.4615Z" fill="url(#paint4_angular_110_176)"/>
<path d="M33.8379 35.7816C30.6089 30.9751 24.676 24.4349 24.0569 23.7037C32.482 25.0758 35.9383 29.2333 35.9383 29.2333L36.1969 29.6934C35.9991 30.2161 35.9608 30.7902 36.0872 31.3366L38.6343 42.4861C38.7412 42.9388 38.7346 43.4127 38.6151 43.8619C38.4957 44.3111 38.2674 44.7203 37.9524 45.0496C37.0341 41.7606 35.6469 38.636 33.8379 35.7816Z" fill="url(#paint5_angular_110_176)"/>
<path d="M9.36193 42.4615C9.25501 42.9142 9.26161 43.3881 9.38109 43.8373C9.50057 44.2865 9.72886 44.6957 10.0438 45.025C10.9643 41.7446 12.3515 38.6284 14.1584 35.7817C17.5754 30.6793 24.002 23.638 24.002 23.638C24.002 23.638 18.6335 20.5569 13.8135 19.5873C8.99357 18.6178 2.05755 18.0509 2.05755 18.0509C1.8587 18.5796 1.82282 19.1603 1.95496 19.7114C2.08709 20.2626 2.3806 20.7565 2.79426 21.1238L11.1018 28.576C11.4684 28.9068 11.7408 29.3373 11.8888 29.8201C12.0367 30.3029 12.0546 30.8192 11.9404 31.312L9.36193 42.4615Z" fill="url(#paint6_angular_110_176)"/>
<path d="M14.1582 35.7816C17.3793 30.9751 23.3121 24.4349 23.9391 23.7037C15.5062 25.0758 12.0578 29.2333 12.0578 29.2333L11.7991 29.6934C11.9948 30.2168 12.0304 30.791 11.901 31.3366L9.36172 42.4861C9.25481 42.9388 9.26141 43.4127 9.38089 43.8619C9.50036 44.3111 9.72866 44.7203 10.0436 45.0496C10.9619 41.7606 12.3491 38.636 14.1582 35.7816Z" fill="url(#paint7_angular_110_176)"/>
<path d="M10.4746 43.6282C12.1501 39.5917 14.3901 35.8394 17.1207 32.4951C21.5017 27.171 23.994 24.55 23.994 24.55C27.6146 28.1466 30.821 32.1754 33.5477 36.554C37.2704 42.8969 37.8112 44.5566 37.8112 44.5566C36.5745 40.4968 34.8773 36.6073 32.7561 32.9717C30.4723 29.1252 27.7337 25.5971 24.6053 22.4713L22.8105 23.0546C22.8105 23.0546 11.9794 35.1572 10.4746 43.6282Z" fill="url(#paint8_angular_110_176)"/>
<path d="M24.6288 22.4792L22.8341 23.0626C22.8341 23.0626 11.9794 35.157 10.4746 43.628C12.1501 39.5914 14.3901 35.8392 17.1207 32.4949C21.5017 27.1707 23.994 24.5497 23.994 24.5497L24.6288 22.4792Z" fill="url(#paint9_angular_110_176)"/>
<path d="M2.6145 18.0998C2.6145 18.0998 7.215 18.2559 13.3046 18.9215C16.6313 19.1877 19.883 20.0928 22.8975 21.5918C22.8975 21.5918 23.2972 13.2276 23.6185 8.3635C23.9398 3.49945 23.9398 2.25056 23.9398 2.25056C23.9398 2.25056 24.4806 14.838 24.606 18.0752C24.7314 21.3124 25.0841 21.5918 25.0841 21.5918L23.9398 23.728C23.9398 23.728 18.9161 19.9239 2.6145 18.0998Z" fill="url(#paint10_angular_110_176)"/>
<path d="M46.0251 18.2073C46.0285 18.2401 46.0285 18.2732 46.0251 18.3059C46.0285 18.2732 46.0285 18.2401 46.0251 18.2073Z" fill="url(#paint11_angular_110_176)"/>
<path d="M45.9466 18.0514C45.7755 17.5637 45.4737 17.1384 45.0774 16.8264C44.6811 16.5145 44.2073 16.3292 43.7129 16.2931L32.8191 15.3728C32.2828 15.3297 31.773 15.1113 31.3613 14.7484C31.3613 14.7484 27.5289 16.3917 23.9629 23.622C23.9629 23.622 29.3393 20.5409 34.1514 19.5714C38.9635 18.6018 45.6644 18.076 45.9466 18.0514Z" fill="url(#paint12_angular_110_176)"/>
<path d="M46.1345 18.7409C46.1382 18.7571 46.1382 18.774 46.1345 18.7902C46.1382 18.774 46.1382 18.7571 46.1345 18.7409Z" fill="url(#paint13_angular_110_176)"/>
<path d="M27.521 24.4924L36.0245 30.4903C36.0458 30.1247 36.1373 29.7675 36.2935 29.4399C36.4497 29.1124 36.6675 28.8213 36.9336 28.5841L37.3333 28.2226C36.2041 27.3759 34.9769 26.6829 33.6811 26.1603C31.6997 25.3451 29.6312 24.7851 27.521 24.4924Z" fill="url(#paint14_angular_110_176)"/>
<path d="M25.1853 39.3889C24.9482 38.9362 24.7614 38.4566 24.6288 37.9592C24.4251 37.0883 24.1429 26.9412 24.1429 26.9412C24.1429 26.9412 23.9078 36.2174 23.7354 37.7292C23.7189 38.0342 23.6405 38.332 23.5053 38.6026C23.3701 38.8733 23.1814 39.1105 22.9517 39.2985C23.3067 39.1375 23.6917 39.062 24.0783 39.0776C24.4648 39.0933 24.8431 39.1996 25.1853 39.3889Z" fill="url(#paint15_angular_110_176)"/>
<defs>
<radialGradient id="paint0_angular_110_176" cx="0" cy="0" r="1" gradientUnits="userSpaceOnUse" gradientTransform="translate(24 24) rotate(90) scale(24)">
<stop offset="0.26" stop-color="#F58220"/>
<stop offset="0.595" stop-color="#E6DFD9"/>
</radialGradient>
<radialGradient id="paint1_angular_110_176" cx="0" cy="0" r="1" gradientUnits="userSpaceOnUse" gradientTransform="translate(24.0042 23.6287) rotate(90) scale(22.2302 22.1522)">
<stop offset="0.26" stop-color="#F58220"/>
<stop offset="0.595" stop-color="#E6DFD9"/>
</radialGradient>
<radialGradient id="paint2_angular_110_176" cx="0" cy="0" r="1" gradientUnits="userSpaceOnUse" gradientTransform="translate(24.1548 34.7849) rotate(90) scale(11.0812 14.1194)">
<stop offset="0.26" stop-color="#F58220"/>
<stop offset="0.595" stop-color="#E6DFD9"/>
</radialGradient>
<radialGradient id="paint3_angular_110_176" cx="0" cy="0" r="1" gradientUnits="userSpaceOnUse" gradientTransform="translate(12.9044 12.5544) rotate(90) scale(11.1495 11.0506)">
<stop offset="0.26" stop-color="#F58220"/>
<stop offset="0.595" stop-color="#E6DFD9"/>
</radialGradient>
<radialGradient id="paint4_angular_110_176" cx="0" cy="0" r="1" gradientUnits="userSpaceOnUse" gradientTransform="translate(35.0892 31.5379) rotate(90) scale(13.4871 11.0868)">
<stop offset="0.26" stop-color="#F58220"/>
<stop offset="0.595" stop-color="#E6DFD9"/>
</radialGradient>
<radialGradient id="paint5_angular_110_176" cx="0" cy="0" r="1" gradientUnits="userSpaceOnUse" gradientTransform="translate(31.3834 34.3767) rotate(90) scale(10.673 7.3265)">
<stop offset="0.26" stop-color="#F58220"/>
<stop offset="0.595" stop-color="#E6DFD9"/>
</radialGradient>
<radialGradient id="paint6_angular_110_176" cx="0" cy="0" r="1" gradientUnits="userSpaceOnUse" gradientTransform="translate(12.9394 31.5379) rotate(90) scale(13.4871 11.0627)">
<stop offset="0.26" stop-color="#F58220"/>
<stop offset="0.595" stop-color="#E6DFD9"/>
</radialGradient>
<radialGradient id="paint7_angular_110_176" cx="0" cy="0" r="1" gradientUnits="userSpaceOnUse" gradientTransform="translate(16.6126 34.3767) rotate(90) scale(10.673 7.3265)">
<stop offset="0.26" stop-color="#F58220"/>
<stop offset="0.595" stop-color="#E6DFD9"/>
</radialGradient>
<radialGradient id="paint8_angular_110_176" cx="0" cy="0" r="1" gradientUnits="userSpaceOnUse" gradientTransform="translate(24.1429 33.5139) rotate(90) scale(11.0427 13.6683)">
<stop offset="0.26" stop-color="#F58220"/>
<stop offset="0.595" stop-color="#E6DFD9"/>
</radialGradient>
<radialGradient id="paint9_angular_110_176" cx="0" cy="0" r="1" gradientUnits="userSpaceOnUse" gradientTransform="translate(17.5517 33.0536) rotate(90) scale(10.5744 7.07709)">
<stop offset="0.26" stop-color="#F58220"/>
<stop offset="0.595" stop-color="#E6DFD9"/>
</radialGradient>
<radialGradient id="paint10_angular_110_176" cx="0" cy="0" r="1" gradientUnits="userSpaceOnUse" gradientTransform="translate(13.8493 12.9893) rotate(90) scale(10.7387 11.2348)">
<stop offset="0.26" stop-color="#F58220"/>
<stop offset="0.595" stop-color="#E6DFD9"/>
</radialGradient>
<radialGradient id="paint11_angular_110_176" cx="0" cy="0" r="1" gradientUnits="userSpaceOnUse" gradientTransform="translate(46.0264 18.2566) rotate(90) scale(0.0492975 0.00126212)">
<stop offset="0.26" stop-color="#F58220"/>
<stop offset="0.595" stop-color="#E6DFD9"/>
</radialGradient>
<radialGradient id="paint12_angular_110_176" cx="0" cy="0" r="1" gradientUnits="userSpaceOnUse" gradientTransform="translate(34.9547 19.1852) rotate(90) scale(4.43679 10.9918)">
<stop offset="0.26" stop-color="#F58220"/>
<stop offset="0.595" stop-color="#E6DFD9"/>
</radialGradient>
<radialGradient id="paint13_angular_110_176" cx="0" cy="0" r="1" gradientUnits="userSpaceOnUse" gradientTransform="translate(46.1359 18.7656) rotate(90) scale(0.0246659 0.00137602)">
<stop offset="0.26" stop-color="#F58220"/>
<stop offset="0.595" stop-color="#E6DFD9"/>
</radialGradient>
<radialGradient id="paint14_angular_110_176" cx="0" cy="0" r="1" gradientUnits="userSpaceOnUse" gradientTransform="translate(32.4272 27.4913) rotate(90) scale(2.99895 4.90616)">
<stop offset="0.26" stop-color="#F58220"/>
<stop offset="0.595" stop-color="#E6DFD9"/>
</radialGradient>
<radialGradient id="paint15_angular_110_176" cx="0" cy="0" r="1" gradientUnits="userSpaceOnUse" gradientTransform="translate(24.0685 33.165) rotate(90) scale(6.22384 1.11681)">
<stop offset="0.26" stop-color="#F58220"/>
<stop offset="0.595" stop-color="#E6DFD9"/>
</radialGradient>
</defs>
</svg>
