<svg aria-hidden="true" style="position: absolute; width: 0; height: 0; overflow: hidden;" version="1.1" xmlns="http://www.w3.org/2000/svg" xmlns:xlink="http://www.w3.org/1999/xlink">
<defs>
<symbol id="icon-google_play" viewBox="0 0 149 32">
<path fill="#fff" style="fill: var(--color1, #fff)" d="M47.617 8.696c-4.129 0-7.494 3.265-7.494 7.762 0 4.469 3.365 7.762 7.494 7.762 4.131 0 7.496-3.292 7.496-7.762-0.002-4.497-3.367-7.762-7.496-7.762zM47.617 21.164c-2.263 0-4.213-1.94-4.213-4.705 0-2.794 1.952-4.705 4.213-4.705 2.263 0 4.213 1.911 4.213 4.705 0 2.763-1.95 4.705-4.213 4.705zM31.265 8.696c-4.129 0-7.495 3.265-7.495 7.762 0 4.469 3.365 7.762 7.495 7.762 4.131 0 7.496-3.292 7.496-7.762 0-4.497-3.365-7.762-7.496-7.762zM31.265 21.164c-2.263 0-4.213-1.94-4.213-4.705 0-2.794 1.952-4.705 4.213-4.705 2.263 0 4.213 1.911 4.213 4.705 0.002 2.763-1.95 4.705-4.213 4.705zM11.817 11.079v3.292h7.581c-0.226 1.852-0.82 3.205-1.726 4.145-1.102 1.146-2.828 2.411-5.855 2.411-4.666 0-8.314-3.911-8.314-8.762s3.648-8.762 8.314-8.762c2.518 0 4.356 1.029 5.713 2.352l2.235-2.323c-1.896-1.882-4.412-3.321-7.947-3.321-6.392 0-11.766 5.409-11.766 12.054s5.374 12.054 11.766 12.054c3.45 0 6.053-1.177 8.088-3.382 2.093-2.175 2.744-5.234 2.744-7.703 0-0.763-0.056-1.469-0.17-2.057l-10.662 0.002zM91.358 13.636c-0.621-1.734-2.517-4.94-6.392-4.94-3.846 0-7.043 3.146-7.043 7.762 0 4.351 3.169 7.762 7.41 7.762 3.422 0 5.402-2.175 6.223-3.44l-2.546-1.765c-0.848 1.294-2.008 2.146-3.678 2.146-1.668 0-2.856-0.794-3.62-2.352l9.984-4.292-0.339-0.88zM81.176 16.224c-0.084-3 2.235-4.528 3.904-4.528 1.301 0 2.403 0.677 2.772 1.646l-6.676 2.882zM73.060 23.75h3.279v-22.814h-3.279v22.814zM67.684 10.431h-0.112c-0.736-0.913-2.15-1.736-3.931-1.736-3.734 0-7.156 3.411-7.156 7.793 0 4.351 3.422 7.733 7.156 7.733 1.782 0 3.195-0.823 3.931-1.763h0.112v1.117c0 2.969-1.527 4.557-3.987 4.557-2.008 0-3.253-1.498-3.762-2.763l-2.856 1.236c0.82 2.057 2.997 4.586 6.618 4.586 3.846 0 7.099-2.352 7.099-8.087v-13.936h-3.111v1.263h-0.002zM63.924 21.164c-2.263 0-4.157-1.971-4.157-4.676 0-2.736 1.894-4.734 4.157-4.734 2.233 0 3.987 1.998 3.987 4.734 0 2.705-1.754 4.676-3.987 4.676zM106.726 0.936h-7.849v22.814h3.274v-8.643h4.573c3.631 0 7.202-2.732 7.202-7.085s-3.569-7.086-7.2-7.086zM106.81 11.931h-4.659v-7.82h4.659c2.449 0 3.84 2.108 3.84 3.911 0 1.767-1.391 3.909-3.84 3.909zM127.055 8.656c-2.371 0-4.827 1.086-5.844 3.493l2.907 1.261c0.622-1.261 1.781-1.674 2.994-1.674 1.694 0 3.416 1.057 3.444 2.935v0.236c-0.593-0.352-1.864-0.88-3.416-0.88-3.134 0-6.326 1.79-6.326 5.136 0 3.053 2.571 5.019 5.45 5.019 2.201 0 3.416-1.027 4.178-2.232h0.112v1.761h3.164v-8.747c0.002-4.048-2.909-6.307-6.663-6.307zM126.659 21.159c-1.071 0-2.569-0.558-2.569-1.938 0-1.761 1.865-2.436 3.475-2.436 1.437 0 2.117 0.323 2.991 0.763-0.255 2.115-2.005 3.612-3.897 3.612zM145.238 9.154l-3.755 9.892h-0.113l-3.897-9.892h-3.529l5.844 13.824-3.332 7.691h3.417l9.007-21.515h-3.642zM115.734 23.75h3.274v-22.814h-3.274v22.814z"></path>
</symbol>
<symbol id="icon-close" viewBox="0 0 32 32">
<path d="m17.253 16 7.369-7.369a.885.885 0 0 0-.047-1.206.893.893 0 0 0-1.207-.047l-7.369 7.369L8.63 7.369a.892.892 0 0 0-1.262 1.262L14.746 16l-7.378 7.369a.891.891 0 0 0-.05 1.304.906.906 0 0 0 .663.26.88.88 0 0 0 .641-.31L16 17.254l7.369 7.369a.886.886 0 0 0 1.207-.047.893.893 0 0 0 .047-1.207L17.254 16z"/>
</symbol>
<symbol id="icon-burger_menu">
<svg width="34" height="18" viewBox="0 0 34 18" fill="none" xmlns="http://www.w3.org/2000/svg">
<line y1="1" x2="34" y2="1" stroke-width="2"/>
<line y1="9" x2="34" y2="9" stroke-width="2"/>
<line y1="17" x2="34" y2="17" stroke-width="2"/>
</svg>
</symbol>
<symbol id="icon-warning" viewBox="0 0 28 48">
<path fill="#f2a600" style="fill: var(--color2, #f2a600)" d="M14.29 2.105l-13 26c-0.485 1.005-0.065 2.213 0.938 2.698 0.27 0.13 0.563 0.2 0.862 0.203h26c1.115-0.010 2.013-0.922 2.003-2.038-0.003-0.299-0.072-0.593-0.203-0.863l-13-26c-0.168-0.333-0.426-0.613-0.743-0.808s-0.684-0.299-1.057-0.299c-0.373 0-0.739 0.103-1.057 0.299s-0.575 0.475-0.743 0.808z"></path>
<path fill="#ffcc32" style="fill: var(--color3, #ffcc32)" d="M13.39 3.93l-12.2 24.35c-0.458 0.943-0.063 2.078 0.88 2.535 0.248 0.12 0.52 0.185 0.795 0.19h24.375c0.248-0.002 0.493-0.053 0.721-0.15s0.435-0.238 0.609-0.415c0.174-0.177 0.311-0.386 0.404-0.616s0.139-0.476 0.137-0.724c-0.003-0.284-0.070-0.565-0.195-0.82l-12.175-24.35c-0.214-0.444-0.596-0.785-1.062-0.947s-0.976-0.134-1.421 0.080c-0.378 0.183-0.684 0.489-0.867 0.868z"></path>
<path fill="#424242" style="fill: var(--color4, #424242)" opacity="0.2" d="M16.090 8.505c1.15 0 2.075 0.925 2 2l-0.85 12c-0.095 0.635-0.685 1.075-1.32 0.98-0.247-0.036-0.476-0.151-0.652-0.328s-0.291-0.405-0.328-0.652l-0.85-12c-0.075-1.075 0.85-2 2-2zM16.090 24.505c0.828 0 1.5 0.672 1.5 1.5s-0.672 1.5-1.5 1.5c-0.827 0-1.5-0.672-1.5-1.5s0.672-1.5 1.5-1.5z"></path>
<path fill="#000" style="fill: var(--color5, #000)" d="M16.090 8.505c1.15 0 2.075 0.925 2 2l-0.85 12c-0.095 0.635-0.685 1.075-1.32 0.98-0.247-0.036-0.476-0.151-0.652-0.328s-0.291-0.405-0.328-0.652l-0.85-12c-0.075-1.075 0.85-2 2-2z"></path>
<path fill="#000" style="fill: var(--color5, #000)" d="M16.090 27.505c0.828 0 1.5-0.672 1.5-1.5s-0.672-1.5-1.5-1.5c-0.828 0-1.5 0.672-1.5 1.5s0.672 1.5 1.5 1.5z"></path>
<path fill="#fff170" style="fill: var(--color6, #fff170)" d="M13.39 5.755c-0.3 0.375-5.35 10.25-5.35 10.25s-0.45 0.75 0.175 1.175c0.575 0.4 1.1-0.075 1.325-0.45s4.8-9.225 4.975-9.65c0.15-0.468 0.045-0.978-0.275-1.35-0.325-0.3-0.65-0.25-0.85 0.025z"></path>
<path fill="#fff170" style="fill: var(--color6, #fff170)" d="M7.84 19.657c0.456 0 0.825-0.369 0.825-0.825s-0.369-0.825-0.825-0.825c-0.456 0-0.825 0.369-0.825 0.825s0.369 0.825 0.825 0.825z"></path>
</symbol>
<symbol id="icon-arrow_next" viewBox="0 0 32 32">
<path d="M29.541 14.076c-1.357-0.683-3.145-2.114-3.488-2.798-0.348-0.697-0.844-0.855-0.906-0.287-0.11 1.016-0.088 1.775-0.090 1.844-0.416 0.066-1.108 1.102-3.185-0.788-1.457-1.329-2.144-1.186-4.015 0.843-1.508 1.632-2.009 2.245-4.848 0.297-2.462-1.689-3.587-1.992-5.425-1.472-2.842 0.811-4.479 3.301-2.034 3.093 0.495-0.038 2.237-0.162 2.237-0.162l-0.307 0.334c-1.288 1.412-2.536 3.564-2.794 4.637-0.175 0.728 0.213 1.259 1.374 0.013 1.258-1.351 2.908-2.29 4.121-2.355 0.581-0.029 0.531-0.040 3.974 0.967 2.128 0.626 3 0.31 5.086-1.83 0.716-0.732 1.068-1.059 1.189-1.107 0.607-0.217 0.881-0.167 1.753 0.29 0.677 0.358 1.509 0.594 2.059 0.589l0.464-0.005 0.051 0.794c0.119 1.833 0.49 2.156 1.371 1.197 0.701-0.763 1.922-1.612 3.775-2.62 0.959-0.535 0.88-0.854-0.361-1.475zM26.008 16.733c-0.471 0.438-0.49 0.43-0.482-0.126 0.022-1.053-0.205-1.305-1.161-1.321-0.883-0.010-1.484-0.158-2.368-0.583-1.684-0.808-1.987-0.734-3.554 0.87-2.275 2.326-2.795 2.402-6.952 1.022-2.951-0.977-4.702 1.082-4.35 0.509 0.224-0.366 0.741-1.052 1.326-1.746 1.149-1.364 0.418-1.701-1.34-1.636-0.618 0.022-1.109 0.019-1.083-0.010 0.158-0.172 0.983-0.636 1.45-0.824 3.402-1.326 4.948 0.841 6.3 1.538 2.773 1.878 3.459 0.291 5.763-1.832 0.943-0.867 1.338-0.75 2.279 0.114 1.429 1.312 2.355 1.635 3.482 1.201 0.588-0.225 0.627-0.268 0.576-0.561-0.051-0.284 0.005-1.024 0.030-1.335 4.090 3.756 3.113 2.243 3.293 2.68 0.015 0.031-2.332 1.227-3.208 2.041z"></path>
</symbol>
<symbol id="icon-arrow_prev" viewBox="0 0 32 32">
<path d="M2.643 17.371c1.307 0.729 3.007 2.213 3.316 2.901 0.313 0.701 0.795 0.877 0.88 0.321 0.151-0.996 0.161-1.744 0.166-1.811 0.412-0.048 1.137-1.039 3.102 0.909 1.379 1.37 2.060 1.257 3.987-0.661 1.553-1.544 2.072-2.125 4.785-0.089 2.352 1.766 3.447 2.111 5.278 1.677 2.832-0.68 4.547-3.062 2.132-2.959-0.488 0.017-2.209 0.066-2.209 0.066l0.316-0.316c1.327-1.336 2.646-3.402 2.945-4.448 0.202-0.709-0.157-1.249-1.352-0.071-1.295 1.277-2.959 2.132-4.155 2.145-0.573 0.004-0.524 0.017-3.871-1.118-2.069-0.706-2.94-0.431-5.083 1.588-0.735 0.691-1.096 0.998-1.217 1.039-0.606 0.188-0.874 0.127-1.713-0.359-0.651-0.38-1.46-0.648-2.002-0.666l-0.457-0.015-0.017-0.784c-0.040-1.81-0.392-2.143-1.299-1.236-0.722 0.722-1.96 1.506-3.826 2.421-0.967 0.487-0.902 0.804 0.294 1.467zM6.232 14.903c0.482-0.411 0.5-0.402 0.469 0.144-0.066 1.035 0.147 1.294 1.088 1.349 0.869 0.047 1.454 0.218 2.307 0.673 1.624 0.866 1.925 0.806 3.535-0.707 2.337-2.194 2.852-2.248 6.886-0.714 2.864 1.085 4.674-0.868 4.303-0.319-0.236 0.351-0.773 1.005-1.379 1.663-1.188 1.295-0.483 1.657 1.251 1.666 0.609 0.004 1.093 0.028 1.066 0.055-0.162 0.162-0.994 0.585-1.462 0.75-3.404 1.163-4.835-1.035-6.138-1.778-2.651-1.965-3.393-0.432-5.75 1.561-0.965 0.814-1.349 0.682-2.238-0.207-1.352-1.352-2.25-1.708-3.377-1.328-0.588 0.197-0.629 0.238-0.591 0.529 0.038 0.282-0.048 1.008-0.086 1.313-3.869-3.869-2.971-2.339-3.129-2.777-0.013-0.031 2.347-1.11 3.244-1.874z"></path>
</symbol>
  <symbol fill="none" xmlns="http://www.w3.org/2000/svg" viewBox="0 0 49 48" id="icon-energy">
    <path d="M22.7459 0H47.2054C47.3447 0.000583407 47.4811 0.0294696 47.5998 0.0835232C47.7185 0.137577 47.8151 0.214733 47.8789 0.306626C47.9428 0.398519 47.9715 0.501643 47.962 0.604803C47.9525 0.707963 47.9052 0.807229 47.8251 0.891825L32.2948 17.1144C32.2152 17.199 32.1683 17.2981 32.1591 17.4011C32.1499 17.504 32.1787 17.6069 32.2425 17.6985C32.3063 17.7902 32.4026 17.8671 32.5211 17.9211C32.6395 17.9751 32.7755 18.0041 32.9145 18.0048H47.7431C47.8904 18.0056 48.0342 18.0381 48.1571 18.0983C48.28 18.1584 48.3769 18.2437 48.436 18.3439C48.495 18.444 48.5138 18.5547 48.49 18.6626C48.4662 18.7705 48.4008 18.8709 48.3018 18.9518L7.32617 47.6047L23.3179 27.2995C23.3711 27.2129 23.3941 27.1178 23.3846 27.0229C23.3752 26.928 23.3337 26.8363 23.2639 26.7565C23.1942 26.6766 23.0985 26.6111 22.9856 26.566C22.8727 26.5208 22.7463 26.4976 22.6181 26.4983L9.70958 26.6243C9.58589 26.625 9.46379 26.6035 9.35384 26.5614C9.24389 26.5193 9.14938 26.458 9.07845 26.3828C9.00751 26.3076 8.9623 26.2207 8.94668 26.1296C8.93107 26.0385 8.94554 25.9459 8.98883 25.8599L22.0347 0.363806C22.0898 0.256901 22.1873 0.164912 22.3142 0.0999652C22.4412 0.0350182 22.5917 0.000161806 22.7459 0Z" fill="#D16E1C"></path>
    <path d="M39.5096 20.3236H24.6792C24.5404 20.3226 24.4046 20.2935 24.2864 20.2394C24.1683 20.1853 24.0722 20.1083 24.0087 20.0167C23.9451 19.9251 23.9164 19.8224 23.9257 19.7195C23.935 19.6167 23.9819 19.5177 24.0614 19.4332L39.5897 3.21067C39.6698 3.12608 39.7171 3.02681 39.7266 2.92365C39.7361 2.82049 39.7074 2.71738 39.6435 2.62548C39.5796 2.53359 39.4831 2.45643 39.3644 2.40238C39.2457 2.34833 39.1093 2.31943 38.97 2.31885H14.5144C14.3603 2.31901 14.2098 2.35387 14.0828 2.41881C13.9558 2.48376 13.8584 2.57576 13.8032 2.68266L0.75748 28.1787C0.714183 28.2647 0.699715 28.3573 0.715328 28.4484C0.730941 28.5395 0.77618 28.6264 0.847113 28.7016C0.918047 28.7769 1.01256 28.8381 1.12251 28.8802C1.23246 28.9223 1.35453 28.9439 1.47822 28.9431L14.3848 28.8171C14.5132 28.8163 14.6399 28.8395 14.753 28.8847C14.8661 28.9299 14.962 28.9956 15.0318 29.0757C15.1016 29.1557 15.143 29.2476 15.1523 29.3427C15.1615 29.4378 15.1382 29.5331 15.0846 29.6198L4.67961 46.2897C3.90739 47.5283 6.08105 48.6084 7.32804 47.6047L40.0702 21.2749C40.1712 21.1941 40.2382 21.0931 40.263 20.9844C40.2877 20.8757 40.2692 20.7639 40.2097 20.6629C40.1502 20.5619 40.0522 20.476 39.9279 20.4157C39.8035 20.3554 39.6581 20.3235 39.5096 20.3236Z" fill="url(#paint0_linear_89_3986)"></path>
    <g opacity="0.4">
      <path opacity="0.4" d="M12.3885 43.5336L13.2008 32.6365L6.79614 42.8938L7.65798 47.3387L12.3885 43.5336Z" fill="url(#paint1_linear_89_3986)"></path>
      <path opacity="0.4" d="M3.07031 23.6545L4.09046 28.919L11.4506 28.8468L6.21461 17.5081L3.07031 23.6545Z" fill="url(#paint2_linear_89_3986)"></path>
    </g>
    <path opacity="0.4" d="M32.0945 20.3236H24.6792C24.5404 20.3226 24.4046 20.2935 24.2864 20.2394C24.1683 20.1853 24.0722 20.1083 24.0087 20.0167C23.9451 19.9251 23.9164 19.8224 23.9257 19.7195C23.935 19.6167 23.9819 19.5177 24.0614 19.4332L25.0605 18.3885L19.836 2.31885H14.5143C14.213 2.31885 23.4512 34.638 23.4512 34.638L25.9395 32.635L32.0945 20.3236Z" fill="url(#paint3_linear_89_3986)"></path>
    <path d="M14.2283 2.3598L22.5111 0.0283609L47.2796 0.00146484C47.4178 0.00711946 47.5506 0.0427177 47.6618 0.103857C47.773 0.164996 47.8575 0.24899 47.905 0.345446L39.6832 2.67547L14.2283 2.3598Z" fill="#FCE13C"></path>
    <path d="M14.2283 2.3598L22.5111 0.0283609L47.2796 0.00146484C47.4178 0.00711946 47.5506 0.0427177 47.6618 0.103857C47.773 0.164996 47.8575 0.24899 47.905 0.345446L39.6832 2.67547L14.2283 2.3598Z" fill="#FCE13C"></path>
    <path d="M24.2786 20.24L32.5196 17.9241C32.6914 17.9875 32.883 18.0154 33.0744 18.0048H47.7984C47.9123 18.0069 48.0239 18.0296 48.1235 18.0707C48.2232 18.1119 48.3079 18.1704 48.3704 18.2412L39.8739 20.3872C39.7669 20.3468 39.6488 20.325 39.5288 20.3235H24.6561C24.5222 20.3226 24.3913 20.2936 24.2786 20.24Z" fill="url(#paint4_linear_89_3986)"></path>
    <path d="M39.5097 20.3236C38.2741 20.3916 37.031 20.427 35.8011 20.4496C34.5713 20.4723 33.3224 20.4836 32.0944 20.4864C30.8665 20.4893 29.6157 20.4765 28.3878 20.451C27.1598 20.4255 25.909 20.3916 24.6792 20.3236C25.9167 20.2571 27.1579 20.2217 28.3878 20.1976C29.6176 20.1736 30.8665 20.1651 32.0944 20.1623C33.3224 20.1594 34.5732 20.1722 35.8011 20.1976C37.029 20.2231 38.2741 20.2628 39.5097 20.3236Z" fill="#FFFFFD"></path>
    <path d="M5.06855 19.7502C4.36307 21.3055 3.6309 22.8546 2.87204 24.3976C2.4907 25.1705 2.10936 25.9392 1.72802 26.7092L1.15601 27.8629L1.00922 28.146L0.97298 28.2182C0.959633 28.2423 0.957726 28.2565 0.948192 28.2749C0.936741 28.3106 0.930988 28.3472 0.931038 28.3839C0.934506 28.4574 0.964682 28.5288 1.01839 28.5906C1.0721 28.6524 1.14733 28.7023 1.2361 28.7349C1.27963 28.7519 1.32667 28.7634 1.37529 28.7689C1.39896 28.7734 1.4233 28.7758 1.44774 28.776H1.53926H1.95302L2.78243 28.7689L4.44126 28.7576C5.54714 28.7576 6.65303 28.7491 7.757 28.7576C9.96877 28.7576 12.1805 28.7779 14.3923 28.8184C12.1831 28.9034 9.9732 28.9671 7.76271 29.0096C6.65682 29.0365 5.55094 29.0492 4.44697 29.069L2.78815 29.0902L1.95875 29.1002H1.54499C1.51257 29.1002 1.47635 29.1002 1.42868 29.1002C1.38377 29.1 1.33903 29.0962 1.29522 29.0888C1.20777 29.0778 1.12295 29.0573 1.04353 29.028C0.883629 28.9688 0.748519 28.8783 0.652762 28.7663C0.557005 28.6543 0.504238 28.525 0.500124 28.3924C0.498735 28.3261 0.508997 28.2599 0.530638 28.1956C0.543985 28.1659 0.559231 28.1291 0.570671 28.1064L0.60691 28.0342L0.755614 27.7511L1.35241 26.6017C1.75472 25.8387 2.15131 25.0714 2.56315 24.3098C3.36905 22.7819 4.20418 21.2621 5.06855 19.7502Z" fill="#FFFFFD"></path>
    <path d="M38.9929 2.66559C36.9501 2.69957 34.9087 2.71278 32.8685 2.70523C30.8283 2.70523 28.7881 2.67976 26.7479 2.65428C24.7077 2.6288 22.6675 2.58633 20.6292 2.53254C18.5909 2.47875 16.5507 2.41081 14.5125 2.3188C16.5463 2.28482 18.5871 2.27161 20.6349 2.27916C22.6751 2.27916 24.7153 2.30464 26.7555 2.33012C28.7957 2.35559 30.8359 2.39808 32.8761 2.45187C34.9163 2.50566 36.9546 2.56792 38.9929 2.66559Z" fill="#FFFFFD"></path>
    <path opacity="0.6" d="M37.6947 5.19102L39.59 3.20921C39.6726 3.13582 39.7249 3.04624 39.7405 2.95128C39.756 2.85633 39.7342 2.76007 39.6777 2.67411L14.5087 2.31738C14.3545 2.31754 14.204 2.3524 14.077 2.41735C13.9501 2.48229 13.8526 2.57429 13.7975 2.6812L6.52515 16.8922C12.1138 10.4357 24.5534 4.77201 37.6947 5.19102Z" fill="#FCFFAC"></path>
    <path opacity="0.6" d="M15.0864 29.6196L4.68144 46.2895C3.90922 47.5282 6.08286 48.6083 7.32985 47.6046L10.0984 45.3779C8.08492 44.2596 9.74758 40.0921 15.0864 29.6196Z" fill="#FCFFAC"></path>
    <path opacity="0.6" d="M17.5654 1.42295C22.2712 0.621709 29.8734 0.0766893 47.3523 0.00732422H47.2894L22.521 0.0342212L17.5654 1.42295Z" fill="#FCFFAC"></path>
    <defs>
      <linearGradient id="paint0_linear_89_3986" x1="2.90826" y1="10.7005" x2="22.1416" y2="36.6069" gradientUnits="userSpaceOnUse">
        <stop stop-color="#FCE13C"></stop>
        <stop offset="0.45" stop-color="#FDC822"></stop>
        <stop offset="1" stop-color="#FBAA12"></stop>
      </linearGradient>
      <linearGradient id="paint1_linear_89_3986" x1="6.86288" y1="37.3405" x2="11.9307" y2="44.1665" gradientUnits="userSpaceOnUse">
        <stop offset="0.08" stop-color="#FFFF93"></stop>
        <stop offset="0.23" stop-color="#FFFC8D"></stop>
        <stop offset="0.44" stop-color="#FEF47B"></stop>
        <stop offset="0.68" stop-color="#FDE65E"></stop>
        <stop offset="0.94" stop-color="#FCD436"></stop>
        <stop offset="1" stop-color="#FCCF2C"></stop>
      </linearGradient>
      <linearGradient id="paint2_linear_89_3986" x1="10878.6" y1="11806.2" x2="11464" y2="12236.1" gradientUnits="userSpaceOnUse">
        <stop offset="0.08" stop-color="#FFFF93"></stop>
        <stop offset="0.23" stop-color="#FFFC8D"></stop>
        <stop offset="0.44" stop-color="#FEF47B"></stop>
        <stop offset="0.68" stop-color="#FDE65E"></stop>
        <stop offset="0.94" stop-color="#FCD436"></stop>
        <stop offset="1" stop-color="#FCCF2C"></stop>
      </linearGradient>
      <linearGradient id="paint3_linear_89_3986" x1="14.5048" y1="18.4777" x2="32.0945" y2="18.4777" gradientUnits="userSpaceOnUse">
        <stop offset="0.08" stop-color="#FFF257"></stop>
        <stop offset="1" stop-color="#FCCF2C"></stop>
      </linearGradient>
      <linearGradient id="paint4_linear_89_3986" x1="24.2786" y1="19.1556" x2="48.3609" y2="19.1556" gradientUnits="userSpaceOnUse">
        <stop stop-color="#FBC01E"></stop>
        <stop offset="0.46" stop-color="#FDC822"></stop>
        <stop offset="1" stop-color="#FCE13C"></stop>
      </linearGradient>
    </defs>
  </symbol>
  <symbol fill="none" xmlns="http://www.w3.org/2000/svg" viewBox="0 0 49 48" id="icon-book">
    <path d="M20.9822 47.901C20.9822 47.901 40.5116 33.1789 48.2215 22.7948C48.5002 22.4185 48.4989 21.4054 48.4989 21.4054L25.3913 7.04028L6.91903 22.0249L2.28101 19.4081L1.23435 18.8871C-0.576367 23.1132 1.50648 29.2634 1.70666 29.4428L20.472 47.9029C20.5501 47.9668 20.6379 48.0002 20.7273 47.9999C20.8166 47.9995 20.9043 47.9655 20.9822 47.901Z" fill="#8E2011"></path>
    <path d="M23.5635 44.69L12.6431 39.3889V40.1975L20.4746 47.9031C20.5523 47.9666 20.6396 47.9999 20.7284 47.9999C20.8172 47.9999 20.9046 47.9666 20.9822 47.9031C20.9822 47.9031 21.9595 47.1678 23.5635 45.9077V44.69Z" fill="#BC5C0D"></path>
    <path d="M46.7772 24.6283C47.3005 24.0049 47.7781 23.3932 48.2164 22.795C48.495 22.4186 48.4937 21.4055 48.4937 21.4055L46.772 20.3345L46.7772 24.6283Z" fill="#BC5C0D"></path>
    <path d="M20.9822 46.9382C20.9822 46.9382 39.113 33.891 48.2516 22.0076C48.614 21.5367 48.5839 21.0253 48.1338 20.759L25.3913 6.07739L6.91906 21.0601L2.28105 18.4452L1.2344 18.8872C-0.576323 23.1133 1.62689 28.781 1.82314 28.9605L20.472 46.9382C20.5497 47.0035 20.6376 47.0378 20.7271 47.0378C20.8166 47.0378 20.9045 47.0035 20.9822 46.9382Z" fill="#B73D1C"></path>
    <path d="M48.2516 22.0078C48.614 21.5369 48.5839 21.0255 48.1339 20.7592L45.8456 19.281L40.1348 16.2512C40.1348 16.2512 43.8622 19.4527 47.1265 21.3825C47.8604 21.8167 46.3768 23.3258 46.7771 23.8526C46.7771 23.8449 47.7832 22.6176 48.2516 22.0078Z" fill="#ED9A15"></path>
    <path d="M20.5256 45.5043C15.6848 41.7605 13.5404 39.0877 12.6455 39.3946L20.4772 46.9439C20.5546 47.0085 20.6421 47.0424 20.731 47.0424C20.82 47.0424 20.9074 47.0085 20.9848 46.9439C20.9848 46.9439 21.6481 46.4653 22.1833 46.0639C22.8963 45.5293 23.5649 45.0218 23.5649 45.0218C23.3254 43.8813 21.062 45.9153 20.5256 45.5043Z" fill="#ED9A15"></path>
    <path d="M1.77341 19.3271C1.77341 19.3271 0.883753 23.6575 2.44328 28.0111L20.7284 45.2168L23.1057 38.7077L20.6709 33.2369L1.77341 19.3271Z" fill="#E09A85"></path>
    <path d="M20.6158 41.5097L2.4458 26.7856L20.9652 43.3121C21.0855 42.9435 20.6158 41.5097 20.6158 41.5097Z" fill="#AF7464"></path>
    <path d="M47.396 21.0098C47.396 21.0098 46.9341 21.0002 46.959 20.9384C46.9821 20.8578 46.994 20.7712 46.994 20.6837C46.994 20.5962 46.9821 20.5096 46.959 20.429L47.3096 20.0198C47.3842 19.6312 47.4402 19.2352 47.4771 18.835C47.4771 18.6092 47.2743 18.0631 47.2743 18.0631C47.2743 18.0631 47.4849 17.378 47.4836 17.1214C47.4541 16.9889 47.4178 16.8598 47.375 16.7354C47.3266 16.5424 47.4784 16.4498 47.4692 16.3495C47.4575 16.2124 47.1265 16.0889 47.1265 16.0889C47.1265 16.0889 47.6249 15.263 47.6262 15.1028C47.6262 14.879 47.3436 14.2229 47.3436 14.2229L47.3829 13.3641L47.4221 11.6389L20.6709 33.2425C20.6709 33.2425 20.4917 35.5332 20.5754 36.2858C20.6525 36.6634 20.75 37.0312 20.8671 37.3857L20.4668 37.9473L20.8266 38.5436L20.5649 40.2205C20.5649 40.2205 20.9156 40.8091 20.8999 41.0484C20.8894 41.2009 20.6159 41.5096 20.6159 41.5096C20.6159 41.5096 21.0595 42.9569 20.9509 43.4259C20.9012 43.6401 20.4668 43.9932 20.4668 43.9932L20.8266 44.5586L20.7285 45.2225C20.7285 45.2225 38.4065 33.2483 47.396 21.0098Z" fill="#FFD3C5"></path>
    <path d="M20.616 41.5096C20.616 41.5096 20.9888 42.7601 20.9653 43.3178C23.6447 41.3514 39.0201 29.877 47.4443 19.1785C47.4607 19.0652 47.4716 18.9505 47.477 18.835C29.5819 36.5888 20.616 41.5096 20.616 41.5096Z" fill="#E09A85"></path>
    <path d="M47.3461 14.2249L47.3854 13.3662L47.422 11.7625L47.3409 11.7085L20.6708 33.2427C20.6708 33.2427 20.4915 35.5333 20.5753 36.2859L20.5831 36.3438C25.2067 33.3199 39.1364 23.8834 47.5215 14.6803C47.4403 14.4488 47.3461 14.2249 47.3461 14.2249Z" fill="#E09A85"></path>
    <path d="M4.04068 29.5202L2.3922 27.9764C2.3922 27.9764 1.47638 24.854 1.52217 23.646C1.56796 22.438 1.67001 19.9988 1.67001 19.9988L20.5543 35.6297L20.5844 36.3457C20.5844 36.3457 4.63073 23.0806 3.13794 22.0655C1.6687 21.0737 1.97485 22.2817 2.89459 22.9629C4.43841 24.1053 7.55351 27.0829 7.55351 27.0829C7.55351 27.0829 3.26616 23.9972 2.73236 23.6981C2.19857 23.399 1.64123 24.4546 2.92992 25.3094C6.09213 27.409 11.6106 32.6193 11.6106 32.6193C11.6106 32.6193 4.69485 26.9478 3.47157 26.0408C2.24829 25.1338 2.16325 26.7297 4.02629 28.0709C4.02629 28.0709 2.30193 27.7737 4.04068 29.5202Z" fill="#AF7464"></path>
    <path d="M20.4654 37.9474L20.8265 38.5437L20.782 38.8273L11.7153 31.2974L20.4654 37.9474Z" fill="#AF7464"></path>
    <path d="M20.4668 37.9473L20.8266 38.5436L20.7873 38.8273L29.8147 31.5405C24.8013 35.2263 20.4668 37.9473 20.4668 37.9473Z" fill="#E09A85"></path>
    <path d="M45.2373 16.3457L45.5434 16.7567C46.7994 15.2766 47.2324 18.1211 47.1487 20.2071L47.3096 20.0142C47.3841 19.6274 47.44 19.2334 47.4771 18.8351C47.4771 18.6093 47.2743 18.0632 47.2743 18.0632C47.2743 18.0632 47.4849 17.3781 47.4836 17.1214C47.4541 16.9889 47.4178 16.8599 47.375 16.7355C47.3266 16.5425 47.4784 16.4499 47.4692 16.3495C47.4575 16.2125 47.1265 16.089 47.1265 16.089C47.1265 16.089 47.6249 15.2631 47.6262 15.1029C47.5863 14.8542 47.5163 14.6182 47.4195 14.4062L46.959 14.5645L45.2373 16.3457Z" fill="#E09A85"></path>
    <path d="M27.7974 39.0819C29.4694 37.6771 31.131 36.2536 32.782 34.8114L34.0171 33.723C34.4266 33.3564 34.84 32.9974 35.2456 32.6211L36.4715 31.5115L37.6856 30.3768C38.0938 30.0082 38.4902 29.6049 38.8932 29.2306L39.495 28.6516C39.6952 28.4587 39.8875 28.256 40.0903 28.0611C40.4828 27.6655 40.8871 27.2776 41.2796 26.8763C41.6721 26.4749 42.0646 26.0619 42.4571 25.6567C44.0074 24.0048 45.5251 22.2931 46.9642 20.429C45.6559 22.4841 44.1866 24.3213 42.669 26.0561C41.1514 27.791 39.5447 29.3753 37.9263 30.9152C36.308 32.4552 34.6425 33.8755 32.9547 35.2437C31.267 36.6119 29.5531 37.9125 27.7974 39.0819Z" fill="#E09A85"></path>
    <path d="M47.1265 16.0911L44.8722 18.3624C44.116 19.1111 43.3568 19.8534 42.5944 20.5893C41.8317 21.3265 41.0611 22.0444 40.2918 22.7642C39.5225 23.484 38.7428 24.1825 37.9643 24.8869C37.1859 25.5913 36.3943 26.2705 35.6093 26.9479C34.8243 27.6252 34.0276 28.2987 33.2269 28.9355C31.6281 30.2381 30.0032 31.477 28.3442 32.6021C29.141 31.9479 29.9404 31.2995 30.7293 30.6241C31.5182 29.9487 32.3084 29.2829 33.0947 28.6055C33.881 27.9282 34.6647 27.2451 35.4497 26.5503C36.2347 25.8556 37.0197 25.1725 37.7903 24.472C38.5609 23.7715 39.3472 23.0787 40.1243 22.3782L42.4545 20.2728C44.0061 18.8738 45.5526 17.4477 47.1265 16.0911Z" fill="#E09A85"></path>
    <path d="M20.616 41.5099C20.616 41.5099 24.5344 39.8619 37.2054 28.5574L20.616 41.5099Z" fill="#A56A5D"></path>
    <path d="M10.3037 33.2908C11.1419 33.9225 11.9736 34.5715 12.7987 35.2379C13.6242 35.8998 14.4445 36.5791 15.2622 37.2603C16.0799 37.9415 16.8937 38.6382 17.7022 39.3464C18.5108 40.0546 19.3141 40.7706 20.1096 41.5097C19.2705 40.878 18.4388 40.229 17.6146 39.5626C16.7877 38.9006 15.9687 38.2214 15.1497 37.5382C14.3307 36.8551 13.5196 36.1604 12.711 35.4521C11.9025 34.7439 11.1057 34.0279 10.3037 33.2908Z" fill="#91554C"></path>
    <path d="M11.3962 36.0486C12.203 36.7047 13.0029 37.3788 13.7957 38.071C14.5899 38.758 15.3762 39.4623 16.1612 40.1686C16.9462 40.8749 17.7312 41.5966 18.5018 42.328C19.2724 43.0594 20.047 43.8004 20.8084 44.5626C20.0016 43.904 19.2018 43.2298 18.4089 42.5403C17.6148 41.8513 16.8284 41.1489 16.0434 40.4407C15.2584 39.7325 14.4734 39.0127 13.7028 38.2813C12.9322 37.5499 12.1525 36.8205 11.3962 36.0486Z" fill="#91554C"></path>
    <path d="M2.11084 22.8083C2.7214 23.2213 3.32848 23.6536 3.93206 24.1051C4.5339 24.5509 5.1292 25.0141 5.7232 25.4811C6.31719 25.9481 6.90071 26.4286 7.49078 26.9187C8.08085 27.4089 8.65522 27.9125 9.22827 28.4355C8.61771 28.02 8.01019 27.5877 7.40573 27.1387C6.80389 26.691 6.20859 26.2279 5.61591 25.7628C5.02323 25.2977 4.4384 24.8153 3.84833 24.3251C3.25827 23.835 2.6839 23.3313 2.11084 22.8083Z" fill="#91554C"></path>
    <path d="M2.06787 25.0045C2.13981 24.9926 2.21263 25.0072 2.27981 25.0469C2.35046 25.0759 2.41849 25.1106 2.48652 25.1434C2.61735 25.2187 2.74818 25.2997 2.88686 25.3827C3.14852 25.5506 3.41018 25.7378 3.66398 25.9288C3.91779 26.1199 4.17291 26.3148 4.42018 26.5329C4.66744 26.7509 4.9134 26.9594 5.15412 27.189C5.0233 27.1041 4.89247 27.0115 4.76164 26.9208L4.37569 26.6409C4.11403 26.448 3.86546 26.255 3.61035 26.062L2.84761 25.4831C2.71678 25.3885 2.5925 25.2901 2.46298 25.2071C2.39756 25.1627 2.33215 25.1164 2.26804 25.0778C2.23534 25.0546 2.20132 25.0392 2.1673 25.0199C2.13329 25.0006 2.10189 24.989 2.06787 25.0045Z" fill="#91554C"></path>
    <path d="M9.01233 32.6772C6.35777 34.6571 2.5048 39.8173 2.5048 39.8173C2.5048 39.8173 2.76646 37.4476 2.88944 36.5367C2.92084 36.2936 2.93392 36.2511 2.79132 36.3109C2.19473 36.5637 0.522705 36.859 0.522705 36.859C0.522705 36.859 3.30156 31.9941 6.05424 30.2341L9.01233 32.3569V32.6772Z" fill="#AF1919"></path>
    <path d="M9.01233 32.3548C6.35777 34.3347 2.5048 39.8152 2.5048 39.8152C2.5048 39.8152 2.76646 37.1252 2.88944 36.2047C2.92084 35.9634 2.93392 35.9191 2.79132 35.9808C2.19473 36.2336 0.522705 36.8492 0.522705 36.8492C0.522705 36.8492 3.30156 31.664 6.05424 29.9021L9.01233 32.3548Z" fill="url(#paint0_linear_89_3929)"></path>
    <path d="M7.69481 31.2627C5.70616 33.2175 3.52781 36.1507 2.77684 37.187C2.75067 37.4282 2.72319 37.6849 2.69702 37.9415C3.39828 36.967 5.89979 33.5668 8.0546 31.5599L7.69481 31.2627Z" fill="#EAA542"></path>
    <path d="M6.59207 30.3479C4.49874 32.3568 2.14374 35.5294 1.44116 36.5078L2.05477 36.2743C3.15508 34.7999 5.17123 32.2217 6.92309 30.6219L6.59207 30.3479Z" fill="#EAA542"></path>
    <g>
      <path d="M4.0603 31.6968C4.52745 31.9637 5.00882 32.1728 5.49945 32.3221C6.56682 32.6656 7.66535 32.7465 8.7506 32.5614L9.01226 32.3549L6.05417 29.9041C5.34364 30.3827 4.67431 30.9846 4.0603 31.6968Z" fill="#DDDDDD"></path>
    </g>
    <path d="M1.23682 18.8871C1.23783 19.1457 1.2855 19.3993 1.37495 19.6218C1.46439 19.8443 1.59238 20.0276 1.74576 20.153L20.3632 35.5602C20.4566 35.638 20.5621 35.6788 20.6693 35.6788C20.7766 35.6788 20.8821 35.638 20.9755 35.5602C20.9755 35.5602 39.1403 23.505 48.0199 12.6192C48.4555 12.0866 48.3535 10.7744 48.3535 10.7744L28.4225 1.19507L1.23682 18.8871Z" fill="#A32511"></path>
    <path d="M46.7064 14.1668C47.1634 13.6522 47.5995 13.1376 48.0146 12.6231C48.4503 12.0904 48.3482 10.7782 48.3482 10.7782L46.7417 10.0063H46.7012L46.7064 14.1668Z" fill="#C6640C"></path>
    <path d="M23.6003 32.7679L12.1877 27.8875V28.8273L20.3583 35.5661C20.452 35.6444 20.558 35.6856 20.6657 35.6856C20.7735 35.6856 20.8794 35.6444 20.9732 35.5661C21.4429 35.24 22.7656 34.3465 23.5899 33.756L23.6003 32.7679Z" fill="#C6640C"></path>
    <path d="M1.23682 18.8872L20.3632 34.5953C20.4566 34.6731 20.5621 34.714 20.6694 34.714C20.7766 34.714 20.8821 34.6731 20.9755 34.5953C20.9755 34.5953 40.4827 21.4074 48.0513 11.6487C48.4765 11.1006 48.47 10.1763 47.9296 9.91189L29.706 0.232266C29.2388 0.0153048 28.7346 0.0487959 28.2825 0.326825C14.6197 7.70812 5.86305 15.1859 2.70475 17.9319L2.49673 17.7602C1.66333 18.4877 1.23682 18.8872 1.23682 18.8872Z" fill="url(#paint1_linear_89_3929)"></path>
    <path d="M47.595 10.0624L29.3713 0.394334C28.9038 0.176622 28.3992 0.209426 27.9465 0.486961C27.7506 0.569215 27.5501 0.624768 27.3473 0.652921C27.3195 0.673248 27.2968 0.706063 27.2825 0.746638C27.2681 0.787213 27.2629 0.833453 27.2675 0.878703L45.5972 10.6472C46.1375 10.9154 45.8589 11.8417 45.4337 12.3839L47.7167 11.805C48.1419 11.255 48.1314 10.3307 47.595 10.0624Z" fill="url(#paint2_linear_89_3929)"></path>
    <g>
      <g>
        <path d="M6.67041 23.3488L11.0847 26.9787L20.3633 34.5993C20.4567 34.6771 20.5622 34.7179 20.6694 34.7179C20.7767 34.7179 20.8822 34.6771 20.9756 34.5993C20.9756 34.5993 35.9258 22.2373 42.8716 16.6526C25.3284 29.4237 11.5321 26.2222 6.67041 23.3488Z" fill="#DBDBDB"></path>
      </g>
    </g>
    <path d="M47.9297 9.90215L29.5372 0.141426C29.0696 -0.0755067 28.565 -0.0420194 28.1125 0.235985L27.3471 0.652814L45.5695 10.3209C46.1098 10.5891 46.1163 11.5135 45.6911 12.0577C40.0405 19.3445 27.4269 28.4298 21.5329 32.6C21.3382 32.7259 21.1264 32.7834 20.9142 32.768C20.7019 32.7526 20.4949 32.6647 20.3096 32.5112L2.49674 17.7601C1.66333 18.4838 1.23682 18.8871 1.23682 18.8871L20.3632 34.5954C20.4567 34.6731 20.5621 34.714 20.6694 34.714C20.7767 34.714 20.8821 34.6731 20.9755 34.5954C20.9755 34.5954 25.7928 31.3784 31.4526 26.9516C37.6946 22.0693 43.9864 16.857 48.0513 11.6486C48.4779 11.0967 48.47 10.1704 47.9297 9.90215Z" fill="url(#paint3_linear_89_3929)"></path>
    <path d="M47.9299 9.90219L39.9111 5.65674C38.9547 6.08707 43.7655 8.55136 46.9761 10.6548C47.6722 11.1083 46.2958 12.2854 46.7027 13.285L47.5178 12.3202C47.7009 12.0963 47.878 11.8744 48.049 11.6544C48.4768 11.0948 48.4702 10.1704 47.9299 9.90219Z" fill="url(#paint4_linear_89_3929)"></path>
    <path d="M12.1877 27.8818L20.3635 34.5954C20.4569 34.6732 20.5624 34.7141 20.6697 34.7141C20.7769 34.7141 20.8824 34.6732 20.9758 34.5954C20.9758 34.5954 21.4991 34.2519 21.664 34.1342C22.1494 33.7946 23.6003 32.7679 23.6003 32.7679C23.3622 31.6352 20.9837 33.3797 20.425 33.0207C15.1119 29.5839 13.1991 27.1312 12.1877 27.8818Z" fill="url(#paint5_linear_89_3929)"></path>
    <path d="M2.56879 28.1364C2.58449 28.1943 2.29273 27.9955 2.1933 27.8103C1.37952 26.2954 0.754135 22.7582 1.46979 19.7845C1.4868 19.7169 1.80211 20.1183 1.79557 20.1955C1.57839 22.9493 1.85313 25.3595 2.56879 28.1364Z" fill="#EAA542"></path>
    <path d="M2.51125 28.1249C2.54919 28.148 2.57405 28.1538 2.56881 28.1364C1.85317 25.3595 1.57843 22.9493 1.79561 20.1955C1.79561 20.1183 1.48684 19.7169 1.46983 19.7845C1.36888 20.2116 1.29273 20.6506 1.24219 21.0967C1.29321 23.5205 1.73673 25.8207 2.51125 28.1249Z" fill="#D8953D"></path>
    <g>
      <g>
        <path d="M34.3402 23.4413C32.0689 22.9107 30.4348 20.3827 29.9691 19.6281C24.0921 10.1202 19.233 8.04959 16.2422 7.50732C14.6944 8.52238 13.4947 9.48918 12.1707 10.4213C14.6695 10.2167 19.6673 11.4846 26.6289 23.4548C27.7706 25.3851 29.3032 26.7221 31 27.268L31.0262 27.2777C32.3123 26.2877 33.6533 25.2341 35.0048 24.136C34.9373 23.9531 34.8423 23.7954 34.7271 23.675C34.6119 23.5545 34.4795 23.4746 34.3402 23.4413Z" fill="#DBDBDB"></path>
      </g>
    </g>
    <g>
      <g>
        <path d="M31.0275 27.2778V28.2813L30.7659 28.4743L31.5168 28.6673L32.0297 28.9336C32.1134 29.1439 31.7301 29.7962 31.7288 29.9448C31.7569 30.2058 31.7971 30.4638 31.8491 30.7167C31.8491 30.7167 32.1788 30.8402 32.1906 30.9772C32.1998 31.0795 32.048 31.1702 32.0964 31.3632C32.1395 31.4877 32.1762 31.6167 32.2063 31.7491C32.1796 32.0328 32.1286 32.3103 32.0545 32.5751C32.0545 32.5751 31.6529 33.1424 31.6516 33.3701C31.6516 33.484 32.4052 33.8564 32.3241 34.281L31.789 35.6724L32.6695 36.1162C32.1461 37.0116 32.6276 37.7121 32.6276 37.7121L32.1043 38.154L32.116 38.8912L34.403 36.919L34.4344 24.6167L31.0275 27.2778Z" fill="#DBDBDB"></path>
      </g>
    </g>
    <path d="M45.8495 41.6081L43.2107 38.7385C42.9216 38.3669 42.5949 38.0641 42.2425 37.8412C40.9682 37.0365 37.7615 34.9079 37.1113 33.4703C36.2949 31.6698 38.0925 22.8412 36.0646 22.3645C33.7947 21.8338 32.1593 19.3058 31.6935 18.5513C25.7472 8.92953 20.8436 6.91872 17.8619 6.41119C17.1201 6.28575 14.722 8.10359 13.2017 9.34249L12.9282 9.13408L11.8816 9.64546C11.8816 9.64546 11.9235 10.1839 12.1733 10.4174C13.517 10.2244 19.8467 8.36411 27.9085 22.2275C28.7472 23.671 30.2818 25.2572 32.3568 25.9365C34.3625 26.5945 32.3568 34.466 33.5029 37.1291C34.0498 38.3989 36.8444 40.3228 38.3228 41.2916C39.0244 41.7511 39.7721 42.0392 40.5364 42.1445L45.4806 42.8335C45.8037 42.8778 45.8495 41.6081 45.8495 41.6081Z" fill="#912F1C"></path>
    <path d="M17.8631 5.60259C20.8447 6.11012 25.7483 8.12093 31.6946 17.7427C32.1617 18.4972 33.7958 21.0233 36.0658 21.5559C38.0976 22.0326 36.2999 30.8612 37.1124 32.6617C37.7666 34.0993 40.9706 36.2279 42.2436 37.0326C42.5961 37.2555 42.9227 37.5583 43.2118 37.9299L45.7369 41.1758C45.7897 41.2451 45.826 41.3374 45.8407 41.4394C45.8553 41.5414 45.8474 41.6476 45.8182 41.7425C45.7889 41.8374 45.7399 41.916 45.6781 41.9668C45.6164 42.0176 45.5453 42.038 45.4752 42.0248L40.5428 41.3359C39.775 41.2338 39.0237 40.947 38.3187 40.4868C36.839 39.522 34.3361 37.7427 33.7696 36.4922C32.9546 34.6898 34.7273 26.0426 32.723 25.3865C31.0275 24.8395 29.4961 23.5034 28.3545 21.5752C20.2926 7.71182 13.7392 9.14949 11.8696 9.65315C11.8736 9.64543 16.7444 5.41347 17.8631 5.60259Z" fill="url(#paint6_linear_89_3929)"></path>
    <path d="M44.0479 41.0852C43.9865 41.0852 43.9302 41.0852 43.8883 41.0852L40.5848 40.624C39.8761 40.5269 39.1827 40.2603 38.532 39.8347C36.1771 38.2909 34.556 36.8938 34.1962 36.1026C33.9621 35.5854 34.0563 33.6267 34.1321 32.0501C34.2865 28.8447 34.4618 25.2129 32.8382 24.6803C31.2475 24.1705 29.8105 22.9179 28.7405 21.1083C23.4811 12.0655 18.6808 8.37195 12.9373 8.7579L13.0681 8.65176L13.1479 8.58615C15.9399 8.42019 18.3302 9.16508 20.6996 10.9019C23.3542 12.8586 26.0127 16.172 28.8269 20.9964C29.8804 22.7794 31.296 24.0132 32.8631 24.5144C34.5796 25.0759 34.4017 28.7811 34.2447 32.0501C34.1779 33.4356 34.0759 35.5236 34.2905 36.0003C34.6385 36.7722 36.2412 38.1423 38.5791 39.6668C39.2186 40.0827 39.8994 40.3434 40.5953 40.4387L43.8975 40.898C44.29 40.9327 44.464 40.8305 44.4849 40.7571C44.4941 40.7243 44.4732 40.6722 44.4274 40.6124L42.8063 38.5881C42.5651 38.2796 42.2927 38.0283 41.9991 37.8432C39.9398 36.5425 37.3415 34.6726 36.6546 33.1558C36.2451 32.2508 36.2372 30.6684 36.3655 28.0651C36.4597 26.1489 36.635 22.5846 35.973 22.4283C33.737 21.9053 32.048 19.6359 31.2407 18.3295C26.3999 10.4966 21.1535 6.1508 16.56 6.09483L16.6908 6.01957L16.8335 5.94238C21.4126 6.09483 26.5151 10.4464 31.3258 18.2234C32.1239 19.5124 33.7894 21.7548 35.9926 22.2759C36.7004 22.4418 36.6232 25.2361 36.4832 28.0825C36.3563 30.6452 36.3563 32.2006 36.7488 33.069C37.4553 34.6302 40.3702 36.6371 42.0436 37.7004C42.348 37.8913 42.6302 38.1518 42.8796 38.4723L44.5006 40.5159C44.6105 40.6568 44.6092 40.7706 44.5883 40.842C44.5281 41.0427 44.256 41.0852 44.0479 41.0852Z" fill="url(#paint7_linear_89_3929)"></path>
    <path d="M41.362 38.7791C41.345 39.057 41.0729 39.248 40.7537 39.2075C40.4344 39.167 40.1911 38.9103 40.2081 38.6285C40.2251 38.3468 40.4973 38.1596 40.8165 38.2001C41.1357 38.2406 41.379 38.5012 41.362 38.7791Z" fill="#99321A"></path>
    <path d="M41.197 39.0955C41.0687 38.9035 40.8956 38.791 40.713 38.7809C40.5622 38.7567 40.4099 38.7955 40.2734 38.8929C40.4015 39.0852 40.5748 39.1978 40.7575 39.2074C40.9082 39.2321 41.0606 39.1933 41.197 39.0955Z" fill="#662C20"></path>
    <path d="M38.8094 37.0288C38.7675 37.299 38.481 37.4398 38.1683 37.3395C37.8556 37.2392 37.6371 36.9381 37.679 36.666C37.7208 36.394 38.0074 36.255 38.3201 36.3554C38.6328 36.4557 38.8513 36.7567 38.8094 37.0288Z" fill="#99321A"></path>
    <path d="M38.6132 37.3107C38.5035 37.0961 38.3418 36.9523 38.1619 36.9094C38.0148 36.8567 37.8607 36.866 37.717 36.9364C37.8265 37.1517 37.9883 37.2962 38.1684 37.3396C38.3155 37.3927 38.4698 37.3827 38.6132 37.3107Z" fill="#662C20"></path>
    <path d="M36.5455 34.787C36.6184 34.5293 36.4391 34.1737 36.1451 33.9927C35.851 33.8117 35.5535 33.8738 35.4806 34.1315C35.4077 34.3892 35.587 34.7449 35.8811 34.9259C36.1751 35.1069 36.4726 35.0447 36.5455 34.787Z" fill="#99321A"></path>
    <path d="M36.3144 35.0199C36.2348 34.7771 36.0939 34.5901 35.9219 34.4988C35.784 34.4062 35.6312 34.3727 35.481 34.4023C35.5602 34.6454 35.7012 34.8327 35.8735 34.9234C36.0114 35.0161 36.1642 35.0495 36.3144 35.0199Z" fill="#662C20"></path>
    <g>
      <path d="M37.0026 32.3009C36.6455 30.5294 37.3781 27.1234 36.9634 23.179C36.5172 24.3619 35.5451 26.0736 33.5408 26.6757C34.0013 28.7984 33.4492 32.9551 33.5604 35.2322C34.2146 33.8678 35.3502 32.2295 37.0026 32.3009Z" fill="#E2E2E2"></path>
    </g>
    <path opacity="0.2" d="M31.8323 17.959C31.7786 17.876 31.7328 17.8046 31.7014 17.7429C25.7551 8.12114 20.8515 6.11034 17.8699 5.60282C16.7513 5.40985 11.8804 9.65529 11.8804 9.65529C13.6034 9.19022 19.3247 7.91852 26.5414 18.6614C28.3157 18.659 30.0862 18.424 31.8323 17.959Z" fill="#FFB3A6"></path>
    <defs>
      <linearGradient id="paint0_linear_89_3929" x1="2.67357" y1="39.958" x2="9.09118" y2="32.4196" gradientUnits="userSpaceOnUse">
        <stop stop-color="#EB7541"></stop>
        <stop offset="0.14" stop-color="#E36236"></stop>
        <stop offset="0.37" stop-color="#D64525"></stop>
        <stop offset="0.58" stop-color="#CF331B"></stop>
        <stop offset="0.73" stop-color="#CC2D17"></stop>
      </linearGradient>
      <linearGradient id="paint1_linear_89_3929" x1="21.4151" y1="4.01843" x2="35.5507" y2="24.57" gradientUnits="userSpaceOnUse">
        <stop stop-color="#E06539"></stop>
        <stop offset="0.32" stop-color="#DB5C2D"></stop>
        <stop offset="0.89" stop-color="#CC420F"></stop>
        <stop offset="1" stop-color="#C93D08"></stop>
      </linearGradient>
      <linearGradient id="paint2_linear_89_3929" x1="27.2675" y1="6.3187" x2="48.0189" y2="6.3187" gradientUnits="userSpaceOnUse">
        <stop stop-color="#A03925"></stop>
        <stop offset="0.2" stop-color="#A83F29"></stop>
        <stop offset="0.5" stop-color="#BE4F36"></stop>
        <stop offset="0.87" stop-color="#E16A49"></stop>
        <stop offset="1" stop-color="#EF7451"></stop>
      </linearGradient>
      <linearGradient id="paint3_linear_89_3929" x1="21.6009" y1="4.60496" x2="35.403" y2="24.674" gradientUnits="userSpaceOnUse">
        <stop stop-color="#FF9966"></stop>
        <stop offset="0.3" stop-color="#F88D5C"></stop>
        <stop offset="0.84" stop-color="#E56F40"></stop>
        <stop offset="1" stop-color="#DF6437"></stop>
      </linearGradient>
      <linearGradient id="paint4_linear_89_3929" x1="39.7881" y1="9.4622" x2="48.3538" y2="9.4622" gradientUnits="userSpaceOnUse">
        <stop stop-color="#FCE13C"></stop>
        <stop offset="0.38" stop-color="#FDC822"></stop>
        <stop offset="1" stop-color="#FBC01E"></stop>
      </linearGradient>
      <linearGradient id="paint5_linear_89_3929" x1="12.1877" y1="31.228" x2="23.6003" y2="31.228" gradientUnits="userSpaceOnUse">
        <stop stop-color="#FCE13C"></stop>
        <stop offset="0.54" stop-color="#FDC822"></stop>
        <stop offset="0.67" stop-color="#FBC320"></stop>
        <stop offset="0.83" stop-color="#F6B31C"></stop>
        <stop offset="1" stop-color="#ED9A15"></stop>
      </linearGradient>
      <linearGradient id="paint6_linear_89_3929" x1="28.8647" y1="5.5968" x2="28.8647" y2="42.0268" gradientUnits="userSpaceOnUse">
        <stop stop-color="#F2774F"></stop>
        <stop offset="0.23" stop-color="#E36336"></stop>
        <stop offset="0.49" stop-color="#D75222"></stop>
        <stop offset="0.74" stop-color="#D04816"></stop>
        <stop offset="1" stop-color="#CE4512"></stop>
      </linearGradient>
      <linearGradient id="paint7_linear_89_3929" x1="12.9373" y1="23.5128" x2="44.5988" y2="23.5128" gradientUnits="userSpaceOnUse">
        <stop stop-color="#D25833"></stop>
        <stop offset="1" stop-color="#8E2011"></stop>
      </linearGradient>
    </defs>
</symbol>
<symbol id="icon-download" viewBox="0 0 33 32">
<path fill="#1565c0" style="fill: var(--color38, #1565c0)" d="M16.333 24.733l-7.333-8.733h14.667l-7.333 8.733zM13.667 2.667h5.333v2.667h-5.333v-2.667zM13.667 6.667h5.333v2.667h-5.333v-2.667z"></path>
<path fill="#1565c0" style="fill: var(--color38, #1565c0)" d="M13.667 10.667h5.333v7.333h-5.333v-7.333zM4.333 26.667h24v2.667h-24v-2.667z"></path>
</symbol>
<symbol id="icon-stars_all" viewBox="0 0 203 32">
<path fill="#8e381e" style="fill: var(--color8, #8e381e)" d="M31.854 12.001c-0.185-0.587-0.532-1.103-0.997-1.483s-1.027-0.607-1.615-0.653l-7.268-0.608c-0.095-0.008-0.187-0.044-0.264-0.103s-0.138-0.139-0.175-0.231l-2.785-7.011c-0.227-0.567-0.609-1.052-1.098-1.392s-1.063-0.521-1.65-0.52c-0.588-0.002-1.163 0.179-1.653 0.519s-0.873 0.825-1.101 1.393l-2.801 7.011c-0.037 0.092-0.097 0.173-0.175 0.231s-0.169 0.094-0.264 0.103l-7.268 0.602c-0.585 0.045-1.144 0.271-1.605 0.65s-0.806 0.893-0.988 1.477c-0.183 0.584-0.195 1.212-0.037 1.804s0.481 1.121 0.927 1.52l5.538 4.93c0.074 0.066 0.128 0.152 0.158 0.249s0.033 0.2 0.010 0.299l-1.714 7.384c-0.139 0.597-0.104 1.224 0.1 1.8s0.568 1.075 1.044 1.432c0.477 0.362 1.046 0.568 1.634 0.592s1.171-0.134 1.673-0.455l6.218-3.955c0.079-0.048 0.17-0.073 0.261-0.073s0.182 0.025 0.261 0.073l6.223 3.96c0.502 0.319 1.084 0.477 1.671 0.452s1.155-0.229 1.631-0.589c0.477-0.357 0.84-0.856 1.044-1.432s0.239-1.203 0.1-1.8l-1.641-7.384c-0.023-0.099-0.020-0.202 0.010-0.299s0.084-0.183 0.158-0.249l5.538-4.93c0.448-0.395 0.773-0.922 0.933-1.513s0.148-1.218-0.034-1.801z"></path>
<path fill="#f4ee72" style="fill: var(--color9, #f4ee72)" d="M23.128 30.307l-6.218-3.988c-0.275-0.177-0.591-0.271-0.914-0.271s-0.639 0.094-0.914 0.271l-6.223 3.982c-0.296 0.186-0.637 0.276-0.981 0.26s-0.676-0.138-0.955-0.351c-0.278-0.213-0.491-0.506-0.612-0.845s-0.143-0.706-0.066-1.058l1.693-7.433c0.076-0.329 0.064-0.673-0.034-0.995s-0.28-0.609-0.525-0.829l-5.538-4.968c-0.261-0.237-0.45-0.55-0.543-0.899s-0.085-0.719 0.022-1.064 0.309-0.648 0.58-0.873c0.271-0.225 0.599-0.361 0.944-0.391l7.263-0.608c0.322-0.027 0.63-0.146 0.891-0.346s0.464-0.47 0.588-0.783l2.795-7.055c0.132-0.335 0.357-0.622 0.645-0.824s0.626-0.309 0.972-0.309 0.685 0.108 0.972 0.309c0.288 0.202 0.512 0.488 0.645 0.824l2.801 7.061c0.127 0.307 0.333 0.571 0.593 0.765s0.567 0.308 0.885 0.331l7.263 0.614c0.345 0.028 0.675 0.164 0.947 0.389s0.474 0.529 0.581 0.875c0.107 0.345 0.114 0.716 0.019 1.066s-0.285 0.662-0.549 0.897l-5.533 4.995c-0.246 0.22-0.429 0.506-0.53 0.828s-0.114 0.666-0.040 0.996l1.693 7.433c0.079 0.353 0.056 0.722-0.064 1.061s-0.334 0.634-0.613 0.847c-0.279 0.213-0.613 0.335-0.958 0.35s-0.687-0.076-0.982-0.264z"></path>
<path fill="#f58220" style="fill: var(--color10, #f58220)" d="M23.384 23.394c-2.79-3.489-7.425-7.592-7.425-7.592s-5.183 4.146-7.346 7.362c-1.321 2.011-1.993 4.412-1.917 6.852 0.275 0.3 0.64 0.491 1.034 0.543s0.792-0.039 1.13-0.258l6.223-3.982c0.275-0.177 0.592-0.271 0.914-0.271s0.639 0.094 0.914 0.271l6.218 3.988c0.391 0.252 0.861 0.332 1.307 0.223s0.835-0.397 1.080-0.804c-0.020-2.3-0.77-4.528-2.132-6.332z"></path>
<path fill="#fcd01e" style="fill: var(--color11, #fcd01e)" d="M15.959 0.937c-0.338 0.006-0.667 0.117-0.946 0.317s-0.495 0.483-0.622 0.811l-2.801 7.055c-0.123 0.313-0.327 0.584-0.588 0.783s-0.569 0.319-0.891 0.346l-7.263 0.608c-0.431 0.033-0.836 0.232-1.134 0.56s-0.47 0.761-0.48 1.214c1.317 0.389 2.774 0.712 3.992 1.041 3.626 0.98 10.742 2.131 10.742 2.131l-0.010-14.866z"></path>
<path fill="#f58220" style="fill: var(--color10, #f58220)" d="M25.756 28.308c0.071 0.301 0.067 0.617-0.012 0.916s-0.229 0.572-0.437 0.793c-0.618-2.186-1.544-4.263-2.748-6.162-2.278-3.402-6.557-8.096-6.557-8.096s3.584-2.054 6.792-2.7c3.208-0.646 7.879-1.024 7.879-1.024 0.127 0.356 0.146 0.745 0.052 1.112s-0.295 0.695-0.574 0.937l-5.533 4.968c-0.246 0.22-0.429 0.506-0.528 0.828s-0.112 0.667-0.036 0.996l1.703 7.433z"></path>
<path fill="#fcd01e" style="fill: var(--color11, #fcd01e)" d="M22.558 23.854c-2.153-3.204-6.108-7.564-6.521-8.052 5.617 0.915 7.921 3.686 7.921 3.686l0.172 0.307c-0.132 0.348-0.157 0.731-0.073 1.095l1.698 7.433c0.071 0.302 0.067 0.618-0.013 0.917s-0.232 0.572-0.442 0.792c-0.612-2.193-1.537-4.276-2.743-6.179z"></path>
<path fill="#f58220" style="fill: var(--color10, #f58220)" d="M6.241 28.308c-0.071 0.302-0.067 0.618 0.013 0.917s0.232 0.572 0.442 0.792c0.614-2.187 1.538-4.264 2.743-6.162 2.278-3.402 6.562-8.096 6.562-8.096s-3.579-2.054-6.792-2.7c-3.213-0.646-7.837-1.024-7.837-1.024-0.133 0.352-0.156 0.74-0.068 1.107s0.284 0.697 0.56 0.942l5.538 4.968c0.244 0.221 0.426 0.508 0.525 0.829s0.111 0.666 0.034 0.995l-1.719 7.433z"></path>
<path fill="#fbae1a" style="fill: var(--color12, #fbae1a)" d="M9.439 23.854c2.147-3.204 6.103-7.564 6.521-8.052-5.622 0.915-7.921 3.686-7.921 3.686l-0.172 0.307c0.13 0.349 0.154 0.732 0.068 1.095l-1.693 7.433c-0.071 0.302-0.067 0.618 0.013 0.917s0.232 0.572 0.442 0.792c0.612-2.193 1.537-4.276 2.743-6.179z"></path>
<path fill="#f4ee72" style="fill: var(--color9, #f4ee72)" d="M6.983 29.085c1.117-2.691 2.61-5.192 4.431-7.422 2.921-3.549 4.582-5.297 4.582-5.297 2.414 2.398 4.551 5.084 6.369 8.003 2.482 4.229 2.842 5.335 2.842 5.335-0.824-2.707-1.956-5.3-3.37-7.723-1.523-2.564-3.348-4.916-5.434-7l-1.197 0.389c0 0-7.221 8.068-8.224 13.716z"></path>
<path fill="#fcd01e" style="fill: var(--color11, #fcd01e)" d="M16.419 14.986l-1.196 0.389c0 0-7.236 8.063-8.24 13.71 1.117-2.691 2.61-5.193 4.431-7.422 2.921-3.549 4.582-5.297 4.582-5.297l0.423-1.38z"></path>
<path fill="#fff" style="fill: var(--color1, #fff)" d="M1.743 12.067c0 0 3.067 0.104 7.127 0.548 2.218 0.177 4.386 0.781 6.395 1.78 0 0 0.266-5.576 0.481-8.819s0.214-4.075 0.214-4.075 0.361 8.392 0.444 10.55c0.084 2.158 0.319 2.344 0.319 2.344l-0.763 1.424c0 0-3.349-2.536-14.217-3.752z"></path>
<path fill="#fff" style="fill: var(--color1, #fff)" d="M30.684 12.138c0.002 0.022 0.002 0.044 0 0.066 0.002-0.022 0.002-0.044 0-0.066z"></path>
<path fill="#fff" style="fill: var(--color1, #fff)" d="M30.631 12.034c-0.114-0.325-0.315-0.609-0.579-0.817s-0.58-0.331-0.91-0.356l-7.263-0.613c-0.358-0.029-0.697-0.174-0.972-0.416 0 0-2.555 1.095-4.932 5.916 0 0 3.584-2.054 6.792-2.7s7.675-0.997 7.863-1.013z"></path>
<path fill="#fff" style="fill: var(--color1, #fff)" d="M30.757 12.494c0.002 0.011 0.002 0.022 0 0.033 0.002-0.011 0.002-0.022 0-0.033z"></path>
<path fill="#8e381e" style="fill: var(--color8, #8e381e)" d="M18.347 16.328l5.669 3.999c0.014-0.244 0.075-0.482 0.179-0.7s0.249-0.412 0.427-0.571l0.266-0.241c-0.753-0.564-1.571-1.026-2.435-1.375-1.321-0.543-2.7-0.917-4.107-1.112z"></path>
<path fill="#8e381e" style="fill: var(--color8, #8e381e)" d="M16.79 26.259c-0.158-0.302-0.283-0.622-0.371-0.953-0.136-0.581-0.324-7.345-0.324-7.345s-0.157 6.184-0.272 7.192c-0.011 0.203-0.063 0.402-0.153 0.582s-0.216 0.339-0.369 0.464c0.237-0.107 0.493-0.158 0.751-0.147s0.51 0.081 0.738 0.207z"></path>
<path fill="#8e381e" style="fill: var(--color8, #8e381e)" d="M74.521 12.001c-0.185-0.587-0.533-1.103-0.997-1.483s-1.027-0.607-1.615-0.653l-7.268-0.608c-0.095-0.008-0.187-0.044-0.264-0.103s-0.138-0.139-0.175-0.231l-2.785-7.011c-0.227-0.567-0.609-1.052-1.098-1.392s-1.063-0.521-1.65-0.52c-0.588-0.002-1.163 0.179-1.653 0.519s-0.873 0.825-1.101 1.393l-2.801 7.011c-0.037 0.092-0.097 0.173-0.175 0.231s-0.169 0.094-0.264 0.103l-7.268 0.602c-0.585 0.045-1.144 0.271-1.605 0.65s-0.806 0.893-0.988 1.477c-0.183 0.584-0.195 1.212-0.037 1.804s0.481 1.121 0.927 1.52l5.538 4.93c0.074 0.066 0.128 0.152 0.158 0.249s0.033 0.2 0.010 0.299l-1.714 7.384c-0.139 0.597-0.104 1.224 0.1 1.8s0.568 1.075 1.044 1.432c0.477 0.362 1.046 0.568 1.634 0.592s1.171-0.134 1.673-0.455l6.218-3.955c0.079-0.048 0.17-0.073 0.261-0.073s0.182 0.025 0.261 0.073l6.223 3.96c0.502 0.319 1.084 0.477 1.671 0.452s1.155-0.229 1.631-0.589c0.477-0.357 0.84-0.856 1.044-1.432s0.239-1.203 0.1-1.8l-1.641-7.384c-0.023-0.099-0.020-0.202 0.010-0.299s0.084-0.183 0.157-0.249l5.539-4.93c0.448-0.395 0.773-0.922 0.933-1.513s0.148-1.218-0.034-1.801z"></path>
<path fill="#f4ee72" style="fill: var(--color9, #f4ee72)" d="M65.795 30.307l-6.218-3.988c-0.275-0.177-0.591-0.271-0.914-0.271s-0.639 0.094-0.914 0.271l-6.223 3.982c-0.296 0.186-0.637 0.276-0.981 0.26s-0.676-0.138-0.955-0.351c-0.278-0.213-0.491-0.506-0.612-0.845s-0.143-0.706-0.065-1.058l1.693-7.433c0.076-0.329 0.064-0.673-0.034-0.995s-0.28-0.609-0.525-0.829l-5.538-4.968c-0.261-0.237-0.45-0.55-0.543-0.899s-0.085-0.719 0.022-1.064 0.309-0.648 0.58-0.873c0.271-0.225 0.599-0.361 0.944-0.391l7.263-0.608c0.322-0.027 0.63-0.146 0.891-0.346s0.464-0.47 0.588-0.783l2.795-7.055c0.132-0.335 0.357-0.622 0.645-0.824s0.626-0.309 0.972-0.309 0.685 0.108 0.972 0.309c0.288 0.202 0.512 0.488 0.645 0.824l2.801 7.061c0.127 0.307 0.333 0.571 0.593 0.765s0.567 0.308 0.885 0.331l7.262 0.614c0.345 0.028 0.675 0.164 0.947 0.389s0.474 0.529 0.581 0.875c0.107 0.345 0.114 0.716 0.019 1.066s-0.285 0.662-0.549 0.897l-5.533 4.995c-0.246 0.22-0.429 0.506-0.53 0.828s-0.114 0.666-0.040 0.996l1.693 7.433c0.078 0.353 0.056 0.722-0.065 1.061s-0.334 0.634-0.613 0.847c-0.279 0.213-0.613 0.335-0.957 0.35s-0.687-0.076-0.983-0.264z"></path>
<path fill="#f58220" style="fill: var(--color10, #f58220)" d="M66.051 23.394c-2.79-3.489-7.425-7.592-7.425-7.592s-5.183 4.146-7.346 7.362c-1.321 2.011-1.993 4.412-1.917 6.852 0.275 0.3 0.64 0.491 1.034 0.543s0.792-0.039 1.13-0.258l6.223-3.982c0.275-0.177 0.592-0.271 0.914-0.271s0.639 0.094 0.914 0.271l6.218 3.988c0.391 0.252 0.861 0.332 1.307 0.223s0.835-0.397 1.081-0.804c-0.020-2.3-0.77-4.528-2.132-6.332z"></path>
<path fill="#fcd01e" style="fill: var(--color11, #fcd01e)" d="M58.626 0.937c-0.338 0.006-0.667 0.117-0.946 0.317s-0.495 0.483-0.622 0.811l-2.801 7.055c-0.123 0.313-0.327 0.584-0.588 0.783s-0.569 0.319-0.891 0.346l-7.263 0.608c-0.431 0.033-0.836 0.232-1.134 0.56s-0.47 0.761-0.48 1.214c1.317 0.389 2.774 0.712 3.992 1.041 3.626 0.98 10.742 2.131 10.742 2.131l-0.010-14.866z"></path>
<path fill="#f58220" style="fill: var(--color10, #f58220)" d="M68.423 28.308c0.071 0.301 0.067 0.617-0.012 0.916s-0.229 0.572-0.437 0.793c-0.618-2.186-1.545-4.263-2.748-6.162-2.278-3.402-6.557-8.096-6.557-8.096s3.584-2.054 6.792-2.7c3.208-0.646 7.879-1.024 7.879-1.024 0.127 0.356 0.145 0.745 0.051 1.112s-0.294 0.695-0.574 0.937l-5.533 4.968c-0.246 0.22-0.429 0.506-0.528 0.828s-0.112 0.667-0.036 0.996l1.703 7.433z"></path>
<path fill="#fcd01e" style="fill: var(--color11, #fcd01e)" d="M65.225 23.854c-2.153-3.204-6.108-7.564-6.521-8.052 5.617 0.915 7.921 3.686 7.921 3.686l0.173 0.307c-0.132 0.348-0.158 0.731-0.073 1.095l1.698 7.433c0.071 0.302 0.067 0.618-0.013 0.917s-0.232 0.572-0.442 0.792c-0.612-2.193-1.537-4.276-2.743-6.179z"></path>
<path fill="#f58220" style="fill: var(--color10, #f58220)" d="M48.908 28.308c-0.071 0.302-0.067 0.618 0.013 0.917s0.232 0.572 0.442 0.792c0.614-2.187 1.538-4.264 2.743-6.162 2.278-3.402 6.562-8.096 6.562-8.096s-3.579-2.054-6.792-2.7c-3.213-0.646-7.837-1.024-7.837-1.024-0.133 0.352-0.156 0.74-0.068 1.107s0.284 0.697 0.56 0.942l5.538 4.968c0.244 0.221 0.426 0.508 0.525 0.829s0.111 0.666 0.034 0.995l-1.719 7.433z"></path>
<path fill="#fbae1a" style="fill: var(--color12, #fbae1a)" d="M52.105 23.854c2.147-3.204 6.103-7.564 6.521-8.052-5.622 0.915-7.921 3.686-7.921 3.686l-0.172 0.307c0.13 0.349 0.154 0.732 0.068 1.095l-1.693 7.433c-0.071 0.302-0.067 0.618 0.013 0.917s0.232 0.572 0.442 0.792c0.612-2.193 1.537-4.276 2.743-6.179z"></path>
<path fill="#f4ee72" style="fill: var(--color9, #f4ee72)" d="M49.65 29.085c1.117-2.691 2.61-5.192 4.431-7.422 2.921-3.549 4.582-5.297 4.582-5.297 2.414 2.398 4.551 5.084 6.369 8.003 2.482 4.229 2.842 5.335 2.842 5.335-0.825-2.707-1.956-5.3-3.37-7.723-1.523-2.564-3.348-4.916-5.434-7l-1.197 0.389c0 0-7.221 8.068-8.224 13.716z"></path>
<path fill="#fcd01e" style="fill: var(--color11, #fcd01e)" d="M59.086 14.986l-1.196 0.389c0 0-7.236 8.063-8.24 13.71 1.117-2.691 2.61-5.193 4.431-7.422 2.921-3.549 4.582-5.297 4.582-5.297l0.423-1.38z"></path>
<path fill="#fff" style="fill: var(--color1, #fff)" d="M44.41 12.067c0 0 3.067 0.104 7.127 0.548 2.218 0.177 4.386 0.781 6.395 1.78 0 0 0.266-5.576 0.481-8.819s0.214-4.075 0.214-4.075 0.361 8.392 0.444 10.55c0.084 2.158 0.319 2.344 0.319 2.344l-0.763 1.424c0 0-3.349-2.536-14.217-3.752z"></path>
<path fill="#fff" style="fill: var(--color1, #fff)" d="M73.35 12.138c0.003 0.022 0.003 0.044 0 0.066 0.003-0.022 0.003-0.044 0-0.066z"></path>
<path fill="#fff" style="fill: var(--color1, #fff)" d="M73.298 12.034c-0.114-0.325-0.315-0.609-0.58-0.817s-0.58-0.331-0.909-0.356l-7.263-0.613c-0.358-0.029-0.697-0.174-0.972-0.416 0 0-2.555 1.095-4.932 5.916 0 0 3.584-2.054 6.792-2.7s7.675-0.997 7.864-1.013z"></path>
<path fill="#fff" style="fill: var(--color1, #fff)" d="M73.423 12.494c0.002 0.011 0.002 0.022 0 0.033 0.002-0.011 0.002-0.022 0-0.033z"></path>
<path fill="#8e381e" style="fill: var(--color8, #8e381e)" d="M61.014 16.328l5.669 3.999c0.015-0.244 0.075-0.482 0.18-0.7s0.249-0.412 0.427-0.571l0.266-0.241c-0.753-0.564-1.571-1.026-2.435-1.375-1.321-0.543-2.7-0.917-4.107-1.112z"></path>
<path fill="#8e381e" style="fill: var(--color8, #8e381e)" d="M59.457 26.259c-0.158-0.302-0.283-0.622-0.371-0.953-0.136-0.581-0.324-7.345-0.324-7.345s-0.157 6.184-0.272 7.192c-0.011 0.203-0.063 0.402-0.153 0.582s-0.216 0.339-0.369 0.464c0.237-0.107 0.493-0.158 0.751-0.147s0.51 0.081 0.738 0.207z"></path>
<path fill="#8e381e" style="fill: var(--color8, #8e381e)" d="M117.187 12.001c-0.185-0.587-0.533-1.103-0.997-1.483s-1.027-0.607-1.615-0.653l-7.268-0.608c-0.095-0.008-0.187-0.044-0.264-0.103s-0.138-0.139-0.175-0.231l-2.785-7.011c-0.227-0.567-0.609-1.052-1.098-1.392s-1.063-0.521-1.651-0.52c-0.587-0.002-1.163 0.179-1.653 0.519s-0.873 0.825-1.101 1.393l-2.801 7.011c-0.037 0.092-0.097 0.173-0.175 0.231s-0.169 0.094-0.264 0.103l-7.268 0.602c-0.585 0.045-1.143 0.271-1.605 0.65s-0.806 0.893-0.989 1.477c-0.182 0.584-0.195 1.212-0.037 1.804s0.481 1.121 0.927 1.52l5.539 4.93c0.073 0.066 0.128 0.152 0.157 0.249s0.033 0.2 0.010 0.299l-1.714 7.384c-0.139 0.597-0.104 1.224 0.1 1.8s0.567 1.075 1.044 1.432c0.477 0.362 1.046 0.568 1.634 0.592s1.171-0.134 1.673-0.455l6.218-3.955c0.079-0.048 0.169-0.073 0.261-0.073s0.181 0.025 0.261 0.073l6.223 3.96c0.502 0.319 1.083 0.477 1.671 0.452s1.155-0.229 1.631-0.589c0.477-0.357 0.84-0.856 1.044-1.432s0.239-1.203 0.1-1.8l-1.641-7.384c-0.023-0.099-0.020-0.202 0.010-0.299s0.084-0.183 0.157-0.249l5.539-4.93c0.448-0.395 0.773-0.922 0.933-1.513s0.148-1.218-0.034-1.801z"></path>
<path fill="#f4ee72" style="fill: var(--color9, #f4ee72)" d="M108.461 30.307l-6.217-3.988c-0.275-0.177-0.592-0.271-0.915-0.271s-0.639 0.094-0.914 0.271l-6.223 3.982c-0.295 0.186-0.636 0.276-0.981 0.26s-0.676-0.138-0.955-0.351c-0.278-0.213-0.491-0.506-0.611-0.845s-0.143-0.706-0.065-1.058l1.693-7.433c0.076-0.329 0.064-0.673-0.035-0.995s-0.28-0.609-0.525-0.829l-5.538-4.968c-0.261-0.237-0.451-0.55-0.543-0.899s-0.085-0.719 0.023-1.064c0.107-0.345 0.309-0.648 0.58-0.873s0.599-0.361 0.944-0.391l7.263-0.608c0.321-0.027 0.63-0.146 0.891-0.346s0.465-0.47 0.587-0.783l2.795-7.055c0.133-0.335 0.357-0.622 0.645-0.824s0.627-0.309 0.973-0.309 0.685 0.108 0.973 0.309c0.288 0.202 0.512 0.488 0.645 0.824l2.801 7.061c0.127 0.307 0.332 0.571 0.593 0.765s0.567 0.308 0.886 0.331l7.262 0.614c0.345 0.028 0.675 0.164 0.947 0.389s0.474 0.529 0.581 0.875c0.107 0.345 0.114 0.716 0.019 1.066s-0.285 0.662-0.549 0.897l-5.533 4.995c-0.246 0.22-0.429 0.506-0.53 0.828s-0.114 0.666-0.040 0.996l1.693 7.433c0.078 0.353 0.056 0.722-0.065 1.061s-0.334 0.634-0.613 0.847c-0.279 0.213-0.613 0.335-0.957 0.35s-0.687-0.076-0.983-0.264z"></path>
<path fill="#f58220" style="fill: var(--color10, #f58220)" d="M108.717 23.394c-2.79-3.489-7.425-7.592-7.425-7.592s-5.183 4.146-7.346 7.362c-1.321 2.011-1.993 4.412-1.917 6.852 0.275 0.3 0.64 0.491 1.033 0.543s0.793-0.039 1.129-0.258l6.223-3.982c0.275-0.177 0.591-0.271 0.914-0.271s0.639 0.094 0.915 0.271l6.217 3.988c0.391 0.252 0.861 0.332 1.307 0.223s0.835-0.397 1.081-0.804c-0.020-2.3-0.77-4.528-2.132-6.332z"></path>
<path fill="#fcd01e" style="fill: var(--color11, #fcd01e)" d="M101.293 0.937c-0.338 0.006-0.667 0.117-0.945 0.317s-0.495 0.483-0.622 0.811l-2.801 7.055c-0.123 0.313-0.327 0.584-0.587 0.783s-0.569 0.319-0.891 0.346l-7.263 0.608c-0.431 0.033-0.835 0.232-1.134 0.56s-0.47 0.761-0.48 1.214c1.317 0.389 2.774 0.712 3.991 1.041 3.626 0.98 10.743 2.131 10.743 2.131l-0.011-14.866z"></path>
<path fill="#f58220" style="fill: var(--color10, #f58220)" d="M111.090 28.308c0.071 0.301 0.067 0.617-0.012 0.916s-0.229 0.572-0.437 0.793c-0.618-2.186-1.545-4.263-2.749-6.162-2.278-3.402-6.557-8.096-6.557-8.096s3.585-2.054 6.793-2.7c3.208-0.646 7.879-1.024 7.879-1.024 0.127 0.356 0.145 0.745 0.051 1.112s-0.294 0.695-0.574 0.937l-5.533 4.968c-0.246 0.22-0.429 0.506-0.528 0.828s-0.112 0.667-0.036 0.996l1.703 7.433z"></path>
<path fill="#fcd01e" style="fill: var(--color11, #fcd01e)" d="M107.892 23.854c-2.153-3.204-6.108-7.564-6.521-8.052 5.617 0.915 7.921 3.686 7.921 3.686l0.173 0.307c-0.132 0.348-0.157 0.731-0.073 1.095l1.698 7.433c0.071 0.302 0.067 0.618-0.013 0.917s-0.232 0.572-0.442 0.792c-0.612-2.193-1.537-4.276-2.743-6.179z"></path>
<path fill="#f58220" style="fill: var(--color10, #f58220)" d="M91.575 28.308c-0.071 0.302-0.067 0.618 0.013 0.917s0.232 0.572 0.442 0.792c0.614-2.187 1.539-4.264 2.743-6.162 2.278-3.402 6.562-8.096 6.562-8.096s-3.579-2.054-6.792-2.7c-3.213-0.646-7.837-1.024-7.837-1.024-0.133 0.352-0.157 0.74-0.069 1.107s0.284 0.697 0.56 0.942l5.538 4.968c0.245 0.221 0.426 0.508 0.525 0.829s0.111 0.666 0.035 0.995l-1.719 7.433z"></path>
<path fill="#fbae1a" style="fill: var(--color12, #fbae1a)" d="M94.772 23.854c2.147-3.204 6.103-7.564 6.521-8.052-5.622 0.915-7.921 3.686-7.921 3.686l-0.173 0.307c0.131 0.349 0.154 0.732 0.068 1.095l-1.693 7.433c-0.071 0.302-0.067 0.618 0.013 0.917s0.232 0.572 0.442 0.792c0.612-2.193 1.537-4.276 2.743-6.179z"></path>
<path fill="#f4ee72" style="fill: var(--color9, #f4ee72)" d="M92.317 29.085c1.117-2.691 2.61-5.192 4.431-7.422 2.921-3.549 4.582-5.297 4.582-5.297 2.414 2.398 4.551 5.084 6.369 8.003 2.481 4.229 2.842 5.335 2.842 5.335-0.825-2.707-1.956-5.3-3.37-7.723-1.523-2.564-3.348-4.916-5.434-7l-1.196 0.389c0 0-7.221 8.068-8.224 13.716z"></path>
<path fill="#fcd01e" style="fill: var(--color11, #fcd01e)" d="M101.753 14.986l-1.197 0.389c0 0-7.237 8.063-8.239 13.71 1.117-2.691 2.61-5.193 4.431-7.422 2.921-3.549 4.582-5.297 4.582-5.297l0.423-1.38z"></path>
<path fill="#fff" style="fill: var(--color1, #fff)" d="M87.076 12.067c0 0 3.067 0.104 7.127 0.548 2.218 0.177 4.386 0.781 6.395 1.78 0 0 0.267-5.576 0.481-8.819s0.215-4.075 0.215-4.075 0.36 8.392 0.444 10.55c0.083 2.158 0.319 2.344 0.319 2.344l-0.763 1.424c0 0-3.349-2.536-14.217-3.752z"></path>
<path fill="#fff" style="fill: var(--color1, #fff)" d="M116.017 12.138c0.003 0.022 0.003 0.044 0 0.066 0.003-0.022 0.003-0.044 0-0.066z"></path>
<path fill="#fff" style="fill: var(--color1, #fff)" d="M115.965 12.034c-0.114-0.325-0.315-0.609-0.58-0.817s-0.58-0.331-0.909-0.356l-7.263-0.613c-0.357-0.029-0.697-0.174-0.972-0.416 0 0-2.555 1.095-4.932 5.916 0 0 3.584-2.054 6.792-2.7s7.675-0.997 7.864-1.013z"></path>
<path fill="#fff" style="fill: var(--color1, #fff)" d="M116.090 12.494c0.002 0.011 0.002 0.022 0 0.033 0.002-0.011 0.002-0.022 0-0.033z"></path>
<path fill="#8e381e" style="fill: var(--color8, #8e381e)" d="M103.681 16.328l5.669 3.999c0.015-0.244 0.075-0.482 0.18-0.7s0.249-0.412 0.427-0.571l0.266-0.241c-0.753-0.564-1.571-1.026-2.435-1.375-1.321-0.543-2.7-0.917-4.107-1.112z"></path>
<path fill="#8e381e" style="fill: var(--color8, #8e381e)" d="M102.123 26.259c-0.158-0.302-0.283-0.622-0.371-0.953-0.136-0.581-0.324-7.345-0.324-7.345s-0.157 6.184-0.272 7.192c-0.011 0.203-0.063 0.402-0.153 0.582s-0.216 0.339-0.369 0.464c0.237-0.107 0.493-0.158 0.751-0.147s0.51 0.081 0.738 0.207z"></path>
<path fill="#8e381e" style="fill: var(--color8, #8e381e)" d="M159.854 12.001c-0.185-0.587-0.533-1.103-0.997-1.483s-1.027-0.607-1.615-0.653l-7.268-0.608c-0.095-0.008-0.187-0.044-0.264-0.103s-0.138-0.139-0.175-0.231l-2.785-7.011c-0.227-0.567-0.609-1.052-1.098-1.392s-1.063-0.521-1.651-0.52c-0.587-0.002-1.163 0.179-1.653 0.519s-0.873 0.825-1.101 1.393l-2.801 7.011c-0.037 0.092-0.097 0.173-0.175 0.231s-0.169 0.094-0.264 0.103l-7.268 0.602c-0.585 0.045-1.143 0.271-1.605 0.65s-0.806 0.893-0.989 1.477c-0.182 0.584-0.195 1.212-0.037 1.804s0.481 1.121 0.927 1.52l5.539 4.93c0.073 0.066 0.128 0.152 0.157 0.249s0.033 0.2 0.010 0.299l-1.714 7.384c-0.139 0.597-0.104 1.224 0.1 1.8s0.567 1.075 1.044 1.432c0.477 0.362 1.046 0.568 1.634 0.592s1.171-0.134 1.673-0.455l6.218-3.955c0.079-0.048 0.169-0.073 0.261-0.073s0.181 0.025 0.261 0.073l6.223 3.96c0.502 0.319 1.083 0.477 1.671 0.452s1.155-0.229 1.631-0.589c0.477-0.357 0.84-0.856 1.044-1.432s0.239-1.203 0.1-1.8l-1.641-7.384c-0.023-0.099-0.020-0.202 0.010-0.299s0.084-0.183 0.157-0.249l5.539-4.93c0.448-0.395 0.773-0.922 0.933-1.513s0.148-1.218-0.034-1.801z"></path>
<path fill="#f4ee72" style="fill: var(--color9, #f4ee72)" d="M151.128 30.307l-6.217-3.988c-0.275-0.177-0.592-0.271-0.915-0.271s-0.639 0.094-0.914 0.271l-6.223 3.982c-0.295 0.186-0.636 0.276-0.981 0.26s-0.676-0.138-0.955-0.351c-0.278-0.213-0.491-0.506-0.611-0.845s-0.143-0.706-0.065-1.058l1.693-7.433c0.076-0.329 0.064-0.673-0.035-0.995s-0.28-0.609-0.525-0.829l-5.538-4.968c-0.261-0.237-0.451-0.55-0.543-0.899s-0.085-0.719 0.023-1.064c0.107-0.345 0.309-0.648 0.58-0.873s0.599-0.361 0.944-0.391l7.263-0.608c0.321-0.027 0.63-0.146 0.891-0.346s0.465-0.47 0.587-0.783l2.795-7.055c0.133-0.335 0.357-0.622 0.645-0.824s0.627-0.309 0.973-0.309 0.685 0.108 0.973 0.309c0.288 0.202 0.512 0.488 0.645 0.824l2.801 7.061c0.127 0.307 0.332 0.571 0.593 0.765s0.567 0.308 0.886 0.331l7.262 0.614c0.345 0.028 0.675 0.164 0.947 0.389s0.474 0.529 0.581 0.875c0.107 0.345 0.114 0.716 0.019 1.066s-0.285 0.662-0.549 0.897l-5.533 4.995c-0.246 0.22-0.429 0.506-0.53 0.828s-0.114 0.666-0.040 0.996l1.693 7.433c0.078 0.353 0.056 0.722-0.065 1.061s-0.334 0.634-0.613 0.847c-0.279 0.213-0.613 0.335-0.957 0.35s-0.687-0.076-0.983-0.264z"></path>
<path fill="#f58220" style="fill: var(--color10, #f58220)" d="M151.384 23.394c-2.79-3.489-7.425-7.592-7.425-7.592s-5.183 4.146-7.346 7.362c-1.321 2.011-1.993 4.412-1.917 6.852 0.275 0.3 0.64 0.491 1.033 0.543s0.793-0.039 1.129-0.258l6.223-3.982c0.275-0.177 0.591-0.271 0.914-0.271s0.639 0.094 0.915 0.271l6.217 3.988c0.391 0.252 0.861 0.332 1.307 0.223s0.835-0.397 1.081-0.804c-0.020-2.3-0.77-4.528-2.132-6.332z"></path>
<path fill="#fcd01e" style="fill: var(--color11, #fcd01e)" d="M143.959 0.937c-0.338 0.006-0.667 0.117-0.945 0.317s-0.495 0.483-0.622 0.811l-2.801 7.055c-0.123 0.313-0.327 0.584-0.587 0.783s-0.569 0.319-0.891 0.346l-7.263 0.608c-0.431 0.033-0.835 0.232-1.134 0.56s-0.47 0.761-0.48 1.214c1.317 0.389 2.774 0.712 3.991 1.041 3.626 0.98 10.743 2.131 10.743 2.131l-0.011-14.866z"></path>
<path fill="#f58220" style="fill: var(--color10, #f58220)" d="M153.757 28.308c0.071 0.301 0.067 0.617-0.012 0.916s-0.229 0.572-0.437 0.793c-0.618-2.186-1.545-4.263-2.749-6.162-2.278-3.402-6.557-8.096-6.557-8.096s3.585-2.054 6.793-2.7c3.208-0.646 7.879-1.024 7.879-1.024 0.127 0.356 0.145 0.745 0.051 1.112s-0.294 0.695-0.574 0.937l-5.533 4.968c-0.246 0.22-0.429 0.506-0.528 0.828s-0.112 0.667-0.036 0.996l1.703 7.433z"></path>
<path fill="#fcd01e" style="fill: var(--color11, #fcd01e)" d="M150.559 23.854c-2.153-3.204-6.108-7.564-6.521-8.052 5.617 0.915 7.921 3.686 7.921 3.686l0.173 0.307c-0.132 0.348-0.157 0.731-0.073 1.095l1.698 7.433c0.071 0.302 0.067 0.618-0.013 0.917s-0.232 0.572-0.442 0.792c-0.612-2.193-1.537-4.276-2.743-6.179z"></path>
<path fill="#f58220" style="fill: var(--color10, #f58220)" d="M134.241 28.308c-0.071 0.302-0.067 0.618 0.013 0.917s0.232 0.572 0.442 0.792c0.614-2.187 1.539-4.264 2.743-6.162 2.278-3.402 6.562-8.096 6.562-8.096s-3.579-2.054-6.792-2.7c-3.213-0.646-7.837-1.024-7.837-1.024-0.133 0.352-0.157 0.74-0.069 1.107s0.284 0.697 0.56 0.942l5.538 4.968c0.245 0.221 0.426 0.508 0.525 0.829s0.111 0.666 0.035 0.995l-1.719 7.433z"></path>
<path fill="#fbae1a" style="fill: var(--color12, #fbae1a)" d="M137.439 23.854c2.147-3.204 6.103-7.564 6.521-8.052-5.622 0.915-7.921 3.686-7.921 3.686l-0.173 0.307c0.131 0.349 0.154 0.732 0.068 1.095l-1.693 7.433c-0.071 0.302-0.067 0.618 0.013 0.917s0.232 0.572 0.442 0.792c0.612-2.193 1.537-4.276 2.743-6.179z"></path>
<path fill="#f4ee72" style="fill: var(--color9, #f4ee72)" d="M134.983 29.085c1.117-2.691 2.61-5.192 4.431-7.422 2.921-3.549 4.582-5.297 4.582-5.297 2.414 2.398 4.551 5.084 6.369 8.003 2.481 4.229 2.842 5.335 2.842 5.335-0.825-2.707-1.956-5.3-3.37-7.723-1.523-2.564-3.348-4.916-5.434-7l-1.196 0.389c0 0-7.221 8.068-8.224 13.716z"></path>
<path fill="#fcd01e" style="fill: var(--color11, #fcd01e)" d="M144.419 14.986l-1.197 0.389c0 0-7.237 8.063-8.239 13.71 1.117-2.691 2.61-5.193 4.431-7.422 2.921-3.549 4.582-5.297 4.582-5.297l0.423-1.38z"></path>
<path fill="#fff" style="fill: var(--color1, #fff)" d="M129.743 12.067c0 0 3.067 0.104 7.127 0.548 2.218 0.177 4.386 0.781 6.395 1.78 0 0 0.267-5.576 0.481-8.819s0.215-4.075 0.215-4.075 0.36 8.392 0.444 10.55c0.083 2.158 0.319 2.344 0.319 2.344l-0.763 1.424c0 0-3.349-2.536-14.217-3.752z"></path>
<path fill="#fff" style="fill: var(--color1, #fff)" d="M158.683 12.138c0.003 0.022 0.003 0.044 0 0.066 0.003-0.022 0.003-0.044 0-0.066z"></path>
<path fill="#fff" style="fill: var(--color1, #fff)" d="M158.631 12.034c-0.114-0.325-0.315-0.609-0.58-0.817s-0.58-0.331-0.909-0.356l-7.263-0.613c-0.357-0.029-0.697-0.174-0.972-0.416 0 0-2.555 1.095-4.932 5.916 0 0 3.584-2.054 6.792-2.7s7.675-0.997 7.864-1.013z"></path>
<path fill="#fff" style="fill: var(--color1, #fff)" d="M158.757 12.494c0.002 0.011 0.002 0.022 0 0.033 0.002-0.011 0.002-0.022 0-0.033z"></path>
<path fill="#8e381e" style="fill: var(--color8, #8e381e)" d="M146.347 16.328l5.669 3.999c0.015-0.244 0.075-0.482 0.18-0.7s0.249-0.412 0.427-0.571l0.266-0.241c-0.753-0.564-1.571-1.026-2.435-1.375-1.321-0.543-2.7-0.917-4.107-1.112z"></path>
<path fill="#8e381e" style="fill: var(--color8, #8e381e)" d="M144.79 26.259c-0.158-0.302-0.283-0.622-0.371-0.953-0.136-0.581-0.324-7.345-0.324-7.345s-0.157 6.184-0.272 7.192c-0.011 0.203-0.063 0.402-0.153 0.582s-0.216 0.339-0.369 0.464c0.237-0.107 0.493-0.158 0.751-0.147s0.51 0.081 0.738 0.207z"></path>
<path fill="#8e381e" style="fill: var(--color8, #8e381e)" d="M202.521 12.001c-0.185-0.587-0.533-1.103-0.997-1.483s-1.027-0.607-1.615-0.653l-7.268-0.608c-0.095-0.008-0.187-0.044-0.264-0.103s-0.138-0.139-0.175-0.231l-2.785-7.011c-0.227-0.567-0.609-1.052-1.098-1.392s-1.063-0.521-1.651-0.52c-0.587-0.002-1.163 0.179-1.653 0.519s-0.873 0.825-1.101 1.393l-2.801 7.011c-0.037 0.092-0.097 0.173-0.175 0.231s-0.169 0.094-0.264 0.103l-7.268 0.602c-0.585 0.045-1.143 0.271-1.605 0.65s-0.806 0.893-0.989 1.477c-0.182 0.584-0.195 1.212-0.037 1.804s0.481 1.121 0.927 1.52l5.539 4.93c0.073 0.066 0.128 0.152 0.157 0.249s0.033 0.2 0.010 0.299l-1.714 7.384c-0.139 0.597-0.104 1.224 0.1 1.8s0.567 1.075 1.044 1.432c0.477 0.362 1.046 0.568 1.634 0.592s1.171-0.134 1.673-0.455l6.218-3.955c0.079-0.048 0.169-0.073 0.261-0.073s0.181 0.025 0.261 0.073l6.223 3.96c0.502 0.319 1.083 0.477 1.671 0.452s1.155-0.229 1.631-0.589c0.477-0.357 0.84-0.856 1.044-1.432s0.239-1.203 0.1-1.8l-1.641-7.384c-0.023-0.099-0.020-0.202 0.010-0.299s0.084-0.183 0.157-0.249l5.539-4.93c0.448-0.395 0.773-0.922 0.933-1.513s0.148-1.218-0.034-1.801z"></path>
<path fill="#f4ee72" style="fill: var(--color9, #f4ee72)" d="M193.795 30.307l-6.217-3.988c-0.275-0.177-0.592-0.271-0.915-0.271s-0.639 0.094-0.914 0.271l-6.223 3.982c-0.295 0.186-0.636 0.276-0.981 0.26s-0.676-0.138-0.955-0.351c-0.278-0.213-0.491-0.506-0.611-0.845s-0.143-0.706-0.065-1.058l1.693-7.433c0.076-0.329 0.064-0.673-0.035-0.995s-0.28-0.609-0.525-0.829l-5.538-4.968c-0.261-0.237-0.451-0.55-0.543-0.899s-0.085-0.719 0.023-1.064c0.107-0.345 0.309-0.648 0.58-0.873s0.599-0.361 0.944-0.391l7.263-0.608c0.321-0.027 0.63-0.146 0.891-0.346s0.465-0.47 0.587-0.783l2.795-7.055c0.133-0.335 0.357-0.622 0.645-0.824s0.627-0.309 0.973-0.309 0.685 0.108 0.973 0.309c0.288 0.202 0.512 0.488 0.645 0.824l2.801 7.061c0.127 0.307 0.332 0.571 0.593 0.765s0.567 0.308 0.886 0.331l7.262 0.614c0.345 0.028 0.675 0.164 0.947 0.389s0.474 0.529 0.581 0.875c0.107 0.345 0.114 0.716 0.019 1.066s-0.285 0.662-0.549 0.897l-5.533 4.995c-0.246 0.22-0.429 0.506-0.53 0.828s-0.114 0.666-0.040 0.996l1.693 7.433c0.078 0.353 0.056 0.722-0.065 1.061s-0.334 0.634-0.613 0.847c-0.279 0.213-0.613 0.335-0.957 0.35s-0.687-0.076-0.983-0.264z"></path>
<path fill="#f58220" style="fill: var(--color10, #f58220)" d="M194.051 23.394c-2.79-3.489-7.425-7.592-7.425-7.592s-5.183 4.146-7.346 7.362c-1.321 2.011-1.993 4.412-1.917 6.852 0.275 0.3 0.64 0.491 1.033 0.543s0.793-0.039 1.129-0.258l6.223-3.982c0.275-0.177 0.591-0.271 0.914-0.271s0.639 0.094 0.915 0.271l6.217 3.988c0.391 0.252 0.861 0.332 1.307 0.223s0.835-0.397 1.081-0.804c-0.020-2.3-0.77-4.528-2.132-6.332z"></path>
<path fill="#fcd01e" style="fill: var(--color11, #fcd01e)" d="M186.626 0.937c-0.338 0.006-0.667 0.117-0.945 0.317s-0.495 0.483-0.622 0.811l-2.801 7.055c-0.123 0.313-0.327 0.584-0.587 0.783s-0.569 0.319-0.891 0.346l-7.263 0.608c-0.431 0.033-0.835 0.232-1.134 0.56s-0.47 0.761-0.48 1.214c1.317 0.389 2.774 0.712 3.991 1.041 3.626 0.98 10.743 2.131 10.743 2.131l-0.011-14.866z"></path>
<path fill="#f58220" style="fill: var(--color10, #f58220)" d="M196.423 28.308c0.071 0.301 0.067 0.617-0.012 0.916s-0.229 0.572-0.437 0.793c-0.618-2.186-1.545-4.263-2.749-6.162-2.278-3.402-6.557-8.096-6.557-8.096s3.585-2.054 6.793-2.7c3.208-0.646 7.879-1.024 7.879-1.024 0.127 0.356 0.145 0.745 0.051 1.112s-0.294 0.695-0.574 0.937l-5.533 4.968c-0.246 0.22-0.429 0.506-0.528 0.828s-0.112 0.667-0.036 0.996l1.703 7.433z"></path>
<path fill="#fcd01e" style="fill: var(--color11, #fcd01e)" d="M193.225 23.854c-2.153-3.204-6.108-7.564-6.521-8.052 5.617 0.915 7.921 3.686 7.921 3.686l0.173 0.307c-0.132 0.348-0.157 0.731-0.073 1.095l1.698 7.433c0.071 0.302 0.067 0.618-0.013 0.917s-0.232 0.572-0.442 0.792c-0.612-2.193-1.537-4.276-2.743-6.179z"></path>
<path fill="#f58220" style="fill: var(--color10, #f58220)" d="M176.908 28.308c-0.071 0.302-0.067 0.618 0.013 0.917s0.232 0.572 0.442 0.792c0.614-2.187 1.539-4.264 2.743-6.162 2.278-3.402 6.562-8.096 6.562-8.096s-3.579-2.054-6.792-2.7c-3.213-0.646-7.837-1.024-7.837-1.024-0.133 0.352-0.157 0.74-0.069 1.107s0.284 0.697 0.56 0.942l5.538 4.968c0.245 0.221 0.426 0.508 0.525 0.829s0.111 0.666 0.035 0.995l-1.719 7.433z"></path>
<path fill="#fbae1a" style="fill: var(--color12, #fbae1a)" d="M180.105 23.854c2.147-3.204 6.103-7.564 6.521-8.052-5.622 0.915-7.921 3.686-7.921 3.686l-0.173 0.307c0.131 0.349 0.154 0.732 0.068 1.095l-1.693 7.433c-0.071 0.302-0.067 0.618 0.013 0.917s0.232 0.572 0.442 0.792c0.612-2.193 1.537-4.276 2.743-6.179z"></path>
<path fill="#f4ee72" style="fill: var(--color9, #f4ee72)" d="M177.65 29.085c1.117-2.691 2.61-5.192 4.431-7.422 2.921-3.549 4.582-5.297 4.582-5.297 2.414 2.398 4.551 5.084 6.369 8.003 2.481 4.229 2.842 5.335 2.842 5.335-0.825-2.707-1.956-5.3-3.37-7.723-1.523-2.564-3.348-4.916-5.434-7l-1.196 0.389c0 0-7.221 8.068-8.224 13.716z"></path>
<path fill="#fcd01e" style="fill: var(--color11, #fcd01e)" d="M187.086 14.986l-1.197 0.389c0 0-7.237 8.063-8.239 13.71 1.117-2.691 2.61-5.193 4.431-7.422 2.921-3.549 4.582-5.297 4.582-5.297l0.423-1.38z"></path>
<path fill="#fff" style="fill: var(--color1, #fff)" d="M172.409 12.067c0 0 3.067 0.104 7.127 0.548 2.218 0.177 4.386 0.781 6.395 1.78 0 0 0.267-5.576 0.481-8.819s0.215-4.075 0.215-4.075 0.36 8.392 0.444 10.55c0.083 2.158 0.319 2.344 0.319 2.344l-0.763 1.424c0 0-3.349-2.536-14.217-3.752z"></path>
<path fill="#fff" style="fill: var(--color1, #fff)" d="M201.35 12.138c0.003 0.022 0.003 0.044 0 0.066 0.003-0.022 0.003-0.044 0-0.066z"></path>
<path fill="#fff" style="fill: var(--color1, #fff)" d="M201.298 12.034c-0.114-0.325-0.315-0.609-0.58-0.817s-0.58-0.331-0.909-0.356l-7.263-0.613c-0.357-0.029-0.697-0.174-0.972-0.416 0 0-2.555 1.095-4.932 5.916 0 0 3.584-2.054 6.792-2.7s7.675-0.997 7.864-1.013z"></path>
<path fill="#fff" style="fill: var(--color1, #fff)" d="M201.423 12.494c0.002 0.011 0.002 0.022 0 0.033 0.002-0.011 0.002-0.022 0-0.033z"></path>
<path fill="#8e381e" style="fill: var(--color8, #8e381e)" d="M189.014 16.328l5.669 3.999c0.015-0.244 0.075-0.482 0.18-0.7s0.249-0.412 0.427-0.571l0.266-0.241c-0.753-0.564-1.571-1.026-2.435-1.375-1.321-0.543-2.7-0.917-4.107-1.112z"></path>
<path fill="#8e381e" style="fill: var(--color8, #8e381e)" d="M187.457 26.259c-0.158-0.302-0.283-0.622-0.371-0.953-0.136-0.581-0.324-7.345-0.324-7.345s-0.157 6.184-0.272 7.192c-0.011 0.203-0.063 0.402-0.153 0.582s-0.216 0.339-0.369 0.464c0.237-0.107 0.493-0.158 0.751-0.147s0.51 0.081 0.738 0.207z"></path>
</symbol>
</defs>
</svg>
