<svg width="304" height="48" viewBox="0 0 304 48" fill="none" xmlns="http://www.w3.org/2000/svg">
<path d="M47.7807 18.0019C47.5027 17.1216 46.9821 16.3474 46.2846 15.7771C45.5872 15.2067 44.7442 14.8659 43.862 14.7976L32.9603 13.8856C32.8173 13.8732 32.6803 13.8199 32.5643 13.7315C32.4482 13.6432 32.3575 13.5231 32.302 13.3844L28.1247 2.8675C27.7843 2.0163 27.2112 1.28978 26.4776 0.779491C25.744 0.269204 24.8827 -0.00201098 24.0023 1.81351e-05C23.1208 -0.00255307 22.2582 0.268341 21.5233 0.778595C20.7883 1.28885 20.2138 2.01565 19.872 2.8675L15.6712 13.3844C15.6157 13.5231 15.525 13.6432 15.4089 13.7315C15.2929 13.8199 15.1559 13.8732 15.0129 13.8856L4.11117 14.7893C3.23407 14.8568 2.39589 15.1961 1.70314 15.7641C1.01038 16.3321 0.494314 17.1032 0.22049 17.9794C-0.0533333 18.8555 -0.0725505 19.7972 0.16528 20.6849C0.403111 21.5725 0.887254 22.366 1.5562 22.9646L9.86376 30.3592C9.97411 30.4583 10.056 30.5877 10.1003 30.7328C10.1446 30.8778 10.1495 31.033 10.1146 31.1809L7.54391 42.2564C7.33596 43.1517 7.38829 44.0918 7.69416 44.9557C8.00003 45.8196 8.54547 46.5678 9.26029 47.104C9.97592 47.6468 10.8286 47.9559 11.7112 47.9925C12.5938 48.029 13.4671 47.7914 14.2213 47.3094L23.5477 41.3773C23.6669 41.3051 23.802 41.2672 23.9396 41.2672C24.0771 41.2672 24.2123 41.3051 24.3314 41.3773L33.6657 47.3176C34.4194 47.7968 35.291 48.0328 36.1718 47.9963C37.0525 47.9598 37.9036 47.6523 38.6189 47.1122C39.3337 46.576 39.8791 45.8278 40.185 44.9639C40.4909 44.1 40.5432 43.1599 40.3352 42.2646L37.8743 31.1891C37.8394 31.0412 37.8443 30.8861 37.8886 30.741C37.9329 30.5959 38.0148 30.4665 38.1251 30.3674L46.4327 22.9728C47.1046 22.3796 47.5919 21.5893 47.8321 20.7036C48.0723 19.8178 48.0544 18.8769 47.7807 18.0019Z" fill="#8E381E"/>
<path d="M34.6921 45.4608L25.3657 39.4793C24.9532 39.2133 24.4785 39.0725 23.9942 39.0725C23.5099 39.0725 23.0351 39.2133 22.6227 39.4793L13.2884 45.4526C12.8451 45.7309 12.3335 45.8664 11.8173 45.8421C11.3011 45.8179 10.8032 45.6349 10.3854 45.3161C9.96769 44.9973 9.64865 44.5567 9.46805 44.0491C9.28745 43.5416 9.25326 42.9896 9.36975 42.4618L11.909 31.3123C12.0232 30.8196 12.0054 30.3033 11.8574 29.8205C11.7094 29.3377 11.4371 28.9071 11.0704 28.5763L2.7629 21.1241C2.37071 20.7686 2.08737 20.2996 1.9484 19.7759C1.80943 19.2522 1.82102 18.6972 1.98171 18.1804C2.14241 17.6635 2.44506 17.208 2.85172 16.8708C3.25837 16.5335 3.75094 16.3297 4.26766 16.2847L15.1615 15.3727C15.6441 15.3324 16.1067 15.153 16.4981 14.8543C16.8896 14.5556 17.1946 14.1493 17.3795 13.6802L21.5725 3.09759C21.7712 2.59464 22.1077 2.16476 22.5394 1.86232C22.9712 1.55987 23.4788 1.39845 23.9981 1.39845C24.5174 1.39845 25.025 1.55987 25.4568 1.86232C25.8885 2.16476 26.225 2.59464 26.4237 3.09759L30.6245 13.6884C30.8155 14.1488 31.1233 14.5454 31.5143 14.8352C31.9054 15.1249 32.3648 15.2966 32.8425 15.3316L43.7364 16.2519C44.2544 16.2945 44.7487 16.4973 45.1567 16.8347C45.5647 17.172 45.868 17.6287 46.0283 18.1468C46.1886 18.665 46.1986 19.2214 46.0571 19.7456C45.9156 20.2697 45.6289 20.738 45.2333 21.0913L36.9336 28.5845C36.5649 28.9141 36.2901 29.3438 36.1393 29.8266C35.9886 30.3093 35.9678 30.8263 36.0793 31.3206L38.6186 42.4701C38.7365 42.999 38.7029 43.5526 38.5221 44.0616C38.3413 44.5706 38.0213 45.0124 37.6022 45.3316C37.183 45.6509 36.6834 45.8334 36.1657 45.8564C35.6481 45.8794 35.1355 45.7418 34.6921 45.4608Z" fill="#F4EE72"/>
<path d="M35.0765 35.0915C30.8914 29.8577 23.9397 23.7037 23.9397 23.7037C23.9397 23.7037 16.165 29.9234 12.9204 34.7464C10.9382 37.7622 9.93017 41.3645 10.0441 45.025C10.4568 45.4744 11.004 45.762 11.5944 45.8397C12.1848 45.9175 12.7828 45.7807 13.2887 45.4522L22.623 39.479C23.0355 39.213 23.5102 39.0721 23.9945 39.0721C24.4788 39.0721 24.9536 39.213 25.366 39.479L34.6925 45.4604C35.2788 45.8379 35.9834 45.9582 36.6537 45.7952C37.324 45.6322 37.9061 45.199 38.2741 44.5895C38.2444 41.139 37.1194 37.7971 35.0765 35.0915Z" fill="#F58220"/>
<path d="M23.9393 1.40484C23.4323 1.41424 22.9391 1.5797 22.5211 1.88063C22.103 2.18157 21.7786 2.60469 21.5881 3.09739L17.3873 13.68C17.2024 14.1491 16.8974 14.5554 16.506 14.8541C16.1146 15.1528 15.652 15.3322 15.1694 15.3725L4.27549 16.2846C3.62843 16.3334 3.02191 16.6331 2.57418 17.1252C2.12645 17.6174 1.86962 18.2667 1.85376 18.9466C3.82876 19.53 6.01537 20.0148 7.84147 20.5077C13.2806 21.9784 23.955 23.7039 23.955 23.7039L23.9393 1.40484Z" fill="#FCD01E"/>
<path d="M38.6347 42.4615C38.7411 42.9136 38.7349 43.3867 38.6169 43.8355C38.4989 44.2844 38.273 44.6939 37.9607 45.025C37.0337 41.7457 35.6442 38.6301 33.8383 35.7817C30.4212 30.6793 24.0024 23.638 24.0024 23.638C24.0024 23.638 29.3788 20.5569 34.1909 19.5873C39.0031 18.6178 46.0096 18.0509 46.0096 18.0509C46.2008 18.5848 46.228 19.168 46.0875 19.719C45.947 20.27 45.6457 20.7611 45.2259 21.1238L36.9262 28.576C36.5574 28.9053 36.2831 29.3354 36.1336 29.8184C35.9842 30.3015 35.9655 30.8185 36.0797 31.312L38.6347 42.4615Z" fill="#F58220"/>
<path d="M33.8379 35.7816C30.6089 30.9751 24.676 24.4349 24.0569 23.7037C32.482 25.0758 35.9383 29.2333 35.9383 29.2333L36.1969 29.6934C35.9991 30.2161 35.9608 30.7902 36.0872 31.3366L38.6343 42.4861C38.7412 42.9388 38.7346 43.4127 38.6151 43.8619C38.4957 44.3111 38.2674 44.7203 37.9524 45.0496C37.0341 41.7606 35.6469 38.636 33.8379 35.7816Z" fill="#FCD01E"/>
<path d="M9.36193 42.4615C9.25501 42.9142 9.26161 43.3881 9.38109 43.8373C9.50057 44.2865 9.72886 44.6957 10.0438 45.025C10.9643 41.7446 12.3515 38.6284 14.1584 35.7817C17.5754 30.6793 24.002 23.638 24.002 23.638C24.002 23.638 18.6335 20.5569 13.8135 19.5873C8.99357 18.6178 2.05755 18.0509 2.05755 18.0509C1.8587 18.5796 1.82282 19.1603 1.95496 19.7114C2.08709 20.2626 2.3806 20.7565 2.79426 21.1238L11.1018 28.576C11.4684 28.9068 11.7408 29.3373 11.8888 29.8201C12.0367 30.3029 12.0546 30.8192 11.9404 31.312L9.36193 42.4615Z" fill="#F58220"/>
<path d="M14.1582 35.7816C17.3793 30.9751 23.3121 24.4349 23.9391 23.7037C15.5062 25.0758 12.0578 29.2333 12.0578 29.2333L11.7991 29.6934C11.9948 30.2168 12.0304 30.791 11.901 31.3366L9.36172 42.4861C9.25481 42.9388 9.26141 43.4127 9.38089 43.8619C9.50036 44.3111 9.72866 44.7203 10.0436 45.0496C10.9619 41.7606 12.3491 38.636 14.1582 35.7816Z" fill="#FBAE1A"/>
<path d="M10.4746 43.6282C12.1501 39.5917 14.3901 35.8394 17.1207 32.4951C21.5017 27.171 23.994 24.55 23.994 24.55C27.6146 28.1466 30.821 32.1754 33.5477 36.554C37.2704 42.8969 37.8112 44.5566 37.8112 44.5566C36.5745 40.4968 34.8773 36.6073 32.7561 32.9717C30.4723 29.1252 27.7337 25.5971 24.6053 22.4713L22.8105 23.0546C22.8105 23.0546 11.9794 35.1572 10.4746 43.6282Z" fill="#F4EE72"/>
<path d="M24.6288 22.4792L22.8341 23.0626C22.8341 23.0626 11.9794 35.157 10.4746 43.628C12.1501 39.5914 14.3901 35.8392 17.1207 32.4949C21.5017 27.1707 23.994 24.5497 23.994 24.5497L24.6288 22.4792Z" fill="#FCD01E"/>
<path d="M2.6145 18.0998C2.6145 18.0998 7.215 18.2559 13.3046 18.9215C16.6313 19.1877 19.883 20.0928 22.8975 21.5918C22.8975 21.5918 23.2972 13.2276 23.6185 8.3635C23.9398 3.49945 23.9398 2.25056 23.9398 2.25056C23.9398 2.25056 24.4806 14.838 24.606 18.0752C24.7314 21.3124 25.0841 21.5918 25.0841 21.5918L23.9398 23.728C23.9398 23.728 18.9161 19.9239 2.6145 18.0998Z" fill="white"/>
<path d="M46.0251 18.2073C46.0285 18.2401 46.0285 18.2732 46.0251 18.3059C46.0285 18.2732 46.0285 18.2401 46.0251 18.2073Z" fill="white"/>
<path d="M45.9466 18.0514C45.7755 17.5637 45.4737 17.1384 45.0774 16.8264C44.6811 16.5145 44.2073 16.3292 43.7129 16.2931L32.8191 15.3728C32.2828 15.3297 31.773 15.1113 31.3613 14.7484C31.3613 14.7484 27.5289 16.3917 23.9629 23.622C23.9629 23.622 29.3393 20.5409 34.1514 19.5714C38.9635 18.6018 45.6644 18.076 45.9466 18.0514Z" fill="white"/>
<path d="M46.1345 18.7409C46.1382 18.7571 46.1382 18.774 46.1345 18.7902C46.1382 18.774 46.1382 18.7571 46.1345 18.7409Z" fill="white"/>
<path d="M27.521 24.4924L36.0245 30.4903C36.0458 30.1247 36.1373 29.7675 36.2935 29.4399C36.4497 29.1124 36.6675 28.8213 36.9336 28.5841L37.3333 28.2226C36.2041 27.3759 34.9769 26.6829 33.6811 26.1603C31.6997 25.3451 29.6312 24.7851 27.521 24.4924Z" fill="#8E381E"/>
<path d="M25.1853 39.3889C24.9482 38.9362 24.7614 38.4566 24.6288 37.9592C24.4251 37.0883 24.1429 26.9412 24.1429 26.9412C24.1429 26.9412 23.9078 36.2174 23.7354 37.7292C23.7189 38.0342 23.6405 38.332 23.5053 38.6026C23.3701 38.8733 23.1814 39.1105 22.9517 39.2985C23.3067 39.1375 23.6917 39.062 24.0783 39.0776C24.4648 39.0933 24.8431 39.1996 25.1853 39.3889Z" fill="#8E381E"/>
<path d="M111.781 18.0019C111.503 17.1216 110.982 16.3474 110.285 15.7771C109.587 15.2067 108.744 14.8659 107.862 14.7976L96.9603 13.8856C96.8173 13.8732 96.6803 13.8199 96.5643 13.7315C96.4482 13.6432 96.3575 13.5231 96.302 13.3844L92.1247 2.8675C91.7843 2.0163 91.2112 1.28978 90.4776 0.779491C89.744 0.269204 88.8827 -0.00201098 88.0023 1.81351e-05C87.1208 -0.00255307 86.2582 0.268341 85.5233 0.778595C84.7883 1.28885 84.2138 2.01565 83.872 2.8675L79.6712 13.3844C79.6157 13.5231 79.525 13.6432 79.4089 13.7315C79.2929 13.8199 79.1559 13.8732 79.0129 13.8856L68.1112 14.7893C67.2341 14.8568 66.3959 15.1961 65.7031 15.7641C65.0104 16.3321 64.4943 17.1032 64.2205 17.9794C63.9467 18.8555 63.9274 19.7972 64.1653 20.6849C64.4031 21.5725 64.8873 22.366 65.5562 22.9646L73.8638 30.3592C73.9741 30.4583 74.056 30.5877 74.1003 30.7328C74.1446 30.8778 74.1495 31.033 74.1146 31.1809L71.5439 42.2564C71.336 43.1517 71.3883 44.0918 71.6942 44.9557C72 45.8196 72.5455 46.5678 73.2603 47.104C73.9759 47.6468 74.8286 47.9559 75.7112 47.9925C76.5938 48.029 77.4671 47.7914 78.2213 47.3094L87.5477 41.3773C87.6669 41.3051 87.802 41.2672 87.9396 41.2672C88.0771 41.2672 88.2123 41.3051 88.3314 41.3773L97.6657 47.3176C98.4194 47.7968 99.291 48.0328 100.172 47.9963C101.053 47.9598 101.904 47.6523 102.619 47.1122C103.334 46.576 103.879 45.8278 104.185 44.9639C104.491 44.1 104.543 43.1599 104.335 42.2646L101.874 31.1891C101.839 31.0412 101.844 30.8861 101.889 30.741C101.933 30.5959 102.015 30.4665 102.125 30.3674L110.433 22.9728C111.105 22.3796 111.592 21.5893 111.832 20.7036C112.072 19.8178 112.054 18.8769 111.781 18.0019Z" fill="#8E381E"/>
<path d="M98.6921 45.4608L89.3657 39.4793C88.9532 39.2133 88.4785 39.0725 87.9942 39.0725C87.5099 39.0725 87.0351 39.2133 86.6227 39.4793L77.2884 45.4526C76.8451 45.7309 76.3335 45.8664 75.8173 45.8421C75.3011 45.8179 74.8032 45.6349 74.3854 45.3161C73.9677 44.9973 73.6487 44.5567 73.468 44.0491C73.2874 43.5416 73.2533 42.9896 73.3698 42.4618L75.909 31.3123C76.0232 30.8196 76.0054 30.3033 75.8574 29.8205C75.7094 29.3377 75.4371 28.9071 75.0704 28.5763L66.7629 21.1241C66.3707 20.7686 66.0874 20.2996 65.9484 19.7759C65.8094 19.2522 65.821 18.6972 65.9817 18.1804C66.1424 17.6635 66.4451 17.208 66.8517 16.8708C67.2584 16.5335 67.7509 16.3297 68.2677 16.2847L79.1615 15.3727C79.6441 15.3324 80.1067 15.153 80.4981 14.8543C80.8896 14.5556 81.1946 14.1493 81.3795 13.6802L85.5725 3.09759C85.7712 2.59464 86.1077 2.16476 86.5394 1.86232C86.9712 1.55987 87.4788 1.39845 87.9981 1.39845C88.5174 1.39845 89.025 1.55987 89.4568 1.86232C89.8885 2.16476 90.225 2.59464 90.4237 3.09759L94.6245 13.6884C94.8155 14.1488 95.1233 14.5454 95.5143 14.8352C95.9054 15.1249 96.3648 15.2966 96.8425 15.3316L107.736 16.2519C108.254 16.2945 108.749 16.4973 109.157 16.8347C109.565 17.172 109.868 17.6287 110.028 18.1468C110.189 18.665 110.199 19.2214 110.057 19.7456C109.916 20.2697 109.629 20.738 109.233 21.0913L100.934 28.5845C100.565 28.9141 100.29 29.3438 100.139 29.8266C99.9886 30.3093 99.9678 30.8263 100.079 31.3206L102.619 42.4701C102.736 42.999 102.703 43.5526 102.522 44.0616C102.341 44.5706 102.021 45.0124 101.602 45.3316C101.183 45.6509 100.683 45.8334 100.166 45.8564C99.6481 45.8794 99.1355 45.7418 98.6921 45.4608Z" fill="#F4EE72"/>
<path d="M99.0765 35.0915C94.8914 29.8577 87.9397 23.7037 87.9397 23.7037C87.9397 23.7037 80.165 29.9234 76.9204 34.7464C74.9382 37.7622 73.9302 41.3645 74.0441 45.025C74.4568 45.4744 75.004 45.762 75.5944 45.8397C76.1848 45.9175 76.7828 45.7807 77.2887 45.4522L86.623 39.479C87.0355 39.213 87.5102 39.0721 87.9945 39.0721C88.4788 39.0721 88.9536 39.213 89.366 39.479L98.6925 45.4604C99.2788 45.8379 99.9834 45.9582 100.654 45.7952C101.324 45.6322 101.906 45.199 102.274 44.5895C102.244 41.139 101.119 37.7971 99.0765 35.0915Z" fill="#F58220"/>
<path d="M87.9393 1.40484C87.4323 1.41424 86.9391 1.5797 86.5211 1.88063C86.103 2.18157 85.7786 2.60469 85.5881 3.09739L81.3873 13.68C81.2024 14.1491 80.8974 14.5554 80.506 14.8541C80.1146 15.1528 79.652 15.3322 79.1694 15.3725L68.2755 16.2846C67.6284 16.3334 67.0219 16.6331 66.5742 17.1252C66.1265 17.6174 65.8696 18.2667 65.8538 18.9466C67.8288 19.53 70.0154 20.0148 71.8415 20.5077C77.2806 21.9784 87.955 23.7039 87.955 23.7039L87.9393 1.40484Z" fill="#FCD01E"/>
<path d="M102.635 42.4615C102.741 42.9136 102.735 43.3867 102.617 43.8355C102.499 44.2844 102.273 44.6939 101.961 45.025C101.034 41.7457 99.6442 38.6301 97.8383 35.7817C94.4212 30.6793 88.0024 23.638 88.0024 23.638C88.0024 23.638 93.3788 20.5569 98.1909 19.5873C103.003 18.6178 110.01 18.0509 110.01 18.0509C110.201 18.5848 110.228 19.168 110.087 19.719C109.947 20.27 109.646 20.7611 109.226 21.1238L100.926 28.576C100.557 28.9053 100.283 29.3354 100.134 29.8184C99.9842 30.3015 99.9655 30.8185 100.08 31.312L102.635 42.4615Z" fill="#F58220"/>
<path d="M97.8379 35.7816C94.6089 30.9751 88.676 24.4349 88.0569 23.7037C96.482 25.0758 99.9383 29.2333 99.9383 29.2333L100.197 29.6934C99.9991 30.2161 99.9608 30.7902 100.087 31.3366L102.634 42.4861C102.741 42.9388 102.735 43.4127 102.615 43.8619C102.496 44.3111 102.267 44.7203 101.952 45.0496C101.034 41.7606 99.6469 38.636 97.8379 35.7816Z" fill="#FCD01E"/>
<path d="M73.3619 42.4615C73.255 42.9142 73.2616 43.3881 73.3811 43.8373C73.5006 44.2865 73.7289 44.6957 74.0438 45.025C74.9643 41.7446 76.3515 38.6284 78.1584 35.7817C81.5754 30.6793 88.002 23.638 88.002 23.638C88.002 23.638 82.6335 20.5569 77.8135 19.5873C72.9936 18.6178 66.0576 18.0509 66.0576 18.0509C65.8587 18.5796 65.8228 19.1603 65.955 19.7114C66.0871 20.2626 66.3806 20.7565 66.7943 21.1238L75.1018 28.576C75.4684 28.9068 75.7408 29.3373 75.8888 29.8201C76.0367 30.3029 76.0546 30.8192 75.9404 31.312L73.3619 42.4615Z" fill="#F58220"/>
<path d="M78.1582 35.7816C81.3793 30.9751 87.3121 24.4349 87.9391 23.7037C79.5062 25.0758 76.0578 29.2333 76.0578 29.2333L75.7991 29.6934C75.9948 30.2168 76.0304 30.791 75.901 31.3366L73.3617 42.4861C73.2548 42.9388 73.2614 43.4127 73.3809 43.8619C73.5004 44.3111 73.7287 44.7203 74.0436 45.0496C74.9619 41.7606 76.3491 38.636 78.1582 35.7816Z" fill="#FBAE1A"/>
<path d="M74.4746 43.6282C76.1501 39.5917 78.3901 35.8394 81.1207 32.4951C85.5017 27.171 87.994 24.55 87.994 24.55C91.6146 28.1466 94.821 32.1754 97.5477 36.554C101.27 42.8969 101.811 44.5566 101.811 44.5566C100.574 40.4968 98.8773 36.6073 96.7561 32.9717C94.4723 29.1252 91.7337 25.5971 88.6053 22.4713L86.8105 23.0546C86.8105 23.0546 75.9794 35.1572 74.4746 43.6282Z" fill="#F4EE72"/>
<path d="M88.6288 22.4792L86.8341 23.0626C86.8341 23.0626 75.9794 35.157 74.4746 43.628C76.1501 39.5914 78.3901 35.8392 81.1207 32.4949C85.5017 27.1707 87.994 24.5497 87.994 24.5497L88.6288 22.4792Z" fill="#FCD01E"/>
<path d="M66.6145 18.0998C66.6145 18.0998 71.215 18.2559 77.3046 18.9215C80.6313 19.1877 83.883 20.0928 86.8975 21.5918C86.8975 21.5918 87.2972 13.2276 87.6185 8.3635C87.9398 3.49945 87.9398 2.25056 87.9398 2.25056C87.9398 2.25056 88.4806 14.838 88.606 18.0752C88.7314 21.3124 89.0841 21.5918 89.0841 21.5918L87.9398 23.728C87.9398 23.728 82.9161 19.9239 66.6145 18.0998Z" fill="white"/>
<path d="M110.025 18.2073C110.029 18.2401 110.029 18.2732 110.025 18.3059C110.029 18.2732 110.029 18.2401 110.025 18.2073Z" fill="white"/>
<path d="M109.947 18.0514C109.776 17.5637 109.474 17.1384 109.077 16.8264C108.681 16.5145 108.207 16.3292 107.713 16.2931L96.8191 15.3728C96.2828 15.3297 95.773 15.1113 95.3613 14.7484C95.3613 14.7484 91.5289 16.3917 87.9629 23.622C87.9629 23.622 93.3393 20.5409 98.1514 19.5714C102.964 18.6018 109.664 18.076 109.947 18.0514Z" fill="white"/>
<path d="M110.135 18.7409C110.138 18.7571 110.138 18.774 110.135 18.7902C110.138 18.774 110.138 18.7571 110.135 18.7409Z" fill="white"/>
<path d="M91.521 24.4924L100.024 30.4903C100.046 30.1247 100.137 29.7675 100.294 29.4399C100.45 29.1124 100.667 28.8213 100.934 28.5841L101.333 28.2226C100.204 27.3759 98.9769 26.6829 97.6811 26.1603C95.6997 25.3451 93.6312 24.7851 91.521 24.4924Z" fill="#8E381E"/>
<path d="M89.1853 39.3889C88.9482 38.9362 88.7614 38.4566 88.6288 37.9592C88.4251 37.0883 88.1429 26.9412 88.1429 26.9412C88.1429 26.9412 87.9078 36.2174 87.7354 37.7292C87.7189 38.0342 87.6405 38.332 87.5053 38.6026C87.3701 38.8733 87.1814 39.1105 86.9517 39.2985C87.3067 39.1375 87.6917 39.062 88.0783 39.0776C88.4648 39.0933 88.8431 39.1996 89.1853 39.3889Z" fill="#8E381E"/>
<path d="M175.781 18.0019C175.503 17.1216 174.982 16.3474 174.285 15.7771C173.587 15.2067 172.744 14.8659 171.862 14.7976L160.96 13.8856C160.817 13.8732 160.68 13.8199 160.564 13.7315C160.448 13.6432 160.357 13.5231 160.302 13.3844L156.125 2.8675C155.784 2.0163 155.211 1.28978 154.478 0.779491C153.744 0.269204 152.883 -0.00201098 152.002 1.81351e-05C151.121 -0.00255307 150.258 0.268341 149.523 0.778595C148.788 1.28885 148.214 2.01565 147.872 2.8675L143.671 13.3844C143.616 13.5231 143.525 13.6432 143.409 13.7315C143.293 13.8199 143.156 13.8732 143.013 13.8856L132.111 14.7893C131.234 14.8568 130.396 15.1961 129.703 15.7641C129.01 16.3321 128.494 17.1032 128.22 17.9794C127.947 18.8555 127.927 19.7972 128.165 20.6849C128.403 21.5725 128.887 22.366 129.556 22.9646L137.864 30.3592C137.974 30.4583 138.056 30.5877 138.1 30.7328C138.145 30.8778 138.15 31.033 138.115 31.1809L135.544 42.2564C135.336 43.1517 135.388 44.0918 135.694 44.9557C136 45.8196 136.545 46.5678 137.26 47.104C137.976 47.6468 138.829 47.9559 139.711 47.9925C140.594 48.029 141.467 47.7914 142.221 47.3094L151.548 41.3773C151.667 41.3051 151.802 41.2672 151.94 41.2672C152.077 41.2672 152.212 41.3051 152.331 41.3773L161.666 47.3176C162.419 47.7968 163.291 48.0328 164.172 47.9963C165.053 47.9598 165.904 47.6523 166.619 47.1122C167.334 46.576 167.879 45.8278 168.185 44.9639C168.491 44.1 168.543 43.1599 168.335 42.2646L165.874 31.1891C165.839 31.0412 165.844 30.8861 165.889 30.741C165.933 30.5959 166.015 30.4665 166.125 30.3674L174.433 22.9728C175.105 22.3796 175.592 21.5893 175.832 20.7036C176.072 19.8178 176.054 18.8769 175.781 18.0019Z" fill="#8E381E"/>
<path d="M162.692 45.4608L153.366 39.4793C152.953 39.2133 152.478 39.0725 151.994 39.0725C151.51 39.0725 151.035 39.2133 150.623 39.4793L141.288 45.4526C140.845 45.7309 140.334 45.8664 139.817 45.8421C139.301 45.8179 138.803 45.6349 138.385 45.3161C137.968 44.9973 137.649 44.5567 137.468 44.0491C137.287 43.5416 137.253 42.9896 137.37 42.4618L139.909 31.3123C140.023 30.8196 140.005 30.3033 139.857 29.8205C139.709 29.3377 139.437 28.9071 139.07 28.5763L130.763 21.1241C130.371 20.7686 130.087 20.2996 129.948 19.7759C129.809 19.2522 129.821 18.6972 129.982 18.1804C130.142 17.6635 130.445 17.208 130.852 16.8708C131.258 16.5335 131.751 16.3297 132.268 16.2847L143.162 15.3727C143.644 15.3324 144.107 15.153 144.498 14.8543C144.89 14.5556 145.195 14.1493 145.379 13.6802L149.572 3.09759C149.771 2.59464 150.108 2.16476 150.539 1.86232C150.971 1.55987 151.479 1.39845 151.998 1.39845C152.517 1.39845 153.025 1.55987 153.457 1.86232C153.889 2.16476 154.225 2.59464 154.424 3.09759L158.625 13.6884C158.816 14.1488 159.123 14.5454 159.514 14.8352C159.905 15.1249 160.365 15.2966 160.843 15.3316L171.736 16.2519C172.254 16.2945 172.749 16.4973 173.157 16.8347C173.565 17.172 173.868 17.6287 174.028 18.1468C174.189 18.665 174.199 19.2214 174.057 19.7456C173.916 20.2697 173.629 20.738 173.233 21.0913L164.934 28.5845C164.565 28.9141 164.29 29.3438 164.139 29.8266C163.989 30.3093 163.968 30.8263 164.079 31.3206L166.619 42.4701C166.736 42.999 166.703 43.5526 166.522 44.0616C166.341 44.5706 166.021 45.0124 165.602 45.3316C165.183 45.6509 164.683 45.8334 164.166 45.8564C163.648 45.8794 163.136 45.7418 162.692 45.4608Z" fill="#F4EE72"/>
<path d="M163.076 35.0915C158.891 29.8577 151.94 23.7037 151.94 23.7037C151.94 23.7037 144.165 29.9234 140.92 34.7464C138.938 37.7622 137.93 41.3645 138.044 45.025C138.457 45.4744 139.004 45.762 139.594 45.8397C140.185 45.9175 140.783 45.7807 141.289 45.4522L150.623 39.479C151.035 39.213 151.51 39.0721 151.995 39.0721C152.479 39.0721 152.954 39.213 153.366 39.479L162.692 45.4604C163.279 45.8379 163.983 45.9582 164.654 45.7952C165.324 45.6322 165.906 45.199 166.274 44.5895C166.244 41.139 165.119 37.7971 163.076 35.0915Z" fill="#F58220"/>
<path d="M151.939 1.40484C151.432 1.41424 150.939 1.5797 150.521 1.88063C150.103 2.18157 149.779 2.60469 149.588 3.09739L145.387 13.68C145.202 14.1491 144.897 14.5554 144.506 14.8541C144.115 15.1528 143.652 15.3322 143.169 15.3725L132.275 16.2846C131.628 16.3334 131.022 16.6331 130.574 17.1252C130.126 17.6174 129.87 18.2667 129.854 18.9466C131.829 19.53 134.015 20.0148 135.841 20.5077C141.281 21.9784 151.955 23.7039 151.955 23.7039L151.939 1.40484Z" fill="#FCD01E"/>
<path d="M166.635 42.4615C166.741 42.9136 166.735 43.3867 166.617 43.8355C166.499 44.2844 166.273 44.6939 165.961 45.025C165.034 41.7457 163.644 38.6301 161.838 35.7817C158.421 30.6793 152.002 23.638 152.002 23.638C152.002 23.638 157.379 20.5569 162.191 19.5873C167.003 18.6178 174.01 18.0509 174.01 18.0509C174.201 18.5848 174.228 19.168 174.087 19.719C173.947 20.27 173.646 20.7611 173.226 21.1238L164.926 28.576C164.557 28.9053 164.283 29.3354 164.134 29.8184C163.984 30.3015 163.966 30.8185 164.08 31.312L166.635 42.4615Z" fill="#F58220"/>
<path d="M161.838 35.7816C158.609 30.9751 152.676 24.4349 152.057 23.7037C160.482 25.0758 163.938 29.2333 163.938 29.2333L164.197 29.6934C163.999 30.2161 163.961 30.7902 164.087 31.3366L166.634 42.4861C166.741 42.9388 166.735 43.4127 166.615 43.8619C166.496 44.3111 166.267 44.7203 165.952 45.0496C165.034 41.7606 163.647 38.636 161.838 35.7816Z" fill="#FCD01E"/>
<path d="M137.362 42.4615C137.255 42.9142 137.262 43.3881 137.381 43.8373C137.501 44.2865 137.729 44.6957 138.044 45.025C138.964 41.7446 140.351 38.6284 142.158 35.7817C145.575 30.6793 152.002 23.638 152.002 23.638C152.002 23.638 146.633 20.5569 141.814 19.5873C136.994 18.6178 130.058 18.0509 130.058 18.0509C129.859 18.5796 129.823 19.1603 129.955 19.7114C130.087 20.2626 130.381 20.7565 130.794 21.1238L139.102 28.576C139.468 28.9068 139.741 29.3373 139.889 29.8201C140.037 30.3029 140.055 30.8192 139.94 31.312L137.362 42.4615Z" fill="#F58220"/>
<path d="M142.158 35.7816C145.379 30.9751 151.312 24.4349 151.939 23.7037C143.506 25.0758 140.058 29.2333 140.058 29.2333L139.799 29.6934C139.995 30.2168 140.03 30.791 139.901 31.3366L137.362 42.4861C137.255 42.9388 137.261 43.4127 137.381 43.8619C137.5 44.3111 137.729 44.7203 138.044 45.0496C138.962 41.7606 140.349 38.636 142.158 35.7816Z" fill="#FBAE1A"/>
<path d="M138.475 43.6282C140.15 39.5917 142.39 35.8394 145.121 32.4951C149.502 27.171 151.994 24.55 151.994 24.55C155.615 28.1466 158.821 32.1754 161.548 36.554C165.27 42.8969 165.811 44.5566 165.811 44.5566C164.574 40.4968 162.877 36.6073 160.756 32.9717C158.472 29.1252 155.734 25.5971 152.605 22.4713L150.811 23.0546C150.811 23.0546 139.979 35.1572 138.475 43.6282Z" fill="#F4EE72"/>
<path d="M152.629 22.4792L150.834 23.0626C150.834 23.0626 139.979 35.157 138.475 43.628C140.15 39.5914 142.39 35.8392 145.121 32.4949C149.502 27.1707 151.994 24.5497 151.994 24.5497L152.629 22.4792Z" fill="#FCD01E"/>
<path d="M130.615 18.0998C130.615 18.0998 135.215 18.2559 141.305 18.9215C144.631 19.1877 147.883 20.0928 150.897 21.5918C150.897 21.5918 151.297 13.2276 151.618 8.3635C151.94 3.49945 151.94 2.25056 151.94 2.25056C151.94 2.25056 152.481 14.838 152.606 18.0752C152.731 21.3124 153.084 21.5918 153.084 21.5918L151.94 23.728C151.94 23.728 146.916 19.9239 130.615 18.0998Z" fill="white"/>
<path d="M174.025 18.2073C174.029 18.2401 174.029 18.2732 174.025 18.3059C174.029 18.2732 174.029 18.2401 174.025 18.2073Z" fill="white"/>
<path d="M173.947 18.0514C173.776 17.5637 173.474 17.1384 173.077 16.8264C172.681 16.5145 172.207 16.3292 171.713 16.2931L160.819 15.3728C160.283 15.3297 159.773 15.1113 159.361 14.7484C159.361 14.7484 155.529 16.3917 151.963 23.622C151.963 23.622 157.339 20.5409 162.151 19.5714C166.964 18.6018 173.664 18.076 173.947 18.0514Z" fill="white"/>
<path d="M174.135 18.7409C174.138 18.7571 174.138 18.774 174.135 18.7902C174.138 18.774 174.138 18.7571 174.135 18.7409Z" fill="white"/>
<path d="M155.521 24.4924L164.024 30.4903C164.046 30.1247 164.137 29.7675 164.294 29.4399C164.45 29.1124 164.667 28.8213 164.934 28.5841L165.333 28.2226C164.204 27.3759 162.977 26.6829 161.681 26.1603C159.7 25.3451 157.631 24.7851 155.521 24.4924Z" fill="#8E381E"/>
<path d="M153.185 39.3889C152.948 38.9362 152.761 38.4566 152.629 37.9592C152.425 37.0883 152.143 26.9412 152.143 26.9412C152.143 26.9412 151.908 36.2174 151.735 37.7292C151.719 38.0342 151.64 38.332 151.505 38.6026C151.37 38.8733 151.181 39.1105 150.952 39.2985C151.307 39.1375 151.692 39.062 152.078 39.0776C152.465 39.0933 152.843 39.1996 153.185 39.3889Z" fill="#8E381E"/>
<path d="M239.781 18.0019C239.503 17.1216 238.982 16.3474 238.285 15.7771C237.587 15.2067 236.744 14.8659 235.862 14.7976L224.96 13.8856C224.817 13.8732 224.68 13.8199 224.564 13.7315C224.448 13.6432 224.357 13.5231 224.302 13.3844L220.125 2.8675C219.784 2.0163 219.211 1.28978 218.478 0.779491C217.744 0.269204 216.883 -0.00201098 216.002 1.81351e-05C215.121 -0.00255307 214.258 0.268341 213.523 0.778595C212.788 1.28885 212.214 2.01565 211.872 2.8675L207.671 13.3844C207.616 13.5231 207.525 13.6432 207.409 13.7315C207.293 13.8199 207.156 13.8732 207.013 13.8856L196.111 14.7893C195.234 14.8568 194.396 15.1961 193.703 15.7641C193.01 16.3321 192.494 17.1032 192.22 17.9794C191.947 18.8555 191.927 19.7972 192.165 20.6849C192.403 21.5725 192.887 22.366 193.556 22.9646L201.864 30.3592C201.974 30.4583 202.056 30.5877 202.1 30.7328C202.145 30.8778 202.15 31.033 202.115 31.1809L199.544 42.2564C199.336 43.1517 199.388 44.0918 199.694 44.9557C200 45.8196 200.545 46.5678 201.26 47.104C201.976 47.6468 202.829 47.9559 203.711 47.9925C204.594 48.029 205.467 47.7914 206.221 47.3094L215.548 41.3773C215.667 41.3051 215.802 41.2672 215.94 41.2672C216.077 41.2672 216.212 41.3051 216.331 41.3773L225.666 47.3176C226.419 47.7968 227.291 48.0328 228.172 47.9963C229.053 47.9598 229.904 47.6523 230.619 47.1122C231.334 46.576 231.879 45.8278 232.185 44.9639C232.491 44.1 232.543 43.1599 232.335 42.2646L229.874 31.1891C229.839 31.0412 229.844 30.8861 229.889 30.741C229.933 30.5959 230.015 30.4665 230.125 30.3674L238.433 22.9728C239.105 22.3796 239.592 21.5893 239.832 20.7036C240.072 19.8178 240.054 18.8769 239.781 18.0019Z" fill="#8E381E"/>
<path d="M226.692 45.4608L217.366 39.4793C216.953 39.2133 216.478 39.0725 215.994 39.0725C215.51 39.0725 215.035 39.2133 214.623 39.4793L205.288 45.4526C204.845 45.7309 204.334 45.8664 203.817 45.8421C203.301 45.8179 202.803 45.6349 202.385 45.3161C201.968 44.9973 201.649 44.5567 201.468 44.0491C201.287 43.5416 201.253 42.9896 201.37 42.4618L203.909 31.3123C204.023 30.8196 204.005 30.3033 203.857 29.8205C203.709 29.3377 203.437 28.9071 203.07 28.5763L194.763 21.1241C194.371 20.7686 194.087 20.2996 193.948 19.7759C193.809 19.2522 193.821 18.6972 193.982 18.1804C194.142 17.6635 194.445 17.208 194.852 16.8708C195.258 16.5335 195.751 16.3297 196.268 16.2847L207.162 15.3727C207.644 15.3324 208.107 15.153 208.498 14.8543C208.89 14.5556 209.195 14.1493 209.379 13.6802L213.572 3.09759C213.771 2.59464 214.108 2.16476 214.539 1.86232C214.971 1.55987 215.479 1.39845 215.998 1.39845C216.517 1.39845 217.025 1.55987 217.457 1.86232C217.889 2.16476 218.225 2.59464 218.424 3.09759L222.625 13.6884C222.816 14.1488 223.123 14.5454 223.514 14.8352C223.905 15.1249 224.365 15.2966 224.843 15.3316L235.736 16.2519C236.254 16.2945 236.749 16.4973 237.157 16.8347C237.565 17.172 237.868 17.6287 238.028 18.1468C238.189 18.665 238.199 19.2214 238.057 19.7456C237.916 20.2697 237.629 20.738 237.233 21.0913L228.934 28.5845C228.565 28.9141 228.29 29.3438 228.139 29.8266C227.989 30.3093 227.968 30.8263 228.079 31.3206L230.619 42.4701C230.736 42.999 230.703 43.5526 230.522 44.0616C230.341 44.5706 230.021 45.0124 229.602 45.3316C229.183 45.6509 228.683 45.8334 228.166 45.8564C227.648 45.8794 227.136 45.7418 226.692 45.4608Z" fill="#F4EE72"/>
<path d="M227.076 35.0915C222.891 29.8577 215.94 23.7037 215.94 23.7037C215.94 23.7037 208.165 29.9234 204.92 34.7464C202.938 37.7622 201.93 41.3645 202.044 45.025C202.457 45.4744 203.004 45.762 203.594 45.8397C204.185 45.9175 204.783 45.7807 205.289 45.4522L214.623 39.479C215.035 39.213 215.51 39.0721 215.995 39.0721C216.479 39.0721 216.954 39.213 217.366 39.479L226.692 45.4604C227.279 45.8379 227.983 45.9582 228.654 45.7952C229.324 45.6322 229.906 45.199 230.274 44.5895C230.244 41.139 229.119 37.7971 227.076 35.0915Z" fill="#F58220"/>
<path d="M215.939 1.40484C215.432 1.41424 214.939 1.5797 214.521 1.88063C214.103 2.18157 213.779 2.60469 213.588 3.09739L209.387 13.68C209.202 14.1491 208.897 14.5554 208.506 14.8541C208.115 15.1528 207.652 15.3322 207.169 15.3725L196.275 16.2846C195.628 16.3334 195.022 16.6331 194.574 17.1252C194.126 17.6174 193.87 18.2667 193.854 18.9466C195.829 19.53 198.015 20.0148 199.841 20.5077C205.281 21.9784 215.955 23.7039 215.955 23.7039L215.939 1.40484Z" fill="#FCD01E"/>
<path d="M230.635 42.4615C230.741 42.9136 230.735 43.3867 230.617 43.8355C230.499 44.2844 230.273 44.6939 229.961 45.025C229.034 41.7457 227.644 38.6301 225.838 35.7817C222.421 30.6793 216.002 23.638 216.002 23.638C216.002 23.638 221.379 20.5569 226.191 19.5873C231.003 18.6178 238.01 18.0509 238.01 18.0509C238.201 18.5848 238.228 19.168 238.087 19.719C237.947 20.27 237.646 20.7611 237.226 21.1238L228.926 28.576C228.557 28.9053 228.283 29.3354 228.134 29.8184C227.984 30.3015 227.966 30.8185 228.08 31.312L230.635 42.4615Z" fill="#F58220"/>
<path d="M225.838 35.7816C222.609 30.9751 216.676 24.4349 216.057 23.7037C224.482 25.0758 227.938 29.2333 227.938 29.2333L228.197 29.6934C227.999 30.2161 227.961 30.7902 228.087 31.3366L230.634 42.4861C230.741 42.9388 230.735 43.4127 230.615 43.8619C230.496 44.3111 230.267 44.7203 229.952 45.0496C229.034 41.7606 227.647 38.636 225.838 35.7816Z" fill="#FCD01E"/>
<path d="M201.362 42.4615C201.255 42.9142 201.262 43.3881 201.381 43.8373C201.501 44.2865 201.729 44.6957 202.044 45.025C202.964 41.7446 204.351 38.6284 206.158 35.7817C209.575 30.6793 216.002 23.638 216.002 23.638C216.002 23.638 210.633 20.5569 205.814 19.5873C200.994 18.6178 194.058 18.0509 194.058 18.0509C193.859 18.5796 193.823 19.1603 193.955 19.7114C194.087 20.2626 194.381 20.7565 194.794 21.1238L203.102 28.576C203.468 28.9068 203.741 29.3373 203.889 29.8201C204.037 30.3029 204.055 30.8192 203.94 31.312L201.362 42.4615Z" fill="#F58220"/>
<path d="M206.158 35.7816C209.379 30.9751 215.312 24.4349 215.939 23.7037C207.506 25.0758 204.058 29.2333 204.058 29.2333L203.799 29.6934C203.995 30.2168 204.03 30.791 203.901 31.3366L201.362 42.4861C201.255 42.9388 201.261 43.4127 201.381 43.8619C201.5 44.3111 201.729 44.7203 202.044 45.0496C202.962 41.7606 204.349 38.636 206.158 35.7816Z" fill="#FBAE1A"/>
<path d="M202.475 43.6282C204.15 39.5917 206.39 35.8394 209.121 32.4951C213.502 27.171 215.994 24.55 215.994 24.55C219.615 28.1466 222.821 32.1754 225.548 36.554C229.27 42.8969 229.811 44.5566 229.811 44.5566C228.574 40.4968 226.877 36.6073 224.756 32.9717C222.472 29.1252 219.734 25.5971 216.605 22.4713L214.811 23.0546C214.811 23.0546 203.979 35.1572 202.475 43.6282Z" fill="#F4EE72"/>
<path d="M216.629 22.4792L214.834 23.0626C214.834 23.0626 203.979 35.157 202.475 43.628C204.15 39.5914 206.39 35.8392 209.121 32.4949C213.502 27.1707 215.994 24.5497 215.994 24.5497L216.629 22.4792Z" fill="#FCD01E"/>
<path d="M194.615 18.0998C194.615 18.0998 199.215 18.2559 205.305 18.9215C208.631 19.1877 211.883 20.0928 214.897 21.5918C214.897 21.5918 215.297 13.2276 215.618 8.3635C215.94 3.49945 215.94 2.25056 215.94 2.25056C215.94 2.25056 216.481 14.838 216.606 18.0752C216.731 21.3124 217.084 21.5918 217.084 21.5918L215.94 23.728C215.94 23.728 210.916 19.9239 194.615 18.0998Z" fill="white"/>
<path d="M238.025 18.2073C238.029 18.2401 238.029 18.2732 238.025 18.3059C238.029 18.2732 238.029 18.2401 238.025 18.2073Z" fill="white"/>
<path d="M237.947 18.0514C237.776 17.5637 237.474 17.1384 237.077 16.8264C236.681 16.5145 236.207 16.3292 235.713 16.2931L224.819 15.3728C224.283 15.3297 223.773 15.1113 223.361 14.7484C223.361 14.7484 219.529 16.3917 215.963 23.622C215.963 23.622 221.339 20.5409 226.151 19.5714C230.964 18.6018 237.664 18.076 237.947 18.0514Z" fill="white"/>
<path d="M238.135 18.7409C238.138 18.7571 238.138 18.774 238.135 18.7902C238.138 18.774 238.138 18.7571 238.135 18.7409Z" fill="white"/>
<path d="M219.521 24.4924L228.024 30.4903C228.046 30.1247 228.137 29.7675 228.294 29.4399C228.45 29.1124 228.667 28.8213 228.934 28.5841L229.333 28.2226C228.204 27.3759 226.977 26.6829 225.681 26.1603C223.7 25.3451 221.631 24.7851 219.521 24.4924Z" fill="#8E381E"/>
<path d="M217.185 39.3889C216.948 38.9362 216.761 38.4566 216.629 37.9592C216.425 37.0883 216.143 26.9412 216.143 26.9412C216.143 26.9412 215.908 36.2174 215.735 37.7292C215.719 38.0342 215.64 38.332 215.505 38.6026C215.37 38.8733 215.181 39.1105 214.952 39.2985C215.307 39.1375 215.692 39.062 216.078 39.0776C216.465 39.0933 216.843 39.1996 217.185 39.3889Z" fill="#8E381E"/>
<path d="M303.781 18.0019C303.503 17.1216 302.982 16.3474 302.285 15.7771C301.587 15.2067 300.744 14.8659 299.862 14.7976L288.96 13.8856C288.817 13.8732 288.68 13.8199 288.564 13.7315C288.448 13.6432 288.357 13.5231 288.302 13.3844L284.125 2.8675C283.784 2.0163 283.211 1.28978 282.478 0.779491C281.744 0.269204 280.883 -0.00201098 280.002 1.81351e-05C279.121 -0.00255307 278.258 0.268341 277.523 0.778595C276.788 1.28885 276.214 2.01565 275.872 2.8675L271.671 13.3844C271.616 13.5231 271.525 13.6432 271.409 13.7315C271.293 13.8199 271.156 13.8732 271.013 13.8856L260.111 14.7893C259.234 14.8568 258.396 15.1961 257.703 15.7641C257.01 16.3321 256.494 17.1032 256.22 17.9794C255.947 18.8555 255.927 19.7972 256.165 20.6849C256.403 21.5725 256.887 22.366 257.556 22.9646L265.864 30.3592C265.974 30.4583 266.056 30.5877 266.1 30.7328C266.145 30.8778 266.15 31.033 266.115 31.1809L263.544 42.2564C263.336 43.1517 263.388 44.0918 263.694 44.9557C264 45.8196 264.545 46.5678 265.26 47.104C265.976 47.6468 266.829 47.9559 267.711 47.9925C268.594 48.029 269.467 47.7914 270.221 47.3094L279.548 41.3773C279.667 41.3051 279.802 41.2672 279.94 41.2672C280.077 41.2672 280.212 41.3051 280.331 41.3773L289.666 47.3176C290.419 47.7968 291.291 48.0328 292.172 47.9963C293.053 47.9598 293.904 47.6523 294.619 47.1122C295.334 46.576 295.879 45.8278 296.185 44.9639C296.491 44.1 296.543 43.1599 296.335 42.2646L293.874 31.1891C293.839 31.0412 293.844 30.8861 293.889 30.741C293.933 30.5959 294.015 30.4665 294.125 30.3674L302.433 22.9728C303.105 22.3796 303.592 21.5893 303.832 20.7036C304.072 19.8178 304.054 18.8769 303.781 18.0019Z" fill="#8E381E"/>
<path d="M290.692 45.4608L281.366 39.4793C280.953 39.2133 280.478 39.0725 279.994 39.0725C279.51 39.0725 279.035 39.2133 278.623 39.4793L269.288 45.4526C268.845 45.7309 268.334 45.8664 267.817 45.8421C267.301 45.8179 266.803 45.6349 266.385 45.3161C265.968 44.9973 265.649 44.5567 265.468 44.0491C265.287 43.5416 265.253 42.9896 265.37 42.4618L267.909 31.3123C268.023 30.8196 268.005 30.3033 267.857 29.8205C267.709 29.3377 267.437 28.9071 267.07 28.5763L258.763 21.1241C258.371 20.7686 258.087 20.2996 257.948 19.7759C257.809 19.2522 257.821 18.6972 257.982 18.1804C258.142 17.6635 258.445 17.208 258.852 16.8708C259.258 16.5335 259.751 16.3297 260.268 16.2847L271.162 15.3727C271.644 15.3324 272.107 15.153 272.498 14.8543C272.89 14.5556 273.195 14.1493 273.379 13.6802L277.572 3.09759C277.771 2.59464 278.108 2.16476 278.539 1.86232C278.971 1.55987 279.479 1.39845 279.998 1.39845C280.517 1.39845 281.025 1.55987 281.457 1.86232C281.889 2.16476 282.225 2.59464 282.424 3.09759L286.625 13.6884C286.816 14.1488 287.123 14.5454 287.514 14.8352C287.905 15.1249 288.365 15.2966 288.843 15.3316L299.736 16.2519C300.254 16.2945 300.749 16.4973 301.157 16.8347C301.565 17.172 301.868 17.6287 302.028 18.1468C302.189 18.665 302.199 19.2214 302.057 19.7456C301.916 20.2697 301.629 20.738 301.233 21.0913L292.934 28.5845C292.565 28.9141 292.29 29.3438 292.139 29.8266C291.989 30.3093 291.968 30.8263 292.079 31.3206L294.619 42.4701C294.736 42.999 294.703 43.5526 294.522 44.0616C294.341 44.5706 294.021 45.0124 293.602 45.3316C293.183 45.6509 292.683 45.8334 292.166 45.8564C291.648 45.8794 291.136 45.7418 290.692 45.4608Z" fill="white"/>
<path d="M291.076 35.0915C286.891 29.8577 279.94 23.7037 279.94 23.7037C279.94 23.7037 272.165 29.9234 268.92 34.7464C266.938 37.7622 265.93 41.3645 266.044 45.025C266.457 45.4744 267.004 45.762 267.594 45.8397C268.185 45.9175 268.783 45.7807 269.289 45.4522L278.623 39.479C279.035 39.213 279.51 39.0721 279.995 39.0721C280.479 39.0721 280.954 39.213 281.366 39.479L290.692 45.4604C291.279 45.8379 291.983 45.9582 292.654 45.7952C293.324 45.6322 293.906 45.199 294.274 44.5895C294.244 41.139 293.119 37.7971 291.076 35.0915Z" fill="#F58220"/>
<path d="M279.939 1.40484C279.432 1.41424 278.939 1.5797 278.521 1.88063C278.103 2.18157 277.779 2.60469 277.588 3.09739L273.387 13.68C273.202 14.1491 272.897 14.5554 272.506 14.8541C272.115 15.1528 271.652 15.3322 271.169 15.3725L260.275 16.2846C259.628 16.3334 259.022 16.6331 258.574 17.1252C258.126 17.6174 257.87 18.2667 257.854 18.9466C259.829 19.53 262.015 20.0148 263.841 20.5077C269.281 21.9784 279.955 23.7039 279.955 23.7039L279.939 1.40484Z" fill="white"/>
<path d="M294.635 42.4615C294.741 42.9136 294.735 43.3867 294.617 43.8355C294.499 44.2844 294.273 44.6939 293.961 45.025C293.034 41.7457 291.644 38.6301 289.838 35.7817C286.421 30.6793 280.002 23.638 280.002 23.638C280.002 23.638 285.379 20.5569 290.191 19.5873C295.003 18.6178 302.01 18.0509 302.01 18.0509C302.201 18.5848 302.228 19.168 302.087 19.719C301.947 20.27 301.646 20.7611 301.226 21.1238L292.926 28.576C292.557 28.9053 292.283 29.3354 292.134 29.8184C291.984 30.3015 291.966 30.8185 292.08 31.312L294.635 42.4615Z" fill="white"/>
<path d="M289.838 35.7816C286.609 30.9751 280.676 24.4349 280.057 23.7037C288.482 25.0758 291.938 29.2333 291.938 29.2333L292.197 29.6934C291.999 30.2161 291.961 30.7902 292.087 31.3366L294.634 42.4861C294.741 42.9388 294.735 43.4127 294.615 43.8619C294.496 44.3111 294.267 44.7203 293.952 45.0496C293.034 41.7606 291.647 38.636 289.838 35.7816Z" fill="white"/>
<path d="M265.362 42.4615C265.255 42.9142 265.262 43.3881 265.381 43.8373C265.501 44.2865 265.729 44.6957 266.044 45.025C266.964 41.7446 268.351 38.6284 270.158 35.7817C273.575 30.6793 280.002 23.638 280.002 23.638C280.002 23.638 274.633 20.5569 269.814 19.5873C264.994 18.6178 258.058 18.0509 258.058 18.0509C257.859 18.5796 257.823 19.1603 257.955 19.7114C258.087 20.2626 258.381 20.7565 258.794 21.1238L267.102 28.576C267.468 28.9068 267.741 29.3373 267.889 29.8201C268.037 30.3029 268.055 30.8192 267.94 31.312L265.362 42.4615Z" fill="#F58220"/>
<path d="M270.158 35.7816C273.379 30.9751 279.312 24.4349 279.939 23.7037C271.506 25.0758 268.058 29.2333 268.058 29.2333L267.799 29.6934C267.995 30.2168 268.03 30.791 267.901 31.3366L265.362 42.4861C265.255 42.9388 265.261 43.4127 265.381 43.8619C265.5 44.3111 265.729 44.7203 266.044 45.0496C266.962 41.7606 268.349 38.636 270.158 35.7816Z" fill="#FBAE1A"/>
<path d="M266.475 43.6282C268.15 39.5917 270.39 35.8394 273.121 32.4951C277.502 27.171 279.994 24.55 279.994 24.55C283.615 28.1466 286.821 32.1754 289.548 36.554C293.27 42.8969 293.811 44.5566 293.811 44.5566C292.574 40.4968 290.877 36.6073 288.756 32.9717C286.472 29.1252 283.734 25.5971 280.605 22.4713L278.811 23.0546C278.811 23.0546 267.979 35.1572 266.475 43.6282Z" fill="#FCD01E"/>
<path d="M280.629 22.4792L278.834 23.0626C278.834 23.0626 267.979 35.157 266.475 43.628C268.15 39.5914 270.39 35.8392 273.121 32.4949C277.502 27.1707 279.994 24.5497 279.994 24.5497L280.629 22.4792Z" fill="#FCD01E"/>
<path d="M258.615 18.0998C258.615 18.0998 263.215 18.2559 269.305 18.9215C272.631 19.1877 275.883 20.0928 278.897 21.5918C278.897 21.5918 279.297 13.2276 279.618 8.3635C279.94 3.49945 279.94 2.25056 279.94 2.25056C279.94 2.25056 280.481 14.838 280.606 18.0752C280.731 21.3124 281.084 21.5918 281.084 21.5918L279.94 23.728C279.94 23.728 274.916 19.9239 258.615 18.0998Z" fill="white"/>
<path d="M302.025 18.2073C302.029 18.2401 302.029 18.2732 302.025 18.3059C302.029 18.2732 302.029 18.2401 302.025 18.2073Z" fill="white"/>
<path d="M301.947 18.0514C301.776 17.5637 301.474 17.1384 301.077 16.8264C300.681 16.5145 300.207 16.3292 299.713 16.2931L288.819 15.3728C288.283 15.3297 287.773 15.1113 287.361 14.7484C287.361 14.7484 283.529 16.3917 279.963 23.622C279.963 23.622 285.339 20.5409 290.151 19.5714C294.964 18.6018 301.664 18.076 301.947 18.0514Z" fill="white"/>
<path d="M302.135 18.7409C302.138 18.7571 302.138 18.774 302.135 18.7902C302.138 18.774 302.138 18.7571 302.135 18.7409Z" fill="white"/>
<path d="M283.521 24.4924L292.024 30.4903C292.046 30.1247 292.137 29.7675 292.294 29.4399C292.45 29.1124 292.667 28.8213 292.934 28.5841L293.333 28.2226C292.204 27.3759 290.977 26.6829 289.681 26.1603C287.7 25.3451 285.631 24.7851 283.521 24.4924Z" fill="white"/>
<path d="M281.185 39.3889C280.948 38.9362 280.761 38.4566 280.629 37.9592C280.425 37.0883 280.143 26.9412 280.143 26.9412C280.143 26.9412 279.908 36.2174 279.735 37.7292C279.719 38.0342 279.64 38.332 279.505 38.6026C279.37 38.8733 279.181 39.1105 278.952 39.2985C279.307 39.1375 279.692 39.062 280.078 39.0776C280.465 39.0933 280.843 39.1996 281.185 39.3889Z" fill="#8E381E"/>
</svg>
