<?xml version="1.0" standalone="no"?>
<!DOCTYPE svg PUBLIC "-//W3C//DTD SVG 20010904//EN"
 "http://www.w3.org/TR/2001/REC-SVG-20010904/DTD/svg10.dtd">
<svg version="1.0" xmlns="http://www.w3.org/2000/svg"
 width="1184.000000pt" height="1184.000000pt" viewBox="0 0 1184.000000 1184.000000"
 preserveAspectRatio="xMidYMid meet">
<metadata>
Created by potrace 1.14, written by Peter Selinger 2001-2017
</metadata>
<g transform="translate(0.000000,1184.000000) scale(0.100000,-0.100000)"
fill="#000000" stroke="none">
<path d="M7165 11651 c-3 -3 -16 -6 -28 -8 -75 -7 -228 -49 -282 -76 -22 -11
-41 -19 -43 -18 -9 5 -226 -112 -250 -135 -7 -8 -17 -14 -21 -14 -5 0 -26 -14
-47 -30 -22 -17 -52 -40 -69 -53 -148 -112 -358 -334 -514 -547 -65 -88 -85
-107 -96 -91 -8 14 -104 4 -131 -14 -13 -8 -40 -15 -61 -15 -70 0 -140 -60
-189 -160 -15 -30 -37 -68 -49 -85 -24 -31 -71 -120 -64 -120 9 0 -55 -95 -87
-129 -6 -7 -15 -22 -18 -34 -4 -12 -26 -42 -49 -65 -65 -67 -87 -96 -87 -112
0 -8 -4 -15 -10 -15 -5 0 -14 -18 -20 -40 -6 -22 -22 -52 -36 -67 -36 -38 -47
-68 -50 -138 -4 -112 -13 -125 -76 -122 l-38 3 0 -1714 0 -1713 -32 -13 c-18
-7 -42 -17 -53 -21 -11 -5 -24 -10 -30 -11 -5 -1 -13 -3 -17 -4 -5 -1 -11 -3
-15 -5 -5 -1 -17 -5 -28 -9 -24 -10 -48 -17 -55 -18 -6 0 -74 -25 -105 -38
-11 -5 -65 -23 -120 -41 -55 -17 -106 -36 -112 -42 -7 -5 -13 -7 -13 -3 0 3
-22 -3 -50 -14 -27 -11 -50 -17 -50 -15 0 3 -9 1 -21 -6 -27 -14 -280 -101
-296 -102 -7 0 -13 -4 -13 -9 0 -5 -4 -7 -10 -3 -5 3 -17 1 -27 -5 -10 -5 -90
-34 -178 -64 -88 -30 -179 -61 -202 -70 -24 -8 -43 -13 -43 -10 0 2 -13 -2
-30 -11 -16 -8 -31 -15 -33 -15 -2 0 -3 975 -3 2166 1 1191 -2 2168 -6 2170
-4 2 -31 -7 -62 -20 -30 -13 -57 -22 -60 -18 -3 3 -6 0 -6 -6 0 -7 -5 -12 -11
-12 -6 0 -9 12 -7 27 4 33 -21 42 -46 18 -9 -9 -16 -14 -16 -11 0 3 -25 -5
-55 -19 -30 -13 -55 -21 -55 -18 0 3 -7 -1 -16 -8 -14 -12 -70 -35 -99 -42 -5
-1 -12 -4 -15 -7 -3 -3 -57 -27 -120 -54 -63 -27 -139 -60 -169 -74 -30 -13
-59 -25 -65 -27 -6 -1 -22 -7 -36 -12 -14 -6 -28 -10 -31 -9 -3 0 -12 -4 -20
-10 -8 -6 -66 -33 -129 -59 -63 -27 -125 -55 -137 -63 -13 -8 -23 -11 -23 -7
0 4 -7 1 -17 -6 -9 -8 -19 -13 -22 -13 -8 2 -34 -8 -116 -46 -38 -18 -74 -33
-80 -34 -5 -2 -28 -11 -50 -21 -22 -10 -42 -19 -45 -20 -26 -9 -261 -110 -328
-141 -29 -13 -58 -24 -65 -24 -6 0 -21 -7 -31 -15 -11 -8 -28 -15 -38 -15 -14
0 -18 -8 -18 -34 0 -40 -6 -46 -90 -79 l-65 -26 1 -98 c3 -184 12 -382 18
-392 4 -5 2 -12 -4 -16 -6 -4 -7 -12 -3 -18 4 -6 8 -57 9 -112 1 -55 3 -100 4
-100 0 0 3 -58 5 -130 2 -71 7 -184 10 -250 2 -66 7 -181 10 -255 3 -74 8
-198 11 -275 3 -77 7 -180 9 -230 2 -49 4 -90 4 -90 1 0 4 -72 7 -160 2 -88 7
-200 9 -250 2 -49 7 -164 10 -255 11 -285 21 -524 30 -745 3 -71 8 -186 11
-255 3 -69 7 -183 9 -255 2 -71 4 -130 5 -130 2 0 12 -266 13 -352 1 -46 5
-83 9 -83 4 0 4 -11 -1 -23 -5 -13 -6 -28 -3 -34 4 -6 7 -66 7 -132 0 -67 2
-121 5 -121 3 0 5 -48 5 -108 0 -59 3 -117 7 -130 6 -16 5 -21 -4 -16 -7 5 -8
3 -3 -6 4 -7 9 -60 11 -119 1 -58 5 -167 9 -241 3 -74 8 -191 11 -260 2 -69 6
-177 9 -240 2 -63 7 -173 9 -245 10 -255 17 -411 22 -509 2 -55 7 -170 10
-255 3 -86 7 -196 9 -246 2 -49 6 -153 10 -230 3 -77 8 -201 11 -275 3 -74 7
-184 9 -245 2 -60 4 -113 4 -116 1 -4 29 2 64 13 34 11 69 21 77 23 8 2 28 8
44 14 16 7 31 9 34 6 3 -2 10 -1 16 4 6 5 45 19 86 31 41 11 81 23 88 25 7 3
13 4 15 4 1 0 29 10 62 21 33 12 67 23 75 25 8 2 53 16 100 30 47 15 128 39
180 55 52 15 192 58 310 94 118 37 260 80 315 97 55 17 111 35 125 39 31 11
173 54 180 55 19 4 56 19 60 25 3 5 5 497 4 1095 0 974 1 1087 15 1094 14 7
87 27 134 36 10 3 27 7 37 10 10 3 29 8 42 11 32 7 40 9 63 17 11 3 31 8 45
11 14 3 79 19 145 36 66 18 128 34 138 36 32 7 51 12 287 74 129 33 249 63
265 66 17 3 38 10 48 15 9 5 17 8 17 5 0 -3 15 0 33 5 17 6 39 12 47 14 8 2
53 13 100 25 130 33 122 34 120 -3 -1 -18 -2 -435 -1 -928 l1 -897 28 3 c56 5
158 16 182 20 14 2 51 7 83 10 32 3 72 7 90 10 37 4 136 16 186 21 19 2 48 5
65 8 17 3 60 7 96 11 36 3 81 8 100 10 99 13 129 16 170 21 25 2 61 6 80 9 19
3 62 7 95 10 33 2 60 5 60 6 0 0 11 2 25 4 14 1 49 5 78 9 115 13 159 18 197
21 22 2 40 4 40 5 0 1 20 4 45 5 25 2 45 4 45 5 0 1 16 3 35 5 37 3 88 9 230
26 47 6 101 12 120 14 19 1 55 5 80 9 25 3 68 8 95 11 52 6 107 12 185 21 25
2 61 6 80 8 19 2 60 7 90 11 55 7 95 11 181 19 25 3 63 7 85 10 21 3 63 8 93
11 59 6 74 14 94 51 6 13 24 41 38 61 26 36 86 129 217 333 34 52 65 100 69
105 22 28 63 96 63 104 0 5 4 11 8 13 7 2 37 45 97 139 5 9 17 27 26 40 9 13
35 53 57 89 23 36 45 70 49 75 5 6 20 28 33 50 13 22 28 42 32 43 4 2 8 8 8
13 0 5 22 41 48 81 27 40 91 138 142 218 52 80 97 147 100 150 8 8 29 43 39
65 5 11 21 34 35 50 14 17 26 33 26 36 0 6 13 27 81 129 143 217 239 364 239
367 0 3 11 19 25 37 14 18 25 38 25 44 0 7 4 12 9 12 5 0 14 14 21 30 7 17 16
30 20 30 3 0 13 12 21 27 11 21 105 167 168 263 6 8 28 42 49 75 22 33 62 95
91 138 28 43 51 83 51 88 0 5 4 9 8 9 5 0 15 12 23 27 17 31 193 303 208 320
6 7 11 17 11 23 0 5 5 10 10 10 6 0 10 7 10 15 0 8 5 15 11 15 5 0 7 5 4 10
-3 6 1 13 9 16 9 3 16 12 16 20 0 8 4 14 10 14 5 0 9 3 8 8 -2 4 5 18 15 32
10 14 46 68 79 120 127 197 172 265 180 268 4 2 8 8 8 13 0 6 22 43 49 83 l49
73 -66 13 c-37 8 -74 16 -82 18 -8 2 -22 5 -30 6 -14 3 -84 18 -102 22 -5 1
-18 2 -31 3 -13 0 -32 7 -42 15 -19 13 -18 15 9 55 16 23 27 44 24 46 -5 5
-126 29 -203 40 -16 3 -41 7 -55 10 -14 3 -41 8 -60 10 -19 3 -46 8 -58 11
-13 3 -42 7 -64 10 -46 7 -73 12 -73 14 0 2 -35 9 -75 14 -19 2 -46 7 -60 10
-14 3 -38 8 -55 10 -16 3 -40 7 -51 10 -12 2 -39 7 -60 10 -64 10 -148 25
-169 29 -11 3 -63 12 -115 21 -52 9 -108 19 -125 22 -16 3 -39 7 -50 8 -11 2
-36 6 -55 10 -19 4 -48 9 -65 11 -16 2 -30 4 -30 5 0 1 -10 3 -21 6 -24 4 -40
-10 -46 -41 -3 -16 -11 -20 -42 -20 -35 0 -40 -3 -51 -35 -7 -19 -19 -48 -25
-65 -7 -16 -14 -34 -16 -40 -2 -9 -70 -182 -97 -245 -5 -14 -11 -29 -13 -35
-8 -27 -37 -103 -53 -139 -10 -23 -38 -93 -62 -156 -24 -63 -46 -117 -49 -120
-3 -3 -6 -12 -8 -20 -2 -8 -33 -89 -69 -180 -36 -91 -72 -186 -82 -212 -15
-44 -37 -64 -38 -35 -1 6 -19 58 -41 114 -22 56 -37 104 -34 107 3 4 0 6 -6 6
-7 0 -12 6 -12 14 0 7 -9 35 -19 62 -11 27 -34 87 -51 134 -18 47 -42 110 -53
140 -12 30 -22 57 -22 60 0 3 -18 50 -39 105 -21 55 -55 145 -76 200 -21 55
-64 170 -95 255 -32 85 -63 169 -70 185 -7 17 -23 57 -34 90 -12 33 -25 67
-28 75 -3 8 -7 17 -8 20 -1 3 -4 12 -8 20 -3 8 -19 51 -35 95 -23 63 -34 81
-51 83 -12 2 -28 -2 -36 -8 -11 -9 -16 -4 -26 25 -14 37 -10 37 -84 14 -16 -5
-70 -20 -120 -35 -49 -14 -117 -34 -150 -44 -65 -20 -134 -39 -150 -41 -5 -1
-31 -9 -56 -20 -26 -10 -49 -16 -52 -13 -3 3 -19 -2 -36 -11 -18 -9 -36 -13
-41 -10 -6 3 -10 1 -10 -6 0 -7 -3 -10 -6 -6 -3 3 -24 -1 -46 -9 -22 -8 -49
-14 -60 -14 -16 0 -17 3 -8 20 10 19 57 155 65 190 2 8 4 16 5 18 2 1 4 7 5
12 1 6 4 12 5 15 1 3 4 10 5 15 1 6 4 12 5 15 1 3 4 10 5 15 1 6 4 12 5 15 1
3 4 10 5 15 1 6 3 11 5 13 1 1 3 13 4 25 2 13 7 27 12 30 5 4 10 16 12 27 7
43 66 214 72 205 3 -5 5 -27 4 -49 0 -23 2 -41 6 -41 4 0 8 -18 8 -40 0 -21 8
-55 18 -75 17 -36 70 -85 92 -85 6 0 26 -9 44 -20 36 -21 93 -31 196 -34 63
-3 126 17 157 48 8 8 28 20 45 28 16 7 30 16 30 20 0 5 7 8 15 8 8 0 15 4 15
9 0 5 16 26 35 47 42 46 71 98 78 140 2 16 21 55 40 86 36 55 65 151 71 235 6
80 -10 151 -49 208 -20 30 -40 55 -46 55 -17 0 -9 21 24 63 17 23 37 47 44 55
7 7 27 33 44 57 18 25 36 45 41 45 4 0 8 4 8 10 0 8 95 146 110 160 4 3 30 41
58 85 29 44 58 88 64 97 42 62 100 157 110 181 7 15 16 27 20 27 4 0 8 4 8 9
0 4 18 41 41 82 22 41 41 79 42 84 1 6 4 12 7 15 8 8 60 114 60 122 0 4 13 35
30 70 32 67 70 173 70 194 0 7 5 25 12 41 13 34 13 31 31 118 9 39 18 95 22
125 3 30 8 69 10 85 5 38 6 236 1 295 -15 183 -62 364 -137 525 -61 132 -204
310 -314 390 -22 16 -43 33 -46 38 -3 5 -10 9 -15 9 -5 1 -26 12 -46 24 -21
13 -40 24 -43 24 -3 0 -24 9 -48 19 -61 28 -135 50 -141 43 -3 -3 -6 -1 -6 4
0 5 -8 11 -17 12 -39 6 -343 9 -348 3z m272 -3186 c-2 -31 -7 -58 -10 -62 -8
-7 -26 38 -21 52 28 82 37 85 31 10z m-607 -355 c0 -5 -5 -10 -11 -10 -5 0 -7
5 -4 10 3 6 8 10 11 10 2 0 4 -4 4 -10z m568 -26 c-1 -5 -9 -9 -16 -10 -10 -2
-11 1 -1 12 12 14 24 13 17 -2z m-615 -12 c5 -7 12 -10 17 -7 5 3 11 1 15 -5
3 -5 0 -10 -8 -10 -11 0 -14 -15 -13 -70 1 -38 -1 -65 -5 -59 -4 8 -8 7 -11
-2 -4 -12 -8 -12 -22 0 -9 8 -15 19 -13 26 3 6 -1 19 -9 29 -12 17 -12 65 1
103 5 14 38 12 48 -5z m587 -27 c0 -8 -4 -15 -10 -15 -5 0 -7 7 -4 15 4 8 8
15 10 15 2 0 4 -7 4 -15z m19 -114 c12 -13 21 -19 21 -13 0 7 5 12 10 12 7 0
7 -6 0 -20 -10 -20 -25 -20 -100 -5 -8 2 -17 4 -19 4 -2 1 4 10 13 20 10 11
19 31 20 46 l1 25 17 -22 c9 -13 26 -34 37 -47z m-556 24 c4 -8 3 -16 -1 -19
-4 -3 -9 4 -9 15 -2 23 3 25 10 4z m-45 -90 c2 -40 -7 -44 -34 -14 -18 20 -18
21 1 35 28 20 32 18 33 -21z m507 5 c-10 -15 14 -60 32 -60 15 0 16 -2 3 -10
-9 -5 -17 -5 -20 1 -4 5 -15 11 -26 13 -10 3 -30 9 -44 14 -24 9 -24 10 -5 18
11 4 26 16 33 26 13 18 38 16 27 -2z m-448 -22 c-3 -8 -6 -5 -6 6 -1 11 2 17
5 13 3 -3 4 -12 1 -19z m307 -78 c-14 -22 -21 -27 -31 -18 -13 11 -8 32 7 23
4 -3 13 2 20 10 20 25 22 17 4 -15z m-99 0 c3 -5 2 -10 -4 -10 -5 0 -13 5 -16
10 -3 6 -2 10 4 10 5 0 13 -4 16 -10z m2897 -1314 c-4 -20 -42 -79 -54 -84 -5
-2 -8 -8 -8 -12 0 -5 -36 -63 -80 -129 -44 -67 -80 -126 -80 -131 0 -6 -4 -10
-10 -10 -5 0 -10 -6 -10 -14 0 -8 -3 -16 -7 -18 -11 -4 -83 -116 -83 -127 0
-5 -7 -11 -15 -15 -8 -3 -15 -10 -15 -15 0 -8 -142 -230 -249 -391 -34 -50
-141 -214 -216 -330 -206 -319 -240 -370 -249 -370 -5 0 -2 8 6 18 13 15 137
208 163 254 6 10 47 77 93 150 46 73 89 142 95 153 7 11 14 22 17 25 8 8 60
89 60 94 0 5 85 136 97 151 5 6 12 17 16 25 4 8 13 24 19 34 48 75 105 166
121 195 10 18 23 38 28 45 5 6 38 56 72 111 34 55 66 103 72 107 5 4 7 8 3 8
-6 0 67 117 92 147 5 7 10 14 10 17 0 3 19 35 41 71 28 44 47 65 58 63 9 -2
15 -11 13 -22z m-1108 -1709 c-14 -26 -30 -49 -35 -52 -4 -3 6 19 23 49 18 31
33 54 35 52 2 -2 -8 -24 -23 -49z m-3843 -154 c1 -19 -1 -46 -5 -50 -1 -2 -11
-4 -22 -6 -10 -1 -23 -5 -29 -9 -5 -3 -23 -9 -40 -12 -59 -13 -71 -15 -170
-41 -55 -15 -108 -28 -118 -30 -10 -2 -27 -7 -37 -10 -10 -3 -29 -8 -42 -11
-39 -9 -53 -12 -53 -14 0 -1 -11 -3 -24 -6 -36 -7 -184 -44 -201 -51 -8 -3
-22 -7 -30 -9 -21 -4 -84 -20 -160 -39 -36 -9 -72 -18 -80 -20 -8 -2 -15 -4
-15 -5 0 -1 -7 -3 -15 -5 -8 -2 -26 -6 -40 -9 -14 -3 -79 -19 -145 -37 -144
-37 -342 -88 -370 -93 -11 -3 -20 -5 -20 -6 0 -1 -7 -3 -15 -5 -38 -9 -66 -16
-75 -19 -16 -4 -89 -20 -97 -21 -3 0 -10 -3 -14 -7 -4 -4 -13 -3 -19 2 -17 14
-6 62 16 67 11 3 19 10 19 15 0 5 4 7 10 3 5 -3 53 6 107 20 108 29 125 33
151 39 9 2 37 9 62 16 25 7 52 14 60 15 8 2 15 4 15 5 0 2 15 5 55 13 14 3 45
11 70 18 25 7 50 14 55 14 6 1 21 5 35 10 14 5 32 10 40 11 27 4 63 13 174 43
61 16 114 28 118 25 4 -3 8 -1 8 4 0 5 6 9 13 9 6 0 23 3 37 7 60 14 266 67
392 100 76 20 149 37 163 38 14 1 25 5 25 8 0 4 28 12 63 19 35 7 68 16 75 20
6 3 25 8 42 9 23 2 30 -2 31 -15z m2524 -1581 c21 -15 25 -67 5 -68 -8 -1 -17
-3 -20 -4 -7 -2 -63 -9 -125 -14 -27 -2 -50 -5 -50 -6 0 -2 -16 -3 -35 -5 -31
-2 -111 -11 -190 -20 -29 -4 -104 -12 -175 -20 -27 -3 -63 -7 -80 -9 -16 -3
-61 -8 -100 -11 -38 -4 -77 -9 -85 -10 -14 -3 -52 -7 -175 -21 -22 -3 -62 -7
-90 -9 -27 -3 -68 -8 -90 -10 -91 -13 -132 -17 -172 -18 -24 -1 -43 -4 -43 -7
0 -3 -12 -6 -27 -6 -16 -1 -57 -4 -93 -8 -36 -4 -87 -10 -115 -13 -74 -7 -100
-11 -100 -12 0 -1 -22 -4 -50 -6 -27 -2 -70 -7 -95 -10 -25 -3 -67 -8 -95 -10
-27 -3 -66 -8 -85 -10 -101 -13 -197 -23 -210 -22 -8 0 -29 -3 -46 -7 -29 -7
-30 -6 -29 29 2 43 7 49 48 51 18 0 59 5 92 9 78 10 120 14 175 20 25 2 70 7
100 10 30 4 65 7 78 8 12 1 22 3 22 7 0 3 19 5 43 6 36 0 79 5 197 19 14 2 45
6 70 9 25 3 70 8 100 11 30 3 71 8 90 10 19 2 58 7 85 10 50 5 89 10 175 20
25 3 72 8 105 11 80 7 93 9 101 17 4 3 15 2 25 -4 11 -5 19 -6 19 -1 0 4 10 8
23 9 12 0 42 3 67 6 25 3 74 8 110 12 36 3 76 8 90 11 14 2 50 7 80 10 30 2
69 6 85 8 17 2 55 7 85 10 30 4 71 8 90 11 19 2 67 7 105 11 39 3 72 8 74 10
7 6 25 4 36 -4z m-4517 -1152 c-1 -27 -11 -37 -50 -46 -5 -1 -10 -3 -13 -4 -3
-1 -8 -3 -12 -5 -5 -1 -15 -4 -23 -7 -20 -8 -254 -79 -271 -82 -8 -2 -21 -6
-29 -9 -21 -8 -93 -31 -105 -33 -5 -1 -84 -25 -175 -54 -91 -28 -169 -53 -175
-54 -5 -2 -23 -6 -40 -11 -16 -4 -34 -10 -40 -13 -5 -4 -16 -7 -25 -8 -8 -1
-36 -9 -62 -17 -26 -8 -49 -12 -52 -9 -4 3 -6 1 -6 -5 0 -9 -49 -24 -75 -24
-2 0 -20 -6 -39 -14 -47 -20 -46 -20 -46 19 0 38 0 38 155 86 39 12 77 24 85
27 8 3 22 7 30 8 15 2 136 38 250 75 36 12 72 23 80 26 8 2 40 11 70 19 30 8
62 18 70 22 8 3 21 7 27 9 7 1 43 12 80 24 38 12 75 23 83 25 8 2 27 8 43 14
15 6 27 8 27 5 0 -4 6 -2 13 3 6 6 26 14 42 18 32 9 33 9 55 17 45 16 116 34
122 31 4 -2 6 -17 6 -33z"/>
</g>
</svg>
